<svg width="59" height="66" viewBox="0 0 59 66" fill="none" xmlns="http://www.w3.org/2000/svg">
<path d="M30 0C20.6462 0 13 7.64624 13 17C13 26.3538 20.6462 34 30 34C39.3538 34 47 26.3538 47 17C47 7.64624 39.3538 0 30 0Z" fill="#797979" fill-opacity="0.5"/>
<path d="M58.8739 47.3352C58.4288 46.2225 57.8355 45.1841 57.1679 44.2199C53.7559 39.176 48.4897 35.8383 42.5558 35.0223C41.8142 34.9482 40.9983 35.0965 40.4048 35.5415C37.2895 37.8409 33.5809 39.0277 29.7238 39.0277C25.8667 39.0277 22.1581 37.8409 19.0428 35.5415C18.4494 35.0965 17.6335 34.874 16.8918 35.0223C10.9579 35.8383 5.6175 39.176 2.27974 44.2199C1.61218 45.1841 1.01874 46.2968 0.573798 47.3352C0.351327 47.7803 0.425437 48.2994 0.647907 48.7445C1.24135 49.7829 1.98301 50.8214 2.65057 51.7115C3.68895 53.1208 4.80159 54.3817 6.06259 55.5684C7.10097 56.6068 8.28772 57.5711 9.47461 58.5354C15.3342 62.9116 22.3807 65.2109 29.6497 65.2109C36.9187 65.2109 43.9652 62.9115 49.8248 58.5354C51.0116 57.6453 52.1983 56.6068 53.2368 55.5684C54.4236 54.3817 55.6103 53.1207 56.6489 51.7115C57.3905 50.7472 58.0582 49.7829 58.6515 48.7445C59.0222 48.2994 59.0963 47.7801 58.8739 47.3352Z" fill="#797979" fill-opacity="0.5"/>
</svg>
