<svg width="143" height="27" viewBox="0 0 143 27" fill="none" xmlns="http://www.w3.org/2000/svg">
<g clip-path="url(#clip0_957_2279)">
<path d="M4.36523 17.354C4.36523 17.354 11.2664 15.2309 16.7592 19.3848C13.9893 21.1386 7.69846 20.5386 4.36523 17.354Z" fill="#848484"/>
<path d="M14.5061 20.3078C13.3794 20.4924 12.1118 20.5385 10.7504 20.3078C8.16829 19.9385 5.82094 18.877 4.2717 17.4001L4.13086 17.2616L4.31865 17.2155C4.31865 17.2155 6.10263 16.6616 8.49691 16.6616C10.7034 16.6616 13.9427 17.077 16.8065 19.2462L16.9473 19.3385L16.8065 19.4309C16.1962 19.8924 15.3981 20.1693 14.5061 20.3078ZM4.60033 17.4001C6.10263 18.7385 8.35607 19.7539 10.7973 20.077C13.0508 20.4001 15.1634 20.1232 16.5248 19.3385C11.7362 15.8309 5.82094 17.1232 4.60033 17.4001Z" fill="black"/>
<path d="M19.3893 19.1076C16.9481 17.3076 14.0844 16.1537 11.0798 15.646C8.07516 15.1383 4.97667 15.3691 2.06597 16.246L1.83123 16.3383L1.78429 16.5691C1.22093 19.8922 2.62933 23.0768 5.2114 25.0153C5.2114 25.0153 5.2114 24.9691 5.2114 24.9229C5.3053 24.4153 5.82171 24.046 6.38508 24.2306C6.76065 24.3229 7.04233 24.6922 7.04233 25.1076C7.04233 25.3845 6.90149 25.6153 6.7137 25.7537C6.66676 25.7999 6.66676 25.8922 6.7137 25.9383C7.55875 26.3537 8.49768 26.6306 9.48357 26.7691C14.3191 27.4153 18.779 24.0922 19.5771 19.3383V19.1999L19.3893 19.1076ZM4.64804 23.9537C4.22552 23.9537 3.89689 23.5383 4.08468 23.1691C4.17857 22.9845 4.41331 22.846 4.6011 22.7999C5.02362 22.7999 5.35225 23.2153 5.16446 23.5845C5.07056 23.7691 4.83583 23.9076 4.64804 23.9537ZM6.43202 23.3537C6.24423 23.3537 6.10339 23.1691 6.15034 22.9845C6.19729 22.8922 6.29118 22.7999 6.38508 22.7999C6.57286 22.7999 6.7137 22.9845 6.66676 23.1691C6.66676 23.2614 6.57286 23.3537 6.43202 23.3537ZM14.2721 21.4153L13.8496 22.7999C13.8496 22.846 13.7557 22.846 13.7557 22.7999L13.6149 21.5076C12.5821 21.646 11.5962 21.5999 10.7042 21.4614C6.66676 20.8153 3.803 17.9999 2.86406 17.1691C2.72322 17.0768 2.77017 16.846 2.95796 16.7999C8.216 15.4153 13.8966 16.3383 18.4035 19.3383C18.5912 19.4306 18.5912 19.7076 18.4035 19.7999C16.9481 20.6768 15.5397 21.1845 14.2721 21.4153Z" fill="#AA6D30"/>
<path d="M12.2533 26.8614C11.3143 27.0461 10.3754 27.0461 9.43647 26.9076C8.45059 26.7691 7.51165 26.4922 6.61966 26.0768C6.52577 26.0307 6.47882 25.9845 6.47882 25.8922C6.47882 25.7999 6.47882 25.7538 6.57272 25.7076C6.7605 25.5691 6.8544 25.3845 6.8544 25.1538C6.8544 24.7845 6.61966 24.5076 6.29104 24.4153C6.0563 24.3691 5.86852 24.3691 5.63378 24.5076C5.44599 24.6461 5.30515 24.8307 5.25821 25.0153V25.0614V25.2922L5.07042 25.1538C2.4414 23.0768 1.12689 19.7999 1.69025 16.523L1.7372 16.1999L2.06582 16.1076C4.97653 15.2307 8.12196 14.9999 11.1266 15.5076C14.1312 16.0153 17.0419 17.2153 19.4831 18.9691L19.7648 19.1538L19.7178 19.3845C19.3423 21.6922 18.0747 23.7691 16.1499 25.1999C14.9762 26.0307 13.6617 26.5845 12.2533 26.8614ZM6.80745 25.8461C7.65249 26.2614 8.54448 26.5384 9.48342 26.6307C14.1781 27.2307 18.6381 23.9538 19.4361 19.2922V19.2461L19.2953 19.1538C16.8541 17.3999 13.9903 16.2461 11.0327 15.7384C8.07501 15.2307 4.97653 15.4614 2.06582 16.3384L1.92498 16.3845L1.87804 16.523C1.45551 19.1538 2.25361 21.7845 3.99064 23.723C3.8498 23.5384 3.80286 23.2614 3.89675 23.0307C3.99064 22.7999 4.27232 22.6153 4.50706 22.6153C4.74179 22.6153 4.97653 22.7076 5.11737 22.8922C5.25821 23.0768 5.30515 23.3538 5.21126 23.5845C5.11737 23.8153 4.83569 23.9999 4.60095 23.9999C4.41316 23.9999 4.22538 23.9538 4.08454 23.8153C4.36622 24.1384 4.74179 24.4614 5.07042 24.7384C5.16431 24.5076 5.30515 24.323 5.49294 24.1845C5.72767 24.0461 6.0563 23.9999 6.33798 24.0461C6.80745 24.1845 7.08913 24.5999 7.08913 25.0614C7.13608 25.4307 6.99524 25.6614 6.80745 25.8461ZM4.554 22.9384C4.41316 22.9384 4.22538 23.0768 4.17843 23.1691C4.13148 23.3076 4.13148 23.4922 4.22538 23.5845C4.31927 23.723 4.46011 23.7691 4.6479 23.7691C4.78874 23.7691 4.97653 23.6307 5.02347 23.4922C5.07042 23.3538 5.07042 23.1691 4.97653 23.0768C4.88263 22.9845 4.74179 22.8922 4.554 22.9384ZM13.8025 22.9845H13.7556C13.6617 22.9845 13.6147 22.8922 13.6147 22.8461L13.5208 21.6922C12.5819 21.7845 11.643 21.7845 10.704 21.5999C6.8544 20.9538 3.99064 18.3691 2.95781 17.3999L2.81697 17.2614C2.72308 17.1691 2.67613 17.0768 2.72308 16.9384C2.77003 16.7999 2.86392 16.7076 2.95781 16.7076C8.2628 15.323 13.9434 16.2461 18.4972 19.2461C18.5911 19.3384 18.685 19.4307 18.685 19.5691C18.685 19.7076 18.5911 19.8461 18.4972 19.8922C17.1827 20.723 15.7743 21.2768 14.4128 21.5076L14.0373 22.7999C13.9434 22.8922 13.8964 22.9384 13.8025 22.9845ZM4.50706 16.5691C3.99064 16.6614 3.47423 16.7538 2.95781 16.8922C2.91087 16.8922 2.91087 16.9384 2.91087 16.9384C2.91087 16.9384 2.91087 16.9845 2.95781 17.0307L3.09865 17.1691C4.13148 18.1384 6.94829 20.6768 10.704 21.323C11.643 21.4614 12.6289 21.5076 13.5678 21.3691H13.7086L13.8025 22.3845L14.1312 21.323H14.225C15.5865 21.0922 16.948 20.5384 18.3094 19.7076C18.3564 19.6614 18.4033 19.6153 18.4033 19.5691C18.4033 19.523 18.3564 19.4768 18.3564 19.4307C14.225 16.7538 9.29563 15.7384 4.50706 16.5691ZM6.52577 23.4922H6.47882C6.33798 23.4922 6.19714 23.4461 6.1502 23.3076C6.0563 23.2153 6.0563 23.0768 6.10325 22.9384C6.1502 22.7999 6.29104 22.6614 6.47882 22.6614C6.61966 22.6614 6.7605 22.7076 6.80745 22.8461C6.90134 22.9384 6.90135 23.0768 6.8544 23.2153C6.7605 23.3538 6.66661 23.4461 6.52577 23.4922ZM6.43188 23.2153C6.47882 23.2153 6.52577 23.1691 6.57272 23.123C6.57272 23.0768 6.57272 23.0307 6.57272 22.9845C6.52577 22.9384 6.47882 22.9384 6.43188 22.9384C6.38493 22.9384 6.33798 22.9845 6.29104 23.0307C6.29104 23.0768 6.29104 23.123 6.29104 23.1691C6.33798 23.2153 6.38493 23.2153 6.43188 23.2153Z" fill="black"/>
<path d="M7.13566 5.86148C7.13566 5.86148 5.58641 2.86148 11.1731 0.230713C11.9242 1.93841 11.7364 3.09225 7.13566 5.86148Z" fill="#3FB232"/>
<path d="M10.3279 3.83077C9.62373 4.43077 8.63784 5.12308 7.27638 5.95385L7.13554 6.04615L7.04165 5.90769C7.04165 5.86154 6.57218 5.03077 6.9947 3.83077C7.46417 2.4 8.87258 1.15385 11.126 0.0923077L11.2669 0L11.3138 0.138462C11.8772 1.47692 11.8302 2.44615 10.3279 3.83077ZM7.22944 5.63077C11.4547 3.09231 11.7363 1.98462 11.126 0.369231C9.06036 1.38462 7.69891 2.63077 7.27638 3.87692C6.9947 4.70769 7.13554 5.35385 7.22944 5.63077Z" fill="black"/>
<path d="M7.08868 5.8614C7.08868 5.8614 6.1028 2.63064 0.1875 4.5691C0.891702 6.32294 1.83064 7.0614 7.08868 5.8614Z" fill="#3FB232"/>
<path d="M7.27676 5.95374L7.08897 5.99989C1.97177 7.15374 0.845043 6.50758 0.0469468 4.61528L0 4.47681L0.14084 4.43066C2.53513 3.64604 4.413 3.59989 5.77446 4.2922C6.90118 4.8922 7.18286 5.76912 7.22981 5.81528L7.27676 5.95374ZM0.375574 4.66143C1.07978 6.23066 2.01871 6.83066 6.90118 5.76912C6.76034 5.4922 6.43171 4.93835 5.63362 4.52297C4.413 3.92297 2.58207 3.96912 0.375574 4.66143Z" fill="black"/>
<path d="M7.13649 5.86154C2.39486 7.7077 0.0944626 13.0615 2.01928 17.7231C4.08494 17.9077 6.10366 17.7231 8.07542 17.3077L7.98153 15.6462C7.98153 15.5539 8.12237 15.5077 8.16931 15.6L8.92046 17.1692C12.9109 16.1539 16.5258 14.0308 19.2957 10.8923C17.3239 6.18462 11.9251 3.96924 7.13649 5.86154Z" fill="#AA6D30"/>
<path d="M17.6991 12.5999C15.211 14.8614 12.2064 16.4307 8.92008 17.2614L8.82619 17.3076L8.16893 15.923L8.30977 17.4461L8.16893 17.4922C6.15022 17.9076 4.08456 18.0461 2.06584 17.9076H1.97195L1.925 17.8153C0.986067 15.5076 0.986067 13.0153 1.97195 10.7076C2.95783 8.44605 4.78876 6.64605 7.08915 5.72298C11.9247 3.78451 17.4175 6.09221 19.3423 10.8461L19.3892 10.9384L19.3423 10.9845C18.8259 11.5384 18.2625 12.0922 17.6991 12.5999ZM8.96703 16.9845C12.9106 15.9691 16.3846 13.8461 19.1075 10.8461C18.1686 8.67682 16.4785 6.96913 14.2251 6.04605C11.9716 5.12298 9.48344 5.07682 7.22999 5.9999C2.58226 7.84605 0.328812 13.0614 2.15974 17.6307C4.1315 17.7691 6.05632 17.6307 7.98114 17.2614L7.8403 15.6922C7.8403 15.5999 7.88725 15.4614 8.02809 15.4614C8.12198 15.4153 8.26282 15.4614 8.30977 15.5999L8.96703 16.9845Z" fill="black"/>
<path d="M33.144 24C31.6887 24 30.4211 23.6769 29.3413 23.0308C28.2615 22.3846 27.3696 21.4615 26.7592 20.1692C26.1489 18.9231 25.8203 17.3539 25.8203 15.5077C25.8203 13.6154 26.1489 12.0923 26.7592 10.8C27.3696 9.55385 28.2146 8.58462 29.3413 7.93847C30.4211 7.29232 31.7356 6.96924 33.144 6.96924C35.2097 6.96924 36.8059 7.43078 37.8856 8.40001C38.9654 9.36924 39.6227 10.6154 39.8105 12.1846L35.6791 12.9692C35.4914 12.2769 35.2097 11.7231 34.7872 11.2615C34.3646 10.8 33.8482 10.5692 33.144 10.5692C32.5337 10.5692 32.0173 10.7539 31.5478 11.1231C31.0784 11.4923 30.7028 12.0462 30.468 12.7846C30.2333 13.5231 30.0925 14.4462 30.0925 15.6C30.0925 16.7077 30.2333 17.6308 30.468 18.3692C30.7497 19.1077 31.0784 19.6615 31.5478 19.9846C32.0173 20.3077 32.5337 20.5385 33.144 20.5385C33.9891 20.5385 34.5994 20.3077 35.0219 19.8923C35.4444 19.4308 35.6322 18.9231 35.6322 18.2769H39.8105C39.8105 19.5231 39.5757 20.5846 39.0593 21.4615C38.5429 22.3385 37.7917 22.9846 36.8059 23.4462C35.82 23.7692 34.5994 24 33.144 24Z" fill="black"/>
<path d="M49.7639 24C48.2146 24 46.8062 23.6769 45.6795 23.0308C44.5058 22.3846 43.6138 21.4154 42.9566 20.1692C42.2993 18.8769 41.9707 17.3538 41.9707 15.4615C41.9707 13.5692 42.2993 11.9538 42.9566 10.7077C43.6138 9.46153 44.5058 8.53846 45.6795 7.93846C46.8532 7.33846 48.2146 7.01538 49.7639 7.01538C51.3601 7.01538 52.7215 7.33846 53.8952 7.98461C55.0689 8.63076 56.0078 9.55384 56.6181 10.8C57.2754 12.0461 57.604 13.6154 57.604 15.4615C57.604 17.3538 57.2754 18.9231 56.6181 20.2154C55.9609 21.5077 55.0689 22.4308 53.8952 23.0769C52.7685 23.6769 51.3601 24 49.7639 24ZM49.7639 20.5385C50.8906 20.5385 51.8295 20.0769 52.5337 19.2C53.2379 18.3231 53.5666 17.0308 53.5666 15.4154C53.5666 13.8923 53.2379 12.6923 52.5337 11.8154C51.8295 10.9385 50.9375 10.4769 49.7639 10.4769C48.6371 10.4769 47.7452 10.9385 47.041 11.8154C46.3368 12.6923 46.0081 13.8923 46.0081 15.4615C46.0081 17.0769 46.3368 18.3231 47.041 19.2C47.7452 20.0769 48.6841 20.5385 49.7639 20.5385Z" fill="black"/>
<path d="M67.0405 24C65.5852 24 64.3176 23.6769 63.2378 23.0308C62.158 22.3846 61.266 21.4615 60.6557 20.1692C60.0454 18.9231 59.7168 17.3539 59.7168 15.5077C59.7168 13.6154 60.0454 12.0923 60.6557 10.8C61.266 9.55385 62.1111 8.58462 63.2378 7.93847C64.3176 7.29232 65.6321 6.96924 67.0405 6.96924C69.1062 6.96924 70.7024 7.43078 71.7821 8.40001C72.8619 9.36924 73.5192 10.6154 73.707 12.1846L69.5287 12.8769C69.3409 12.1846 69.0592 11.6308 68.6367 11.1692C68.2142 10.7077 67.6978 10.4769 66.9936 10.4769C66.3832 10.4769 65.8668 10.6615 65.3974 11.0308C64.9279 11.4 64.5523 11.9539 64.3176 12.6923C64.0829 13.4308 63.942 14.3539 63.942 15.5077C63.942 16.6154 64.0829 17.5385 64.3176 18.2769C64.5993 19.0154 64.9279 19.5692 65.3974 19.8923C65.8668 20.2154 66.3832 20.4462 66.9936 20.4462C67.8386 20.4462 68.4489 20.2154 68.8714 19.8C69.2939 19.3385 69.4817 18.8308 69.4817 18.1846H73.66C73.66 19.4308 73.4253 20.4923 72.9089 21.3692C72.3924 22.2462 71.6413 22.8923 70.6554 23.3539C69.7165 23.7692 68.4959 24 67.0405 24Z" stroke="black" stroke-miterlimit="10"/>
<path d="M83.6594 24C82.1101 24 80.7017 23.6769 79.575 23.0308C78.4013 22.3846 77.5093 21.4154 76.8521 20.1692C76.1948 18.8769 75.8662 17.3538 75.8662 15.4615C75.8662 13.5692 76.1948 11.9538 76.8521 10.7077C77.5093 9.46153 78.4013 8.53846 79.575 7.93846C80.7487 7.33846 82.1101 7.01538 83.6594 7.01538C85.2556 7.01538 86.617 7.33846 87.7907 7.98461C88.9644 8.63076 89.9033 9.55384 90.5136 10.8C91.1709 12.0461 91.4995 13.6154 91.4995 15.4615C91.4995 17.3538 91.1709 18.9231 90.5136 20.2154C89.8564 21.5077 88.9644 22.4308 87.7907 23.0769C86.617 23.6769 85.2556 24 83.6594 24ZM83.6594 20.5385C84.7861 20.5385 85.725 20.0769 86.4292 19.2C87.1334 18.3231 87.4621 17.0308 87.4621 15.4154C87.4621 13.8923 87.1334 12.6923 86.4292 11.8154C85.725 10.9385 84.833 10.4769 83.6594 10.4769C82.5327 10.4769 81.6407 10.9385 80.9365 11.8154C80.2323 12.6923 79.9036 13.8923 79.9036 15.4615C79.9036 17.0769 80.2323 18.3231 80.9365 19.2C81.6407 20.0769 82.5327 20.5385 83.6594 20.5385Z" stroke="black" stroke-miterlimit="10"/>
<path d="M94.5508 7.38452H98.6821L105.067 17.2153V7.38452H109.01V23.6307H105.161L98.4943 12.8307V23.6307H94.5508V7.38452Z" stroke="black" stroke-miterlimit="10"/>
<path d="M113.001 7.38452H116.945V17.2153C116.945 18.3691 117.226 19.1999 117.836 19.7076C118.447 20.2153 119.198 20.4922 120.09 20.4922C121.029 20.4922 121.78 20.2153 122.39 19.7076C123.001 19.1999 123.282 18.3691 123.282 17.2153V7.38452H127.226V17.2153C127.226 18.5999 126.944 19.7999 126.381 20.8153C125.817 21.8307 125.019 22.6153 123.987 23.1691C122.907 23.723 121.639 23.9999 120.09 23.9999C118.541 23.9999 117.273 23.723 116.24 23.1691C115.207 22.6153 114.362 21.8307 113.846 20.8153C113.33 19.7999 113.048 18.5999 113.048 17.2153V7.38452H113.001Z" stroke="black" stroke-miterlimit="10"/>
<path d="M129.15 10.7538V7.38452H142.765V10.7538H137.929V23.6307H133.986V10.7538H129.15Z" stroke="black" stroke-miterlimit="10"/>
<path d="M15.1322 11.745C15.5309 11.344 15.1778 10.3688 14.3435 9.56691C13.5091 8.76501 12.5095 8.44002 12.1107 8.84104C11.7119 9.24205 12.065 10.2172 12.8994 11.0191C13.7337 11.821 14.7334 12.146 15.1322 11.745Z" fill="black"/>
<path d="M16.9492 9.61469C17.2872 9.29838 17.0396 8.50315 16.3961 7.8385C15.7526 7.17386 14.9569 6.89147 14.6189 7.20779C14.2809 7.5241 14.5285 8.31932 15.172 8.98397C15.8155 9.64862 16.6112 9.931 16.9492 9.61469Z" fill="black"/>
</g>
<defs>
<clipPath id="clip0_957_2279">
<rect width="143" height="27" fill="white"/>
</clipPath>
</defs>
</svg>
