<svg width="215" height="40" viewBox="0 0 215 40" fill="none" xmlns="http://www.w3.org/2000/svg">
<g filter="url(#filter0_b_179:6642)">
<path d="M0 0H215V40H0V0Z" fill="#FFB331" fill-opacity="0.75"/>
<g clip-path="url(#clip0_179:6642)">
<path d="M41.6414 18.6509C41.6414 20.2892 40.5162 22.5517 39.1263 22.5517C37.7365 22.5517 36.6113 20.2892 36.6113 18.6509H41.6414Z" fill="black"/>
<path fill-rule="evenodd" clip-rule="evenodd" d="M39.5818 23.7419L39.6658 23.7012L39.6355 23.7419H39.65C41.3681 23.7419 42.759 25.1459 42.759 26.8802V34.8087H35.1283V29.7047L29.9009 30.721L29.625 23.3877L29.6253 21.9421L30.4632 21.3848L30.7428 22.5518L31.7058 27.5544L35.3143 25.8076C35.7481 24.6021 36.8924 23.7419 38.2373 23.7419H39.5818Z" fill="black"/>
<path d="M35.7503 13.2107C35.7503 12.0686 34.8762 11.142 33.7676 11.0773C33.7036 10.9049 33.6397 10.7541 33.5757 10.5817C34.3219 9.74129 34.2793 8.46991 33.4904 7.6726C33.0854 7.26318 32.5737 7.04769 31.998 7.04769C31.465 7.04769 30.9747 7.24163 30.5909 7.58641C30.4417 7.52176 30.2711 7.43557 30.1006 7.39247C30.0366 6.27193 29.1199 5.38843 27.9899 5.38843C26.86 5.38843 25.9432 6.27193 25.8792 7.39247C25.7087 7.45712 25.5594 7.52176 25.3889 7.58641C25.0051 7.24163 24.5148 7.04769 23.9818 7.04769C23.4275 7.04769 22.8945 7.26318 22.4894 7.6726C21.7006 8.46991 21.6792 9.76284 22.4041 10.5817C22.3402 10.7325 22.2549 10.9049 22.2122 11.0773C21.1036 11.142 20.2295 12.0686 20.2295 13.2107C20.2295 14.3527 21.1036 15.2793 22.2122 15.344C22.2762 15.5164 22.3402 15.6672 22.4041 15.8396C21.6579 16.68 21.7006 17.9514 22.4894 18.7487C22.8945 19.1581 23.4061 19.3736 23.9818 19.3736C24.5148 19.3736 25.0051 19.1797 25.3889 18.8349C25.5381 18.8996 25.7087 18.9857 25.8792 19.0288C25.9432 20.1494 26.86 21.0329 27.9899 21.0329C29.1199 21.0329 30.0366 20.1494 30.1006 19.0288C30.2711 18.9642 30.4204 18.8996 30.5909 18.8349C30.9747 19.1797 31.465 19.3736 31.998 19.3736C32.5524 19.3736 33.0854 19.1581 33.4904 18.7487C34.2793 17.9514 34.3006 16.6585 33.5757 15.8396C33.6397 15.6888 33.7249 15.5164 33.7676 15.344C34.8762 15.2793 35.7503 14.3527 35.7503 13.2107ZM33.2559 13.9218C32.9361 13.9218 32.659 14.1373 32.5737 14.4389C32.4671 14.8484 32.3178 15.2362 32.1046 15.581C31.9554 15.8612 31.998 16.2059 32.2112 16.443L32.4884 16.7231C32.7656 17.0033 32.7656 17.4558 32.4884 17.7359C32.3605 17.8652 32.1899 17.9514 31.998 17.9514C31.8062 17.9514 31.6356 17.8868 31.5077 17.7359L31.2305 17.4558C30.996 17.2187 30.6549 17.1756 30.3777 17.348C30.0153 17.5635 29.6315 17.7144 29.2478 17.8221C28.9493 17.9083 28.7361 18.1884 28.7361 18.5117V18.8996C28.7361 19.2874 28.4163 19.6107 28.0325 19.6107C27.6488 19.6107 27.329 19.2874 27.329 18.8996V18.5117C27.329 18.1884 27.1158 17.9083 26.8173 17.8221C26.4122 17.7144 26.0285 17.5635 25.6874 17.348C25.5808 17.2834 25.4529 17.2618 25.3463 17.2618C25.1544 17.2618 24.9838 17.3265 24.8559 17.4773L24.5787 17.7575C24.4508 17.8868 24.2803 17.973 24.0884 17.973C23.8965 17.973 23.7259 17.9083 23.598 17.7575C23.3209 17.4773 23.3209 17.0248 23.598 16.7447L23.8752 16.4645C24.1097 16.2275 24.1523 15.8827 23.9818 15.6026C23.7686 15.2362 23.6193 14.8484 23.5127 14.4605C23.4275 14.1588 23.1503 13.9433 22.8305 13.9433H22.4468C22.063 13.9433 21.7432 13.6201 21.7432 13.2322C21.7432 12.8443 22.063 12.5211 22.4468 12.5211H22.8305C23.1503 12.5211 23.4275 12.3056 23.5127 12.0039C23.6193 11.5945 23.7686 11.2066 23.9818 10.8618C24.131 10.5817 24.0884 10.2369 23.8752 9.99988L23.598 9.71975C23.3209 9.43961 23.3209 8.98708 23.598 8.70695C23.7259 8.57766 23.8965 8.49146 24.0884 8.49146C24.2803 8.49146 24.4508 8.55611 24.5787 8.70695L24.8559 8.98708C25.0904 9.22412 25.4315 9.26722 25.7087 9.09483C26.0711 8.87934 26.4549 8.7285 26.8386 8.62075C27.1371 8.53456 27.3503 8.25442 27.3503 7.93119V7.54331C27.3503 7.15543 27.6701 6.8322 28.0539 6.8322C28.4376 6.8322 28.7574 7.15543 28.7574 7.54331V7.93119C28.7574 8.25442 28.9706 8.53456 29.2691 8.62075C29.6742 8.7285 30.0579 8.87934 30.3991 9.09483C30.6762 9.24567 31.0173 9.20257 31.2518 8.98708L31.529 8.70695C31.6569 8.57766 31.8275 8.49146 32.0194 8.49146C32.2112 8.49146 32.3818 8.55611 32.5097 8.70695C32.7869 8.98708 32.7869 9.43961 32.5097 9.71975L32.2326 9.99988C31.998 10.2369 31.9554 10.5817 32.126 10.8618C32.3392 11.2282 32.4884 11.616 32.595 12.0039C32.6803 12.3056 32.9574 12.5211 33.2772 12.5211H33.661C34.0447 12.5211 34.3645 12.8443 34.3645 13.2322C34.3645 13.6201 34.0447 13.9433 33.661 13.9433L33.2559 13.9218Z" fill="black"/>
<path d="M28.013 11.0986C26.8617 11.0986 25.9023 12.0468 25.9023 13.232C25.9023 14.3956 26.8404 15.3653 28.013 15.3653C29.1856 15.3653 30.1237 14.4172 30.1237 13.232C30.1237 12.0468 29.1856 11.0986 28.013 11.0986ZM28.013 13.9215C27.6293 13.9215 27.3095 13.5983 27.3095 13.2104C27.3095 12.8225 27.6293 12.4993 28.013 12.4993C28.3968 12.4993 28.7166 12.8225 28.7166 13.2104C28.7166 13.5983 28.3968 13.9215 28.013 13.9215Z" fill="black"/>
<path d="M41.6411 17.5364H36.5552L34.3755 18.6509H41.6411V17.5364Z" fill="black"/>
<path d="M36.6113 17.5363C36.6113 15.9949 37.7351 14.75 39.1263 14.75C40.5176 14.75 41.6414 15.9949 41.6414 17.5363" fill="black"/>
</g>
<path d="M64.35 25C64.998 25 65.592 24.934 66.132 24.802C66.672 24.658 67.14 24.448 67.536 24.172C67.944 23.884 68.256 23.524 68.472 23.092C68.7 22.648 68.814 22.12 68.814 21.508C68.814 20.716 68.61 20.068 68.202 19.564C67.794 19.06 67.266 18.682 66.618 18.43C67.026 18.166 67.386 17.842 67.698 17.458C68.022 17.062 68.184 16.6 68.184 16.072C68.184 15.244 68.004 14.59 67.644 14.11C67.284 13.63 66.786 13.288 66.15 13.084C65.526 12.868 64.8 12.76 63.972 12.76H60.12V25H64.35ZM63.828 14.218C64.356 14.218 64.812 14.272 65.196 14.38C65.58 14.476 65.874 14.662 66.078 14.938C66.294 15.202 66.402 15.586 66.402 16.09C66.402 16.546 66.27 16.912 66.006 17.188C65.754 17.464 65.406 17.662 64.962 17.782C64.53 17.902 64.05 17.968 63.522 17.98H61.848V14.218H63.828ZM64.458 19.384C65.238 19.384 65.862 19.558 66.33 19.906C66.81 20.254 67.05 20.8 67.05 21.544C67.05 22.024 66.93 22.414 66.69 22.714C66.45 23.014 66.12 23.236 65.7 23.38C65.28 23.512 64.806 23.578 64.278 23.578H61.848V19.384H64.458ZM78.7417 25L78.5077 23.65H72.6937V19.438H77.0857L76.8517 18.106H72.6937V14.092H78.0937L77.8597 12.76H70.9657V25H78.7417ZM82.4496 25V12.76H80.7216V25H82.4496ZM87.4242 25V15.874L88.1082 16.954L93.7782 25H95.3262V12.76H93.5802V21.814L92.7162 20.464L87.2262 12.76H85.6962V25H87.4242ZM103.081 19.888H105.745V23.47C105.481 23.554 105.181 23.626 104.845 23.686C104.521 23.746 104.155 23.776 103.747 23.776C102.931 23.776 102.199 23.578 101.551 23.182C100.903 22.786 100.393 22.228 100.021 21.508C99.6494 20.776 99.4634 19.918 99.4634 18.934C99.4634 18.13 99.5834 17.422 99.8234 16.81C100.075 16.186 100.417 15.67 100.849 15.262C101.281 14.842 101.767 14.524 102.307 14.308C102.859 14.092 103.429 13.984 104.017 13.984C104.413 13.984 104.749 14.008 105.025 14.056C105.301 14.092 105.559 14.146 105.799 14.218C106.051 14.29 106.321 14.38 106.609 14.488L107.149 13.246C106.861 13.066 106.513 12.922 106.105 12.814C105.709 12.706 105.319 12.628 104.935 12.58C104.551 12.532 104.233 12.508 103.981 12.508C103.081 12.508 102.247 12.664 101.479 12.976C100.711 13.288 100.039 13.732 99.4634 14.308C98.8994 14.884 98.4554 15.568 98.1314 16.36C97.8194 17.14 97.6634 18.004 97.6634 18.952C97.6634 20.14 97.9094 21.208 98.4014 22.156C98.9054 23.104 99.6134 23.86 100.525 24.424C101.449 24.976 102.535 25.252 103.783 25.252C104.227 25.252 104.665 25.21 105.097 25.126C105.541 25.054 105.955 24.952 106.339 24.82C106.723 24.688 107.053 24.544 107.329 24.388L107.347 18.574H103.225L103.081 19.888ZM122.043 13.246C121.743 13.066 121.395 12.922 120.999 12.814C120.615 12.706 120.231 12.628 119.847 12.58C119.475 12.532 119.169 12.508 118.929 12.508C118.029 12.508 117.219 12.67 116.499 12.994C115.791 13.318 115.185 13.774 114.681 14.362C114.177 14.938 113.787 15.616 113.511 16.396C113.247 17.176 113.115 18.028 113.115 18.952C113.115 19.816 113.235 20.626 113.475 21.382C113.715 22.138 114.075 22.81 114.555 23.398C115.035 23.974 115.629 24.43 116.337 24.766C117.057 25.09 117.885 25.252 118.821 25.252C119.169 25.252 119.541 25.222 119.937 25.162C120.345 25.102 120.741 25.018 121.125 24.91C121.509 24.802 121.833 24.676 122.097 24.532L121.431 23.236C121.095 23.392 120.711 23.524 120.279 23.632C119.847 23.728 119.337 23.776 118.749 23.776C118.137 23.776 117.591 23.65 117.111 23.398C116.643 23.146 116.241 22.798 115.905 22.354C115.581 21.898 115.335 21.382 115.167 20.806C114.999 20.218 114.915 19.594 114.915 18.934C114.915 17.95 115.089 17.086 115.437 16.342C115.797 15.598 116.277 15.022 116.877 14.614C117.477 14.194 118.149 13.984 118.893 13.984C119.289 13.984 119.625 14.008 119.901 14.056C120.177 14.092 120.441 14.146 120.693 14.218C120.945 14.29 121.215 14.38 121.503 14.488L122.043 13.246ZM131.845 25L131.611 23.65H125.797V19.438H130.189L129.955 18.106H125.797V14.092H131.197L130.963 12.76H124.069V25H131.845ZM135.553 25V15.874L136.237 16.954L141.907 25H143.455V12.76H141.709V21.814L140.845 20.464L135.355 12.76H133.825V25H135.553ZM146.008 24.334C146.128 24.442 146.326 24.55 146.602 24.658C146.878 24.766 147.184 24.862 147.52 24.946C147.868 25.03 148.21 25.096 148.546 25.144C148.894 25.204 149.194 25.234 149.446 25.234C150.394 25.234 151.192 25.096 151.84 24.82C152.5 24.532 152.998 24.142 153.334 23.65C153.682 23.146 153.856 22.576 153.856 21.94C153.856 21.496 153.784 21.1 153.64 20.752C153.496 20.404 153.286 20.092 153.01 19.816C152.746 19.54 152.416 19.288 152.02 19.06C151.636 18.82 151.192 18.586 150.688 18.358C149.992 18.034 149.404 17.746 148.924 17.494C148.456 17.23 148.102 16.954 147.862 16.666C147.634 16.366 147.52 16.012 147.52 15.604C147.52 15.064 147.748 14.662 148.204 14.398C148.672 14.134 149.248 14.002 149.932 14.002C150.316 14.002 150.658 14.038 150.958 14.11C151.27 14.17 151.546 14.248 151.786 14.344C152.038 14.44 152.266 14.542 152.47 14.65L153.046 13.282C152.638 13.078 152.146 12.892 151.57 12.724C151.006 12.556 150.418 12.472 149.806 12.472C148.978 12.472 148.264 12.616 147.664 12.904C147.064 13.18 146.602 13.558 146.278 14.038C145.954 14.506 145.792 15.04 145.792 15.64C145.792 16.108 145.858 16.516 145.99 16.864C146.122 17.212 146.32 17.524 146.584 17.8C146.86 18.076 147.19 18.334 147.574 18.574C147.97 18.802 148.432 19.036 148.96 19.276C149.632 19.564 150.202 19.84 150.67 20.104C151.138 20.356 151.492 20.632 151.732 20.932C151.984 21.22 152.11 21.568 152.11 21.976C152.11 22.324 152.008 22.636 151.804 22.912C151.6 23.176 151.3 23.38 150.904 23.524C150.508 23.668 150.016 23.74 149.428 23.74C149.068 23.74 148.696 23.698 148.312 23.614C147.928 23.53 147.568 23.428 147.232 23.308C146.908 23.188 146.632 23.074 146.404 22.966L146.008 24.334ZM160.905 25.252C159.789 25.252 158.793 24.982 157.917 24.442C157.041 23.902 156.351 23.158 155.847 22.21C155.355 21.25 155.109 20.164 155.109 18.952C155.109 17.716 155.361 16.618 155.865 15.658C156.369 14.686 157.059 13.918 157.935 13.354C158.823 12.79 159.831 12.496 160.959 12.472C162.087 12.472 163.089 12.748 163.965 13.3C164.841 13.84 165.531 14.59 166.035 15.55C166.539 16.498 166.791 17.578 166.791 18.79C166.791 20.026 166.533 21.13 166.017 22.102C165.513 23.062 164.817 23.824 163.929 24.388C163.053 24.94 162.045 25.228 160.905 25.252ZM160.887 23.776C161.679 23.776 162.381 23.566 162.993 23.146C163.605 22.714 164.085 22.126 164.433 21.382C164.781 20.626 164.955 19.768 164.955 18.808C164.955 17.872 164.781 17.038 164.433 16.306C164.097 15.574 163.629 15.004 163.029 14.596C162.441 14.176 161.763 13.966 160.995 13.966C160.203 13.966 159.501 14.182 158.889 14.614C158.277 15.034 157.791 15.616 157.431 16.36C157.083 17.104 156.909 17.956 156.909 18.916C156.909 19.852 157.077 20.686 157.413 21.418C157.761 22.15 158.235 22.726 158.835 23.146C159.435 23.566 160.119 23.776 160.887 23.776ZM172.614 14.218C173.19 14.218 173.688 14.29 174.108 14.434C174.54 14.566 174.87 14.794 175.098 15.118C175.338 15.442 175.458 15.892 175.458 16.468C175.458 17.02 175.32 17.458 175.044 17.782C174.78 18.106 174.426 18.34 173.982 18.484C173.55 18.628 173.064 18.7 172.524 18.7H170.85V14.218H172.614ZM169.122 12.76V25H170.85V20.104H172.452C172.62 20.104 172.824 20.098 173.064 20.086C173.316 20.074 173.49 20.062 173.586 20.05L176.322 25H178.194L175.116 19.6C175.74 19.336 176.25 18.94 176.646 18.412C177.042 17.872 177.246 17.2 177.258 16.396C177.258 15.532 177.054 14.836 176.646 14.308C176.238 13.768 175.68 13.378 174.972 13.138C174.276 12.886 173.496 12.76 172.632 12.76H169.122ZM187.761 25L187.527 23.65H181.713V19.438H186.105L185.871 18.106H181.713V14.092H187.113L186.879 12.76H179.985V25H187.761ZM194.079 25C195.279 25 196.287 24.736 197.103 24.208C197.919 23.668 198.537 22.93 198.957 21.994C199.389 21.058 199.605 19.996 199.605 18.808C199.605 17.656 199.413 16.624 199.029 15.712C198.645 14.8 198.051 14.08 197.247 13.552C196.455 13.024 195.423 12.76 194.151 12.76H189.741V25H194.079ZM194.223 14.236C195.063 14.236 195.747 14.434 196.275 14.83C196.815 15.214 197.211 15.748 197.463 16.432C197.727 17.116 197.859 17.914 197.859 18.826C197.859 19.858 197.697 20.728 197.373 21.436C197.061 22.132 196.623 22.66 196.059 23.02C195.495 23.38 194.835 23.56 194.079 23.56H191.469V14.236H194.223Z" fill="black"/>
<path d="M0 0V-2H-2V0H0ZM215 0H217V-2H215V0ZM215 40V42H217V40H215ZM0 40H-2V42H0V40ZM0 2H215V-2H0V2ZM213 0V40H217V0H213ZM215 38H0V42H215V38ZM2 40V0H-2V40H2Z" fill="black"/>
</g>
<defs>
<filter id="filter0_b_179:6642" x="-30" y="-30" width="275" height="100" filterUnits="userSpaceOnUse" color-interpolation-filters="sRGB">
<feFlood flood-opacity="0" result="BackgroundImageFix"/>
<feGaussianBlur in="BackgroundImage" stdDeviation="15"/>
<feComposite in2="SourceAlpha" operator="in" result="effect1_backgroundBlur_179:6642"/>
<feBlend mode="normal" in="SourceGraphic" in2="effect1_backgroundBlur_179:6642" result="shape"/>
</filter>
<clipPath id="clip0_179:6642">
<rect width="29.75" height="31.4082" fill="white" transform="translate(19.125 5.15308)"/>
</clipPath>
</defs>
</svg>
