<svg width="196" height="196" viewBox="0 0 196 196" fill="none" xmlns="http://www.w3.org/2000/svg">
<circle cx="98" cy="98" r="98" fill="#F4F4F4"/>
<path d="M101 65C91.6462 65 84 72.6462 84 82C84 91.3538 91.6462 99 101 99C110.354 99 118 91.3538 118 82C118 72.6462 110.354 65 101 65Z" fill="#797979" fill-opacity="0.5"/>
<path d="M129.874 112.335C129.429 111.223 128.835 110.184 128.168 109.22C124.756 104.176 119.49 100.838 113.556 100.022C112.814 99.9482 111.998 100.096 111.405 100.542C108.29 102.841 104.581 104.028 100.724 104.028C96.8667 104.028 93.1581 102.841 90.0428 100.542C89.4494 100.096 88.6335 99.874 87.8918 100.022C81.9579 100.838 76.6175 104.176 73.2797 109.22C72.6122 110.184 72.0187 111.297 71.5738 112.335C71.3513 112.78 71.4254 113.299 71.6479 113.745C72.2414 114.783 72.983 115.821 73.6506 116.711C74.689 118.121 75.8016 119.382 77.0626 120.568C78.101 121.607 79.2877 122.571 80.4746 123.535C86.3342 127.912 93.3807 130.211 100.65 130.211C107.919 130.211 114.965 127.912 120.825 123.535C122.012 122.645 123.198 121.607 124.237 120.568C125.424 119.382 126.61 118.121 127.649 116.711C128.391 115.747 129.058 114.783 129.652 113.745C130.022 113.299 130.096 112.78 129.874 112.335Z" fill="#797979" fill-opacity="0.5"/>
</svg>
