<svg width="231" height="280" viewBox="0 0 231 280" fill="none" xmlns="http://www.w3.org/2000/svg">
<rect width="231" height="280" rx="20" fill="#C4C4C4"/>
<path d="M72.3776 168.451H159.645C162.658 168.468 165.114 166.041 165.131 163.028C165.14 161.563 164.558 160.156 163.518 159.124L141.701 137.307C139.574 135.192 136.138 135.192 134.011 137.307L126.92 144.398L108.976 126.453C106.848 124.338 103.413 124.338 101.285 126.453L68.5597 159.179C66.4509 161.33 66.4847 164.783 68.6357 166.892C69.6365 167.873 70.9762 168.431 72.3776 168.451Z" fill="#797979"/>
<path d="M143.283 124.817C149.308 124.817 154.192 119.933 154.192 113.908C154.192 107.884 149.308 103 143.283 103C137.259 103 132.375 107.884 132.375 113.908C132.375 119.933 137.259 124.817 143.283 124.817Z" fill="#797979"/>
</svg>
