<svg width="138" height="125" viewBox="0 0 138 125" fill="none" xmlns="http://www.w3.org/2000/svg">
<line x1="6" y1="1" x2="14" y2="1" stroke="#797979" stroke-width="2"/>
<line x1="6" y1="124" x2="14" y2="124" stroke="#797979" stroke-width="2"/>
<line x1="1" y1="125" x2="1" y2="117" stroke="#797979" stroke-width="2"/>
<line x1="137" y1="125" x2="137" y2="117" stroke="#797979" stroke-width="2"/>
<line x1="19" y1="1" x2="27" y2="1" stroke="#797979" stroke-width="2"/>
<line x1="19" y1="124" x2="27" y2="124" stroke="#797979" stroke-width="2"/>
<line x1="1" y1="112" x2="1" y2="104" stroke="#797979" stroke-width="2"/>
<line x1="137" y1="112" x2="137" y2="104" stroke="#797979" stroke-width="2"/>
<line x1="32" y1="1" x2="40" y2="1" stroke="#797979" stroke-width="2"/>
<line x1="32" y1="124" x2="40" y2="124" stroke="#797979" stroke-width="2"/>
<line x1="1" y1="99" x2="1" y2="91" stroke="#797979" stroke-width="2"/>
<line x1="137" y1="99" x2="137" y2="91" stroke="#797979" stroke-width="2"/>
<line x1="45" y1="1" x2="53" y2="1" stroke="#797979" stroke-width="2"/>
<line x1="45" y1="124" x2="53" y2="124" stroke="#797979" stroke-width="2"/>
<line x1="1" y1="86" x2="1" y2="78" stroke="#797979" stroke-width="2"/>
<line x1="137" y1="86" x2="137" y2="78" stroke="#797979" stroke-width="2"/>
<line x1="58" y1="1" x2="66" y2="1" stroke="#797979" stroke-width="2"/>
<line x1="58" y1="124" x2="66" y2="124" stroke="#797979" stroke-width="2"/>
<line x1="1" y1="73" x2="1" y2="65" stroke="#797979" stroke-width="2"/>
<line x1="137" y1="73" x2="137" y2="65" stroke="#797979" stroke-width="2"/>
<line x1="71" y1="1" x2="79" y2="1" stroke="#797979" stroke-width="2"/>
<line x1="71" y1="124" x2="79" y2="124" stroke="#797979" stroke-width="2"/>
<line x1="1" y1="60" x2="1" y2="52" stroke="#797979" stroke-width="2"/>
<line x1="137" y1="60" x2="137" y2="52" stroke="#797979" stroke-width="2"/>
<line x1="84" y1="1" x2="92" y2="1" stroke="#797979" stroke-width="2"/>
<line x1="84" y1="124" x2="92" y2="124" stroke="#797979" stroke-width="2"/>
<line x1="1" y1="47" x2="1" y2="39" stroke="#797979" stroke-width="2"/>
<line x1="137" y1="47" x2="137" y2="39" stroke="#797979" stroke-width="2"/>
<line x1="97" y1="1" x2="105" y2="1" stroke="#797979" stroke-width="2"/>
<line x1="97" y1="124" x2="105" y2="124" stroke="#797979" stroke-width="2"/>
<line x1="1" y1="34" x2="1" y2="26" stroke="#797979" stroke-width="2"/>
<line x1="137" y1="34" x2="137" y2="26" stroke="#797979" stroke-width="2"/>
<line x1="110" y1="1" x2="118" y2="1" stroke="#797979" stroke-width="2"/>
<line x1="110" y1="124" x2="118" y2="124" stroke="#797979" stroke-width="2"/>
<line x1="1" y1="21" x2="1" y2="13" stroke="#797979" stroke-width="2"/>
<line x1="137" y1="21" x2="137" y2="13" stroke="#797979" stroke-width="2"/>
<line x1="123" y1="1" x2="131" y2="1" stroke="#797979" stroke-width="2"/>
<line x1="123" y1="124" x2="131" y2="124" stroke="#797979" stroke-width="2"/>
<line x1="1" y1="8" x2="1" y2="4.37114e-08" stroke="#797979" stroke-width="2"/>
<line x1="137" y1="8" x2="137" y2="4.37114e-08" stroke="#797979" stroke-width="2"/>
<g clip-path="url(#clip0)">
<path d="M70.503 39C62.9315 39 56.7422 45.1893 56.7422 52.7608C56.7422 60.3323 62.9315 66.5216 70.503 66.5216C78.0744 66.5216 84.2638 60.3323 84.2638 52.7608C84.2638 45.1893 78.0744 39 70.503 39Z" fill="#797979"/>
<path d="M94.1193 77.5181C93.7587 76.6167 93.2781 75.7754 92.7373 74.9942C89.9731 70.908 85.7067 68.204 80.8995 67.5429C80.2986 67.4829 79.6376 67.603 79.1568 67.9636C76.633 69.8264 73.6285 70.7878 70.5037 70.7878C67.3789 70.7878 64.3745 69.8264 61.8506 67.9636C61.3699 67.603 60.7089 67.4228 60.108 67.5429C55.3007 68.204 50.9742 70.908 48.2702 74.9942C47.7294 75.7754 47.2486 76.6768 46.8881 77.5181C46.7079 77.8786 46.7679 78.2992 46.9482 78.6598C47.4289 79.5011 48.0298 80.3424 48.5706 81.0635C49.4118 82.2052 50.3132 83.2267 51.3348 84.1881C52.1761 85.0294 53.1375 85.8106 54.099 86.5918C58.8461 90.1372 64.5548 91.9999 70.4437 91.9999C76.3326 91.9999 82.0412 90.1371 86.7883 86.5918C87.7498 85.8707 88.7112 85.0294 89.5526 84.1881C90.514 83.2267 91.4754 82.2051 92.3168 81.0635C92.9176 80.2823 93.4585 79.5011 93.9392 78.6598C94.2395 78.2992 94.2996 77.8785 94.1193 77.5181Z" fill="#797979"/>
</g>
<path d="M63.3282 95.3282H67.5661V99.5399C67.5661 101.175 68.8914 102.5 70.5262 102.5C72.161 102.5 73.4862 101.175 73.4862 99.5399V95.3282H77.6718C79.2338 95.3282 80.5 94.062 80.5 92.5C80.5 90.938 79.2338 89.6718 77.6718 89.6718H73.4862V85.4601C73.4862 83.8253 72.161 82.5 70.5262 82.5C68.8914 82.5 67.5661 83.8253 67.5661 85.4601V89.6718H63.3282C61.7662 89.6718 60.5 90.938 60.5 92.5C60.5 94.062 61.7662 95.3282 63.3282 95.3282Z" fill="#D565C3" stroke="#F8F8F8"/>
<defs>
<clipPath id="clip0">
<rect width="53" height="53" fill="white" transform="translate(44 39)"/>
</clipPath>
</defs>
</svg>
