<?xml version="1.0" standalone="no"?>
<!DOCTYPE svg PUBLIC "-//W3C//DTD SVG 20010904//EN"
 "http://www.w3.org/TR/2001/REC-SVG-20010904/DTD/svg10.dtd">
<svg version="1.0" xmlns="http://www.w3.org/2000/svg"
 width="80.000000pt" height="80.000000pt" viewBox="0 0 80.000000 80.000000"
 preserveAspectRatio="xMidYMid meet">

<g transform="translate(0.000000,80.000000) scale(0.100000,-0.100000)"
fill="#000000" stroke="none">
<path d="M147 497 l-77 -72 0 -55 c0 -40 8 -72 29 -115 l28 -60 18 40 c18 43
48 124 71 195 8 25 21 59 29 77 41 86 1 83 -98 -10z"/>
<path d="M322 478 c-16 -46 -38 -101 -47 -123 -15 -36 -5 -28 104 80 67 66
121 121 121 122 0 2 -33 3 -74 3 l-73 0 -31 -82z"/>
<path d="M535 480 l-80 -80 107 -107 107 -107 30 65 c27 55 31 75 31 146 0 45
-4 84 -9 87 -4 3 -11 19 -14 36 -5 23 -12 30 -29 30 -13 0 -32 3 -43 6 -15 4
-39 -15 -100 -76z"/>
<path d="M290 235 l-104 -104 68 -32 c58 -27 79 -32 146 -32 67 0 88 5 146 32
l68 32 -104 104 c-58 58 -107 105 -110 105 -3 0 -52 -47 -110 -105z"/>
</g>
</svg>
