<svg width="22" height="15" viewBox="0 0 22 15" fill="none" xmlns="http://www.w3.org/2000/svg">
<g clip-path="url(#clip0_365:4272)">
<path d="M-1.51123 -0.081543V15.0837H23.5115V-0.081543H-1.51123Z" fill="#012169"/>
<path d="M-1.51123 -0.081543L23.5115 15.0837L-1.51123 -0.081543ZM23.5115 -0.081543L-1.51123 15.0823L23.5115 -0.081543Z" fill="black"/>
<path d="M22.9524 16.4401L11.0002 9.19568L-0.951979 16.4401L-2.07031 13.7248L8.20209 7.49985L-2.07031 1.27485L-0.951979 -1.44043L11.0002 5.80401L22.9524 -1.44043L24.0707 1.27485L13.7983 7.49985L24.0707 13.7248L22.9524 16.4401Z" fill="white"/>
<path d="M-1.51123 -0.081543L23.5115 15.0837L-1.51123 -0.081543ZM23.5115 -0.081543L-1.51123 15.0823L23.5115 -0.081543Z" fill="black"/>
<path d="M23.1379 15.9872L11.0001 8.62887L-1.13768 15.9872L-1.88477 14.1775L9.13586 7.49971L-1.88477 0.821929L-1.13768 -0.987793L11.0001 6.37054L23.1379 -0.987793L23.885 0.821929L12.8644 7.49971L23.885 14.1775L23.1379 15.9872Z" fill="#C8102E"/>
<path d="M11.0001 -0.081543V15.0837V-0.081543ZM-1.51123 7.5004H23.5115H-1.51123Z" fill="black"/>
<path d="M13.0855 15.0823H8.91471V10.0282H-1.51123V4.97262H8.91471V-0.081543H13.0855V4.97262H23.5115V10.0282H13.0855V15.0823Z" fill="white"/>
<path d="M11.0001 -0.081543V15.0837V-0.081543ZM-1.51123 7.5004H23.5115H-1.51123Z" fill="black"/>
<path d="M12.2514 15.0823H9.74887V9.01707H-1.51123V5.98373H9.74887V-0.081543H12.2514V5.98373H23.5115V9.01707H12.2514V15.0823Z" fill="#C8102E"/>
</g>
<defs>
<clipPath id="clip0_365:4272">
<rect width="22" height="15" fill="white"/>
</clipPath>
</defs>
</svg>
