<svg id="Capa_1" enable-background="new 0 0 497 497" height="512" viewBox="0 0 497 497" width="512" xmlns="http://www.w3.org/2000/svg"><g><path d="m124.143 59.997h135.22v15h-135.22z" fill="#f6f6a8" transform="matrix(.768 -.64 .64 .768 1.213 138.346)"/><path d="m297.746-.113h15v135.22h-15z" fill="#f6f6a8" transform="matrix(.64 -.768 .768 .64 58.042 258.864)"/><circle cx="248.5" cy="30" fill="#b6b5d8" r="15"/><path d="m467 105h-30v377h30c16.569 0 30-13.431 30-30v-317c0-16.569-13.431-30-30-30z" fill="#807dbb"/><path d="m467 452-45-128.5 45-188.5c0-16.569-13.431-30-30-30h-407c-16.569 0-30 13.431-30 30v317c0 16.569 13.431 30 30 30h407c16.569 0 30-13.431 30-30z" fill="#9b99c9"/><path d="m436 135-59 158.5 59 158.5h31v-317z" fill="#ec9345"/><path d="m30 135h406v317h-406z" fill="#ecc04b"/><g fill="#2c2c2f"><path d="m211 421c-16.542 0-30-13.458-30-30v-60c0-16.542 13.458-30 30-30s30 13.458 30 30v60c0 16.542-13.458 30-30 30zm0-105c-8.271 0-15 6.729-15 15v60c0 8.271 6.729 15 15 15s15-6.729 15-15v-60c0-8.271-6.729-15-15-15z"/><path d="m383.497 421.001c-2.95 0-5.691-1.748-6.891-4.546l-30.606-71.415v68.46c0 4.142-3.357 7.5-7.5 7.5s-7.5-3.358-7.5-7.5v-105c0-3.561 2.504-6.631 5.992-7.347 3.489-.721 6.999 1.12 8.401 4.392l30.607 71.415v-68.46c0-4.142 3.357-7.5 7.5-7.5s7.5 3.358 7.5 7.5v105c0 3.561-2.504 6.631-5.992 7.347-.505.104-1.012.153-1.511.154z"/><path d="m286 421c-16.542 0-30-13.458-30-30v-60c0-16.542 13.458-30 30-30s30 13.458 30 30v60c0 16.542-13.458 30-30 30zm0-105c-8.271 0-15 6.729-15 15v60c0 8.271 6.729 15 15 15s15-6.729 15-15v-60c0-8.271-6.729-15-15-15z"/><path d="m136 421c-16.542 0-30-13.458-30-30 0-4.142 3.357-7.5 7.5-7.5s7.5 3.358 7.5 7.5c0 8.271 6.729 15 15 15s15-6.729 15-15c0-4.303-1.857-8.406-5.096-11.258l-29.727-26.231c-6.465-5.695-10.177-13.902-10.177-22.511 0-16.542 13.458-30 30-30s30 13.458 30 30c0 4.142-3.357 7.5-7.5 7.5s-7.5-3.358-7.5-7.5c0-8.271-6.729-15-15-15s-15 6.729-15 15c0 4.302 1.857 8.406 5.097 11.258l29.727 26.231c6.465 5.695 10.176 13.901 10.176 22.511 0 16.542-13.458 30-30 30z"/><path d="m158.5 286c-16.542 0-30-13.458-30-30v-60c0-16.542 13.458-30 30-30s30 13.458 30 30v60c0 16.542-13.458 30-30 30zm0-105c-8.271 0-15 6.729-15 15v60c0 8.271 6.729 15 15 15s15-6.729 15-15v-60c0-8.271-6.729-15-15-15z"/><path d="m413.5 286c-16.542 0-30-13.458-30-30v-60c0-16.542 13.458-30 30-30s30 13.458 30 30c0 4.142-3.357 7.5-7.5 7.5s-7.5-3.358-7.5-7.5c0-8.271-6.729-15-15-15s-15 6.729-15 15v60c0 8.271 6.729 15 15 15s15-6.729 15-15v-22.5h-7.5c-4.143 0-7.5-3.358-7.5-7.5s3.357-7.5 7.5-7.5h15c4.143 0 7.5 3.358 7.5 7.5v30c0 16.542-13.458 30-30 30z"/><path d="m256 286c-4.143 0-7.5-3.358-7.5-7.5v-68.46l-8.106 18.915c-1.182 2.757-3.894 4.545-6.894 4.545s-5.712-1.788-6.894-4.545l-8.106-18.915v68.46c0 4.142-3.357 7.5-7.5 7.5s-7.5-3.358-7.5-7.5v-105c0-3.561 2.504-6.631 5.992-7.347 3.49-.72 6.999 1.12 8.401 4.392l15.607 36.415 15.606-36.415c1.402-3.272 4.918-5.109 8.401-4.392 3.488.716 5.992 3.786 5.992 7.347v105c.001 4.142-3.356 7.5-7.499 7.5z"/><path d="m286 286c-4.143 0-7.5-3.358-7.5-7.5v-105c0-4.142 3.357-7.5 7.5-7.5s7.5 3.358 7.5 7.5v105c0 4.142-3.357 7.5-7.5 7.5z"/><path d="m83.5 286c-16.542 0-30-13.458-30-30v-60c0-16.542 13.458-30 30-30s30 13.458 30 30c0 4.142-3.357 7.5-7.5 7.5s-7.5-3.358-7.5-7.5c0-8.271-6.729-15-15-15s-15 6.729-15 15v60c0 8.271 6.729 15 15 15s15-6.729 15-15c0-4.142 3.357-7.5 7.5-7.5s7.5 3.358 7.5 7.5c0 16.542-13.458 30-30 30z"/><path d="m360.997 286.001c-2.95 0-5.691-1.748-6.891-4.546l-30.606-71.415v68.46c0 4.142-3.357 7.5-7.5 7.5s-7.5-3.358-7.5-7.5v-105c0-3.561 2.504-6.631 5.992-7.347 3.488-.72 6.999 1.12 8.401 4.392l30.607 71.415v-68.46c0-4.142 3.357-7.5 7.5-7.5s7.5 3.358 7.5 7.5v105c0 3.561-2.504 6.631-5.992 7.347-.505.104-1.012.153-1.511.154z"/></g></g></svg>