<svg width="27" height="27" viewBox="0 0 27 27" fill="none" xmlns="http://www.w3.org/2000/svg">
<g clip-path="url(#clip0)">
<path d="M13.5 8C10.4655 8 8 10.4655 8 13.5C8 16.5345 10.4655 19 13.5 19C16.5345 19 19 16.5345 19 13.5C19 10.4655 16.5345 8 13.5 8ZM13.0828 11.869C12.4 11.869 11.831 12.4379 11.831 13.1207H10.0103C10.0483 11.4138 11.4138 10.0483 13.0828 10.0483V11.869Z" fill="#2D2D2D"/>
<path d="M0.700615 12.9178L0.700644 12.9178L0.704461 12.9131C1.42541 12.0156 3.07337 10.1035 5.32972 8.41948C7.59096 6.73182 10.4157 5.30859 13.5 5.30859C16.5843 5.30859 19.409 6.73182 21.6703 8.41948C23.9238 10.1014 25.5705 12.0108 26.2929 12.9097C26.5739 13.2736 26.562 13.7612 26.2994 14.0801L26.2994 14.0801L26.2955 14.0848C25.5746 14.9823 23.9266 16.8944 21.6703 18.5784C19.409 20.2661 16.5843 21.6893 13.5 21.6893C10.4157 21.6893 7.59096 20.2661 5.32972 18.5784C3.07617 16.8965 1.4295 14.9871 0.707149 14.0882C0.426109 13.7242 0.43798 13.2367 0.700615 12.9178Z" stroke="#2D2D2D"/>
</g>
<defs>
<clipPath id="clip0">
<rect width="27" height="27" fill="white"/>
</clipPath>
</defs>
</svg>
