<svg width="18" height="18" viewBox="0 0 18 18" fill="none" xmlns="http://www.w3.org/2000/svg">
<path d="M16.0993 0.666748H6.88653C6.22993 0.666748 5.6958 1.20091 5.6958 1.85747V4.65218H6.78276V1.85747C6.78276 1.80026 6.82932 1.7537 6.88653 1.7537H16.0993C16.1565 1.7537 16.203 1.80026 16.203 1.85747V11.0702C16.203 11.1275 16.1565 11.174 16.0993 11.174H13.3917V12.261H16.0993C16.7558 12.261 17.29 11.7268 17.29 11.0702V1.85747C17.29 1.20091 16.7558 0.666748 16.0993 0.666748Z" fill="#797979"/>
<path d="M11.1142 5.73901H1.90145C1.24486 5.73901 0.710693 6.27318 0.710693 6.92977V16.1425C0.71073 16.7991 1.24486 17.3333 1.90145 17.3333H11.1142C11.7708 17.3333 12.305 16.7991 12.305 16.1426V6.92977C12.305 6.27318 11.7708 5.73901 11.1142 5.73901ZM11.1142 16.2463H1.90145C1.84421 16.2463 1.79765 16.1998 1.79765 16.1426V6.92977C1.79765 6.87253 1.84421 6.82597 1.90145 6.82597H11.1142C11.1715 6.82597 11.218 6.87253 11.218 6.92977V16.1426H11.218C11.218 16.1998 11.1715 16.2463 11.1142 16.2463Z" fill="#797979"/>
</svg>
