<svg width="25" height="24" viewBox="0 0 25 24" fill="none" xmlns="http://www.w3.org/2000/svg">
<g clip-path="url(#clip0_184:3040)">
<path d="M18.0085 7.67848C17.5084 7.13243 16.7308 6.39541 16.4 8.05957C16.2875 8.6254 16.0247 9.06157 15.7994 9.41276C15.5567 8.18407 14.8263 6.9123 14.1381 6.05482C13.8805 5.73401 12.9667 4.45868 12.7912 2.32512C12.765 2.00669 12.3868 1.85716 12.1502 2.07194C9.88931 4.12432 8.64834 6.94704 8.60226 10.1248C8.60226 10.1248 7.66083 9.33129 7.14937 7.85501C7.01165 7.45746 6.47868 7.38162 6.24745 7.73313C6.20306 7.80063 6.1619 7.86823 6.12478 7.93385C4.38042 11.0182 3.54131 14.7638 4.31704 18.2485C5.61408 24.0843 14.1938 25.7158 18.7359 22.0479C23.1799 18.4593 21.7673 11.7801 18.0085 7.67848Z" fill="#ED694A"/>
<path d="M5.52089 18.6157C4.75416 15.0937 5.56575 11.3117 7.26914 8.17906C7.22606 8.07513 7.18463 7.96765 7.14591 7.8559C7.00819 7.45835 6.47522 7.38251 6.24399 7.73402C6.1996 7.80152 6.15849 7.86912 6.12136 7.93474C4.377 11.0191 3.53789 14.7647 4.31363 18.2494C4.90524 20.9112 7.01217 22.6978 9.55988 23.5063C7.57238 22.5436 6.01594 20.8932 5.52089 18.6157Z" fill="#D8553A"/>
<path d="M9.81043 10.0671C9.9046 7.18299 10.9478 4.59689 12.8148 2.61024C12.8019 2.50083 12.7924 2.403 12.7863 2.32875C12.7595 2.00761 12.3951 1.84655 12.1596 2.05946C9.9759 4.03374 8.64493 6.82791 8.59717 10.1255L9.00587 10.4429C9.20715 10.5992 9.47987 10.5924 9.6721 10.4492C9.78681 10.352 9.80326 10.2053 9.81043 10.0671Z" fill="#D8553A"/>
<path d="M16.6356 11.9451C16.2663 11.5418 15.6919 10.9974 15.4476 12.2266C15.3645 12.6445 15.1703 12.9667 15.0041 13.2261C14.8248 12.3186 14.2852 11.3792 13.7769 10.7459C13.5867 10.5089 12.9118 9.56697 12.7821 7.99098C12.7627 7.75576 12.4834 7.64537 12.3087 7.804C10.6387 9.31989 9.72209 11.4049 9.68811 13.752C9.68811 13.752 8.99272 13.1659 8.615 12.0755C8.51328 11.7819 8.11958 11.7258 7.94881 11.9855C7.91605 12.0353 7.88562 12.0853 7.8582 12.1337C6.56975 14.4119 5.94997 17.1784 6.52292 19.7523C7.48095 24.0628 13.8181 25.2679 17.173 22.5587C20.4554 19.9081 19.412 14.9747 16.6356 11.9451Z" fill="#F4A32C"/>
<path d="M7.7183 20.0902C7.21102 17.5741 7.73644 14.8743 8.85043 12.6262C8.76553 12.46 8.6851 12.2762 8.61544 12.0752C8.51372 11.7816 8.12002 11.7255 7.94925 11.9852C7.91649 12.035 7.88607 12.085 7.85864 12.1335C6.57024 14.4117 5.9505 17.1782 6.52336 19.752C6.96896 21.7568 8.57822 23.0894 10.5097 23.6692C9.13739 22.9811 8.05693 21.772 7.7183 20.0902Z" fill="#E89528"/>
<path d="M15.3859 15.8386C15.1358 15.5656 14.747 15.197 14.5816 16.0291C14.5254 16.312 14.3939 16.5301 14.2813 16.7057C14.1599 16.0913 13.7947 15.4555 13.4506 15.0267C13.3219 14.8663 12.865 14.2287 12.7771 13.1619C12.764 13.0026 12.575 12.9279 12.4566 13.0353C11.3262 14.0615 10.7057 15.4729 10.6827 17.0617C10.6827 17.0617 10.2119 16.6649 9.95629 15.9268C9.88743 15.7281 9.62094 15.6902 9.50535 15.8659C9.48313 15.8996 9.4626 15.9334 9.44399 15.9662C8.57183 17.5084 8.15225 19.3812 8.5401 21.1236C9.18861 24.0415 13.4785 24.8573 15.7495 23.0233C16.5272 22.3953 17.0094 21.5103 17.1072 20.5314C17.2548 19.0488 16.6842 17.2554 15.3859 15.8386Z" fill="#F4D44E"/>
<path d="M14.2224 19.453C14.0831 19.3009 13.8664 19.0956 13.7743 19.5591C13.743 19.7167 13.6698 19.8382 13.607 19.9361C13.5393 19.5938 13.3359 19.2395 13.1442 19.0007C13.0725 18.9113 12.8179 18.556 12.769 17.9617C12.7616 17.873 12.6563 17.8314 12.5904 17.8911C11.9606 18.4629 11.6149 19.2492 11.6021 20.1344C11.6021 20.1344 11.3398 19.9133 11.1974 19.5021C11.159 19.3913 11.0105 19.3702 10.9462 19.4682C10.9338 19.487 10.9224 19.5058 10.912 19.5241C10.4261 20.3833 10.1924 21.4266 10.4085 22.3974C10.9006 24.6113 14.9341 24.5442 15.1815 22.0674C15.2636 21.2414 14.9457 20.2423 14.2224 19.453Z" fill="#EAE9E8"/>
<path d="M11.346 22.8369C11.1299 21.9685 11.3636 21.0352 11.8495 20.2667C11.8599 20.2503 11.8713 20.2335 11.8837 20.2166C11.9481 20.129 12.0965 20.1479 12.1349 20.247C12.2773 20.6148 12.5396 20.8126 12.5396 20.8126C12.5501 20.162 12.7858 19.5714 13.2187 19.0976C13.1219 18.9636 12.8258 18.6403 12.7699 17.9619C12.7626 17.8732 12.6572 17.8316 12.5914 17.8914C11.9616 18.4631 11.6159 19.2494 11.6031 20.1346C11.6031 20.1346 11.3408 19.9135 11.1984 19.5024C11.16 19.3916 11.0115 19.3704 10.9471 19.4684C10.9348 19.4872 10.9233 19.5061 10.913 19.5243C10.4271 20.3835 10.1934 21.4269 10.4094 22.3976C10.6094 23.2974 11.4309 23.8382 12.3392 23.9687C11.8493 23.728 11.4727 23.347 11.346 22.8369Z" fill="#F7E7A1"/>
<path d="M9.15298 3.18961C10.1667 2.36512 10.1644 0.822609 9.15298 0C8.13931 0.824437 8.14151 2.367 9.15298 3.18961Z" fill="#D8553A"/>
<path d="M21.3005 9.8068C22.3141 8.98231 22.3119 7.4398 21.3005 6.61719C20.8372 6.99397 20.289 8.98419 21.3005 9.8068Z" fill="#D8553A"/>
<path d="M3.34803 10.4351C4.07858 9.84091 4.07698 8.72927 3.34803 8.13635C3.01414 8.4079 2.61908 9.84227 3.34803 10.4351Z" fill="#D8553A"/>
<path d="M15.9999 5.48854C16.7305 4.89431 16.7289 3.78266 15.9999 3.18974C15.2694 3.78393 15.271 4.89567 15.9999 5.48854Z" fill="#D8553A"/>
<path d="M10.6196 13.3739C10.7874 11.3934 11.5437 9.63232 12.8136 8.28977C12.8008 8.19246 12.79 8.09257 12.7815 7.98987C12.7622 7.75465 12.4828 7.64426 12.3081 7.80288C10.9848 9.0041 10.1355 10.563 9.82269 12.3262L9.82222 12.326C9.79902 12.4568 9.77023 12.6473 9.75205 12.797C9.75209 12.7971 9.75214 12.7972 9.75223 12.7974C9.71422 13.1097 9.69219 13.4277 9.6875 13.7509C9.72284 13.7578 10.5229 14.1691 10.6196 13.3739Z" fill="#E89528"/>
<path d="M9.70911 21.5368C9.36435 19.9091 9.65797 18.1733 10.3401 16.6693C10.208 16.484 10.0633 16.2351 9.95633 15.9261C9.88742 15.7273 9.62099 15.6894 9.50535 15.8651C9.48317 15.8989 9.46255 15.9327 9.44399 15.9655C8.57183 17.5077 8.15225 19.3804 8.5401 21.1228C8.84385 22.4893 9.94621 23.3948 11.2658 23.783C10.4977 23.273 9.91667 22.5183 9.70911 21.5368Z" fill="#E8C842"/>
<path d="M11.928 16.3504C12.0423 15.5336 12.3763 14.6337 12.9022 13.8813C12.845 13.6689 12.7999 13.4288 12.7779 13.1619C12.7648 13.0026 12.5757 12.9279 12.4574 13.0353C11.7531 13.6747 11.2475 14.464 10.9603 15.3522L10.9596 15.352C10.9144 15.4916 10.8505 15.7228 10.8118 15.9053C10.8121 15.9052 10.8125 15.9052 10.8128 15.905C10.7335 16.2774 10.6894 16.6638 10.6836 17.0617C11.316 17.1406 11.8392 16.984 11.928 16.3504Z" fill="#E8C842"/>
</g>
<defs>
<clipPath id="clip0_184:3040">
<rect width="24" height="24" fill="white" transform="translate(0.5)"/>
</clipPath>
</defs>
</svg>
