<svg width="42" height="42" viewBox="0 0 42 42" fill="none" xmlns="http://www.w3.org/2000/svg">
<path d="M21 42C32.598 42 42 32.598 42 21C42 9.40202 32.598 0 21 0C9.40202 0 0 9.40202 0 21C0 32.598 9.40202 42 21 42Z" fill="#039BE5"/>
<path d="M9.60928 20.545L29.8568 12.7382C30.7965 12.3987 31.6173 12.9675 31.3128 14.3885L31.3145 14.3867L27.867 30.6285C27.6115 31.78 26.9273 32.06 25.97 31.5175L20.72 27.6482L18.1878 30.0877C17.9078 30.3677 17.6715 30.604 17.129 30.604L17.5018 25.2612L27.2318 16.471C27.6553 16.0982 27.1373 15.8882 26.579 16.2592L14.5548 23.8297L9.37128 22.2127C8.24603 21.8557 8.22153 21.0875 9.60928 20.545Z" fill="white"/>
</svg>
