<svg width="38" height="38" viewBox="0 0 38 38" fill="none" xmlns="http://www.w3.org/2000/svg">
<rect width="38" height="38" rx="19" fill="#E0D780"/>
<g clip-path="url(#clip0_1087_1037)">
<path d="M14.0977 17.3765L8.85645 27.2511L13.6159 26.8114L15.9195 30.9998L21.1607 21.1252L14.0977 17.3765Z" fill="#E95454"/>
<path d="M14.6981 28.1248C14.8452 27.8089 14.6913 27.4315 14.3837 27.2679L14.0821 27.1074C13.7804 26.9355 13.6656 26.5536 13.8299 26.2445C13.9965 25.9301 14.3882 25.81 14.7026 25.9766L15.555 26.429C15.8184 26.5686 16.1485 26.4673 16.2843 26.2024L16.3053 26.1619C16.4614 25.9121 16.3691 25.5819 16.1095 25.4446L13.5598 24.0917C13.2492 23.9266 13.0968 23.5507 13.2417 23.2341C13.4015 22.8971 13.8052 22.7643 14.1301 22.9369L16.4952 24.1923C16.7586 24.3318 17.0887 24.2305 17.2283 23.9671L17.2418 23.9326L17.2455 23.9251C17.3964 23.649 17.2906 23.3023 17.0122 23.1545L15.6856 22.4507C15.3749 22.2856 15.2226 21.9097 15.3697 21.5893C15.528 21.2561 15.9332 21.1196 16.2581 21.2921L17.7235 22.0703C17.9974 22.2158 18.3245 22.0943 18.4664 21.8181C18.4686 21.8144 18.4686 21.8144 18.4701 21.8106C18.4724 21.8069 18.4724 21.8069 18.4739 21.8031C18.6232 21.5308 18.5406 21.1916 18.266 21.0468L16.685 20.2079C16.3781 20.0451 16.2258 19.6691 16.3706 19.3525C16.5305 19.0156 16.9341 18.8828 17.259 19.0553L21.1594 21.1256L15.9182 31.0002L14.4737 28.3747C14.5668 28.3117 14.6478 28.2336 14.6981 28.1248Z" fill="#ED6362"/>
<path d="M23.9029 17.3765L29.1441 27.2511L24.3846 26.8114L22.0811 30.9998L16.8398 21.1252L23.9029 17.3765Z" fill="#ED6362"/>
<path d="M23.3019 28.1239C23.1548 27.808 23.3086 27.4305 23.6163 27.267L23.9179 27.1064C24.2196 26.9345 24.3344 26.5526 24.17 26.2435C24.0035 25.9291 23.6118 25.809 23.2974 25.9756L22.445 26.4281C22.1816 26.5676 21.8514 26.4663 21.7156 26.2015L21.6946 26.1609C21.5385 25.9111 21.6308 25.5809 21.8905 25.4436L24.4409 24.09C24.7516 23.9249 24.9039 23.549 24.7591 23.2323C24.5992 22.8954 24.1955 22.7626 23.8706 22.9352L21.5055 24.1905C21.2422 24.3301 20.912 24.2288 20.7724 23.9654L20.7589 23.9309L20.7552 23.9234C20.6044 23.6473 20.7102 23.3006 20.9885 23.1528L22.3152 22.4489C22.6258 22.2839 22.7781 21.9079 22.6311 21.5875C22.4727 21.2544 22.0675 21.1178 21.7426 21.2904L20.2757 22.07C20.0018 22.2156 19.6747 22.094 19.5329 21.8179C19.5306 21.8141 19.5306 21.8141 19.5291 21.8104C19.5269 21.8066 19.5269 21.8066 19.5254 21.8029C19.376 21.5305 19.4586 21.1914 19.7332 21.0465L21.3142 20.2076C21.6211 20.0448 21.7734 19.6689 21.6286 19.3522C21.4688 19.0153 21.0651 18.8825 20.7402 19.0551L16.8398 21.1253L22.0811 31L23.5255 28.3745C23.4332 28.3107 23.3521 28.2327 23.3019 28.1239Z" fill="#E95454"/>
<path d="M18.9986 24.5147C23.8351 24.5147 27.7559 20.5939 27.7559 15.7574C27.7559 10.9208 23.8351 7 18.9986 7C14.162 7 10.2412 10.9208 10.2412 15.7574C10.2412 20.5939 14.162 24.5147 18.9986 24.5147Z" fill="#FFCC5B"/>
<path d="M20.1882 14.7521H14.6386C14.2072 14.7521 13.853 14.3979 13.853 13.9664L13.859 13.9124V13.9004C13.853 13.445 14.2244 13.0728 14.6806 13.0728H18.5269C19.0364 13.0728 19.4866 12.6954 19.5166 12.1851C19.5407 11.6516 19.1152 11.2014 18.581 11.2014H14.5065C14.0571 11.2014 13.7209 10.824 13.7269 10.3738C13.7269 10.3678 13.7269 10.3678 13.7269 10.3618C13.7269 10.3558 13.7269 10.3558 13.7269 10.3498C13.7209 9.90029 14.0563 9.52211 14.5065 9.52211H18.77C19.2735 9.52211 19.7237 9.14469 19.7538 8.64045C19.7778 8.10095 19.3523 7.65674 18.8181 7.65674H15.6958C12.5121 8.9691 10.2686 12.0996 10.2686 15.7568C10.2686 19.414 12.5121 22.5437 15.6966 23.8546H19.6607C20.1642 23.8546 20.6144 23.4772 20.6444 22.9729C20.6684 22.4334 20.243 21.99 19.7087 21.99L15.1991 21.9892C14.6671 21.9892 14.2387 21.5442 14.2672 21.0055C14.2934 20.5013 14.7467 20.1223 15.2516 20.1223H17C17.5027 20.1081 17.9086 19.6961 17.9086 19.1896C17.9086 18.6742 17.4892 18.254 16.9729 18.254H14.3227C13.8913 18.254 13.5371 17.9005 13.5431 17.4683V17.4023C13.5131 16.9769 13.8552 16.6167 14.2807 16.6167H20.1342C20.6437 16.6167 21.0939 16.2393 21.1239 15.735C21.1479 15.1963 20.7217 14.7521 20.1882 14.7521Z" fill="#FDBC4B"/>
<path d="M18.9992 22.0077C15.5521 22.0077 12.748 19.2029 12.748 15.7565C12.748 12.3102 15.5521 9.5061 18.9992 9.5061C22.4463 9.5061 25.2504 12.3109 25.2504 15.7573C25.2504 19.2036 22.4463 22.0077 18.9992 22.0077Z" fill="#FFDB70"/>
<path d="M15.9886 18.2305C15.8903 18.3198 15.8325 18.4263 15.7867 18.5389C15.7432 18.6522 15.7117 18.7715 15.7199 18.905C15.7289 19.0394 15.7837 19.1872 15.7912 19.32C15.7927 19.3373 15.7882 19.3538 15.789 19.3703C15.5368 19.0371 15.3215 18.6837 15.1437 18.316C15.1482 18.2417 15.1594 18.1712 15.1864 18.1089C15.2299 18.0009 15.3222 17.9198 15.3808 17.8215C15.4385 17.7232 15.4671 17.6107 15.4918 17.4959C15.5143 17.3796 15.5323 17.2618 15.5211 17.1237C15.5106 17.117 15.4993 17.1102 15.4888 17.1027C15.377 17.162 15.2997 17.2453 15.2322 17.3368C15.1677 17.4299 15.1121 17.5304 15.0911 17.6535C15.0716 17.7773 15.0911 17.9236 15.0694 18.0444C15.0656 18.0677 15.0551 18.0879 15.0491 18.1104C14.887 17.7428 14.761 17.3623 14.6717 16.9744C14.6919 16.8904 14.7197 16.8123 14.7655 16.7508C14.8285 16.663 14.9336 16.6112 15.0086 16.5362C15.0829 16.4597 15.1317 16.3636 15.1767 16.2631C15.2202 16.1603 15.2592 16.0552 15.2727 15.9232C15.2637 15.9141 15.2547 15.9051 15.2457 15.8961C15.1286 15.9239 15.0394 15.9832 14.9583 16.0515C14.8788 16.1212 14.8075 16.2023 14.7632 16.3096C14.7205 16.4184 14.7107 16.558 14.6657 16.663C14.6544 16.6915 14.6364 16.7133 14.6214 16.7388C14.5479 16.3546 14.5096 15.9644 14.5074 15.5735C14.5471 15.4812 14.5936 15.3972 14.6612 15.3416C14.7377 15.2756 14.8458 15.2546 14.9306 15.2028C15.0146 15.1503 15.0784 15.0708 15.1392 14.9875C15.1984 14.9012 15.254 14.8104 15.2907 14.6873C15.284 14.6761 15.2772 14.6656 15.2705 14.6543C15.1549 14.6513 15.0611 14.6866 14.9726 14.7308C14.8855 14.7781 14.803 14.8351 14.7422 14.9267C14.6814 15.019 14.6469 15.1473 14.5846 15.2343C14.5636 15.2651 14.5374 15.2876 14.5119 15.3116C14.5254 14.9297 14.5726 14.5485 14.6537 14.1718C14.6574 14.1658 14.6612 14.1606 14.6649 14.1546C14.7257 14.0623 14.7932 13.9805 14.878 13.9392C14.9613 13.8957 15.0649 13.904 15.1534 13.8754C15.2412 13.8462 15.3147 13.7862 15.3868 13.7194C15.4573 13.6503 15.5256 13.5761 15.5834 13.4643C15.5789 13.4522 15.5751 13.4395 15.5706 13.4267C15.4648 13.396 15.3718 13.4072 15.2817 13.4282C15.1924 13.4522 15.1054 13.4875 15.0319 13.5603C14.9583 13.6346 14.9013 13.7494 14.827 13.8154C14.7947 13.8462 14.7595 13.8664 14.7227 13.8859C14.8218 13.5123 14.9561 13.1446 15.1241 12.7882C15.1271 12.7927 15.1309 12.7964 15.1339 12.8009C15.1482 12.7859 15.1632 12.7717 15.1774 12.7567C15.2525 12.6824 15.3305 12.6201 15.4153 12.6013C15.5001 12.5796 15.5924 12.6134 15.6779 12.6066C15.7634 12.5991 15.843 12.5578 15.9225 12.5091C16.0013 12.4573 16.0793 12.3995 16.1559 12.302C16.1551 12.2884 16.1536 12.2749 16.1529 12.2622C16.0636 12.2074 15.9773 12.1962 15.8903 12.1962C15.804 12.1984 15.7177 12.2127 15.6351 12.2667C15.5526 12.3222 15.4761 12.4205 15.395 12.467C15.3553 12.4918 15.3132 12.5061 15.2712 12.5151C15.2727 12.5068 15.2727 12.4993 15.2742 12.491C15.5473 11.9838 15.8948 11.5043 16.3172 11.0676C15.9173 11.4541 15.5774 11.8803 15.2967 12.3342C15.2975 12.3207 15.3035 12.305 15.3035 12.2915C15.3102 12.1939 15.3147 12.0971 15.3057 12.0056C15.2765 11.8262 15.2277 11.6529 15.0949 11.5066C15.0806 11.5118 15.0664 11.5171 15.0521 11.5223C14.911 11.7707 14.8743 11.9876 14.8735 12.1857C14.8795 12.2824 14.9013 12.371 14.9306 12.4558C14.9546 12.5436 14.9981 12.6209 15.0521 12.6921C15.0596 12.7026 15.0671 12.7124 15.0754 12.7229C14.9148 13.0283 14.7797 13.3449 14.6709 13.6683C14.6702 13.6653 14.6709 13.6616 14.6702 13.6578C14.6484 13.558 14.6274 13.4567 14.5951 13.363C14.5201 13.1821 14.4286 13.0103 14.262 12.882C14.2492 12.8902 14.2372 12.8985 14.2245 12.9067C14.1487 13.1919 14.1667 13.4252 14.2177 13.6308C14.2477 13.7299 14.2935 13.8177 14.3445 13.9002C14.3911 13.9865 14.4548 14.0585 14.5269 14.1223C14.5291 14.1238 14.5314 14.1261 14.5329 14.1276C14.4503 14.4487 14.3918 14.7751 14.3588 15.1045C14.3145 15.0077 14.2695 14.9117 14.2155 14.8254C14.0939 14.6528 13.9596 14.4915 13.7615 14.3879C13.751 14.3984 13.7405 14.4089 13.73 14.4202C13.7255 14.7293 13.8028 14.9665 13.9063 15.169C13.9626 15.2658 14.0309 15.3476 14.1037 15.4227C14.1674 15.4962 14.2447 15.5517 14.3265 15.6013C14.3183 15.9262 14.3333 16.2526 14.373 16.5767C14.307 16.4927 14.2417 16.4079 14.1697 16.3351C14.0024 16.182 13.8253 16.041 13.6002 15.9682C13.5919 15.9809 13.5844 15.9937 13.5762 16.0064C13.6482 16.3238 13.7878 16.5527 13.9453 16.7395C14.0271 16.8281 14.1179 16.8986 14.2117 16.9609C14.2868 17.0172 14.3708 17.0532 14.4563 17.0854C14.5201 17.4021 14.6079 17.715 14.719 18.0226C14.6342 17.9551 14.5509 17.8861 14.4631 17.8283C14.2515 17.7045 14.0346 17.5934 13.7855 17.5604C13.7803 17.5747 13.7758 17.5889 13.7705 17.6032C13.9243 17.9131 14.1254 18.1194 14.3363 18.2785C14.4436 18.3528 14.5554 18.4061 14.6687 18.4511C14.7512 18.4886 14.8375 18.5051 14.9231 18.5209C15.0581 18.8165 15.2172 19.1046 15.3988 19.3823C15.2982 19.3343 15.1984 19.2832 15.0979 19.2457C14.8458 19.1632 14.5921 19.0919 14.3258 19.1031C14.3243 19.1189 14.3228 19.1339 14.3213 19.1497C14.5591 19.4348 14.8225 19.6036 15.0836 19.7222C15.2149 19.7755 15.3463 19.807 15.4768 19.8295C15.5624 19.8482 15.6464 19.8452 15.7312 19.846C15.8722 20.0261 16.0246 20.2002 16.1866 20.3682C16.2722 20.2827 16.3585 20.1964 16.444 20.1109C16.2572 19.9308 16.0838 19.7409 15.9233 19.5443C15.915 19.4798 15.912 19.4175 15.921 19.3583C15.9368 19.233 16.0081 19.1249 16.0426 19.0078C16.0756 18.89 16.0778 18.7655 16.0763 18.6394C16.0726 18.5126 16.0643 18.3858 16.0238 18.2455C16.0126 18.2395 16.0006 18.235 15.9886 18.2305Z" fill="#ED6362"/>
<path d="M22.0135 18.2307C22.1118 18.32 22.1696 18.4265 22.2154 18.5391C22.2589 18.6524 22.2904 18.7717 22.2822 18.9053C22.2732 19.0396 22.2184 19.1874 22.2109 19.3202C22.2094 19.3375 22.2139 19.354 22.2131 19.3705C22.4652 19.0373 22.6806 18.6839 22.8584 18.3162C22.8539 18.2419 22.8427 18.1714 22.8157 18.1091C22.7721 18.0011 22.6798 17.92 22.6213 17.8217C22.5635 17.7234 22.535 17.6109 22.5103 17.4961C22.4878 17.3798 22.4697 17.262 22.481 17.1239C22.4915 17.1172 22.5028 17.1104 22.5133 17.1029C22.6251 17.1622 22.7024 17.2455 22.7699 17.337C22.8344 17.4301 22.8899 17.5306 22.911 17.6537C22.9305 17.7775 22.911 17.9238 22.9327 18.0446C22.9365 18.0679 22.947 18.0881 22.953 18.1106C23.115 17.743 23.2411 17.3625 23.3304 16.9746C23.3101 16.8906 23.2824 16.8125 23.2366 16.751C23.1736 16.6632 23.0685 16.6114 22.9935 16.5364C22.9192 16.4599 22.8704 16.3638 22.8254 16.2633C22.7819 16.1605 22.7429 16.0554 22.7294 15.9234C22.7384 15.9144 22.7474 15.9053 22.7564 15.8963C22.8734 15.9241 22.9627 15.9834 23.0438 16.0517C23.1233 16.1214 23.1946 16.2025 23.2389 16.3098C23.2816 16.4186 23.2914 16.5582 23.3364 16.6632C23.3477 16.6917 23.3657 16.7135 23.3807 16.739C23.4542 16.3548 23.4925 15.9646 23.4947 15.5737C23.455 15.4814 23.4084 15.3974 23.3409 15.3418C23.2644 15.2758 23.1563 15.2548 23.0715 15.203C22.9875 15.1505 22.9237 15.071 22.8629 14.9877C22.8037 14.9014 22.7481 14.8106 22.7114 14.6875C22.7181 14.6763 22.7249 14.6658 22.7316 14.6545C22.8472 14.6515 22.941 14.6868 23.0295 14.731C23.1166 14.7783 23.1991 14.8353 23.2599 14.9269C23.3206 15.0192 23.3552 15.1475 23.4174 15.2345C23.4385 15.2653 23.4647 15.2878 23.4902 15.3118C23.4767 14.9299 23.4294 14.5487 23.3484 14.172C23.3447 14.166 23.3409 14.1608 23.3372 14.1548C23.2764 14.0625 23.2088 13.9807 23.1241 13.9394C23.0408 13.8959 22.9372 13.9042 22.8487 13.8756C22.7609 13.8464 22.6873 13.7864 22.6153 13.7196C22.5448 13.6505 22.4765 13.5763 22.4187 13.4645C22.4232 13.4525 22.427 13.4397 22.4315 13.4269C22.5373 13.3962 22.6303 13.4074 22.7204 13.4284C22.8097 13.4525 22.8967 13.4877 22.9702 13.5605C23.0438 13.6348 23.1008 13.7496 23.1751 13.8156C23.2073 13.8464 23.2426 13.8666 23.2794 13.8862C23.1818 13.5132 23.0483 13.1456 22.8794 12.7891C22.8764 12.7936 22.8727 12.7974 22.8697 12.8019C22.8554 12.7869 22.8404 12.7726 22.8262 12.7576C22.7511 12.6833 22.6731 12.6211 22.5883 12.6023C22.5035 12.5805 22.4112 12.6143 22.3257 12.6076C22.2401 12.6001 22.1606 12.5588 22.0811 12.51C22.0023 12.4582 21.9242 12.4005 21.8477 12.3029C21.8485 12.2894 21.85 12.2759 21.8507 12.2631C21.94 12.2084 22.0263 12.1971 22.1133 12.1971C22.1996 12.1994 22.2859 12.2136 22.3684 12.2676C22.451 12.3232 22.5275 12.4215 22.6086 12.468C22.6483 12.4928 22.6904 12.507 22.7324 12.516C22.7309 12.5085 22.7301 12.5003 22.7294 12.4928C22.4562 11.9855 22.1088 11.506 21.6864 11.0693C22.0863 11.4558 22.4262 11.882 22.7069 12.3359C22.7061 12.3224 22.7001 12.3067 22.7001 12.2932C22.6934 12.1956 22.6889 12.0988 22.6979 12.0073C22.7271 11.8279 22.7759 11.6546 22.9087 11.5083C22.923 11.5135 22.9372 11.5188 22.9515 11.524C23.0925 11.7724 23.1293 11.9893 23.1301 12.1874C23.1241 12.2842 23.1023 12.3727 23.073 12.4575C23.049 12.5453 23.0055 12.6226 22.9515 12.6938C22.944 12.7044 22.9365 12.7141 22.9282 12.7246C23.0888 13.03 23.2238 13.3467 23.3327 13.6701C23.3334 13.6671 23.3327 13.6633 23.3334 13.6595C23.3537 13.5583 23.3747 13.457 23.4069 13.3632C23.482 13.1823 23.5735 13.0105 23.7401 12.8822C23.7528 12.8904 23.7656 12.8979 23.7784 12.9062C23.8541 13.1913 23.8361 13.4247 23.7859 13.6303C23.7558 13.7293 23.7101 13.8171 23.6591 13.8997C23.6125 13.9859 23.5488 14.058 23.4767 14.1218C23.4745 14.1233 23.4722 14.1255 23.4707 14.127C23.5533 14.4482 23.6118 14.7746 23.6448 15.104C23.6891 15.0072 23.7341 14.9111 23.7881 14.8248C23.9097 14.6523 24.044 14.4909 24.2421 14.3874C24.2526 14.3979 24.2631 14.4084 24.2736 14.4189C24.2781 14.728 24.2008 14.9652 24.0973 15.1678C24.041 15.2645 23.9727 15.3463 23.8999 15.4214C23.8361 15.4949 23.7589 15.5504 23.6771 15.6C23.6853 15.9249 23.6703 16.2513 23.6305 16.5754C23.6966 16.4914 23.7619 16.4066 23.8339 16.3338C24.0012 16.1807 24.1783 16.0397 24.4034 15.9669C24.4117 15.9796 24.4192 15.9924 24.4274 16.0051C24.3554 16.3225 24.2158 16.5514 24.0582 16.7382C23.9765 16.8268 23.8857 16.8973 23.7919 16.9596C23.7168 17.0159 23.6328 17.0519 23.5473 17.0841C23.4835 17.4008 23.3957 17.7137 23.2846 18.0213C23.3694 17.9538 23.4527 17.8848 23.5405 17.827C23.7521 17.7032 23.9689 17.5921 24.2181 17.5591C24.2233 17.5734 24.2278 17.5876 24.2331 17.6019C24.0793 17.9118 23.8782 18.1181 23.6673 18.2772C23.56 18.3515 23.4482 18.4048 23.3349 18.4498C23.2524 18.4873 23.1661 18.5038 23.0805 18.5196C22.9455 18.8152 22.7864 19.1033 22.6048 19.381C22.7054 19.333 22.8052 19.2819 22.9057 19.2444C23.1578 19.1619 23.4114 19.0906 23.6778 19.1018C23.6793 19.1176 23.6808 19.1326 23.6823 19.1484C23.4445 19.4335 23.1811 19.6023 22.92 19.7209C22.7886 19.7742 22.6573 19.8057 22.5268 19.8282C22.4412 19.8469 22.3572 19.8439 22.2724 19.8447C22.1313 20.0248 21.979 20.1989 21.8169 20.3669C21.7314 20.2814 21.6451 20.1951 21.5596 20.1096C21.7464 19.9295 21.9197 19.7396 22.0803 19.5431C22.0886 19.4785 22.0916 19.4162 22.0826 19.357C22.0668 19.2317 21.9955 19.1236 21.961 19.0065C21.928 18.8887 21.9257 18.7642 21.9272 18.6381C21.931 18.5113 21.9392 18.3845 21.9798 18.2442C21.9895 18.2397 22.0015 18.2352 22.0135 18.2307Z" fill="#ED6362"/>
<path d="M18.8764 11.6165C18.6963 12.1192 18.3646 12.5581 17.8807 12.9356C17.6338 13.1284 17.4012 13.2702 17.1738 13.3955V14.84C17.6886 14.6029 18.1695 14.3207 18.5777 13.9388V19.8943H20.158V11.6165H18.8764Z" fill="#E95454"/>
</g>
<defs>
<clipPath id="clip0_1087_1037">
<rect width="24" height="24" fill="white" transform="translate(7 7)"/>
</clipPath>
</defs>
</svg>
