<svg width="15" height="15" viewBox="0 0 15 15" fill="none" xmlns="http://www.w3.org/2000/svg">
<circle cx="7.5" cy="7.5" r="7.5" fill="#C4C4C4"/>
<path d="M6.93039 9.05333C6.93735 8.63939 6.98431 8.31241 7.07127 8.07239C7.15823 7.83238 7.33563 7.56627 7.60348 7.27408L8.287 6.56968C8.5792 6.23922 8.72529 5.88442 8.72529 5.50526C8.72529 5.14002 8.62963 4.85478 8.43832 4.64955C8.247 4.44084 7.96872 4.33649 7.60348 4.33649C7.24867 4.33649 6.96343 4.43041 6.74777 4.61824C6.5321 4.80608 6.42427 5.05827 6.42427 5.37482H5.45898C5.46594 4.8113 5.66595 4.35736 6.05903 4.01299C6.45557 3.66514 6.97039 3.49121 7.60348 3.49121C8.26091 3.49121 8.77225 3.66861 9.1375 4.02342C9.50622 4.37475 9.69058 4.85826 9.69058 5.47395C9.69058 6.08269 9.40882 6.68273 8.8453 7.27408L8.27657 7.83759C8.02264 8.11935 7.89567 8.5246 7.89567 9.05333H6.93039ZM6.88865 10.7074C6.88865 10.5508 6.93561 10.4204 7.02953 10.316C7.12692 10.2082 7.26954 10.1543 7.45738 10.1543C7.64522 10.1543 7.78784 10.2082 7.88524 10.316C7.98263 10.4204 8.03133 10.5508 8.03133 10.7074C8.03133 10.8639 7.98263 10.9943 7.88524 11.0987C7.78784 11.1996 7.64522 11.25 7.45738 11.25C7.26954 11.25 7.12692 11.1996 7.02953 11.0987C6.93561 10.9943 6.88865 10.8639 6.88865 10.7074Z" fill="black"/>
</svg>
