<svg width="23" height="24" viewBox="0 0 23 24" fill="none" xmlns="http://www.w3.org/2000/svg">
<path fill-rule="evenodd" clip-rule="evenodd" d="M17.1665 5.71194H5.8378V16.0756C5.8378 19.1058 8.37381 21.5622 11.5021 21.5622C14.6305 21.5622 17.1665 19.1058 17.1665 16.0756V5.71194ZM3.32031 3.27344V16.0756C3.32031 20.4525 6.98344 24.0007 11.5021 24.0007C16.0208 24.0007 19.6839 20.4525 19.6839 16.0756V3.27344H3.32031Z" fill="#D565C3"/>
<path d="M8.77344 10.9073C8.77344 10.3048 9.26185 9.81641 9.86435 9.81641C10.4668 9.81641 10.9553 10.3048 10.9553 10.9073V15.271C10.9553 15.8734 10.4668 16.3619 9.86435 16.3619C9.26185 16.3619 8.77344 15.8734 8.77344 15.271V10.9073Z" fill="#D565C3"/>
<path d="M9.86435 2.18359C9.26185 2.18359 8.77344 1.69518 8.77344 1.09268C8.77344 0.490192 9.26185 0.00177572 9.86435 0.00177569L14.228 0.0017755C14.8305 0.00177548 15.3189 0.490192 15.3189 1.09268C15.3189 1.69518 14.8305 2.18359 14.228 2.18359L9.86435 2.18359Z" fill="#D565C3"/>
<path d="M14.2305 15.2724C14.2305 15.8749 13.7421 16.3633 13.1396 16.3633C12.5371 16.3633 12.0487 15.8749 12.0487 15.2724L12.0487 10.9087C12.0487 10.3062 12.5371 9.81783 13.1396 9.81783C13.7421 9.81783 14.2305 10.3062 14.2305 10.9087L14.2305 15.2724Z" fill="#D565C3"/>
<path d="M1.25262 5.45312C0.586703 5.45312 0.046875 4.96471 0.046875 4.36222C0.0468749 3.75972 0.586704 3.27131 1.25262 3.27131L21.7502 3.27131C22.4161 3.27131 22.956 3.75972 22.956 4.36222C22.956 4.96471 22.4161 5.45312 21.7502 5.45312L1.25262 5.45312Z" fill="#D565C3"/>
</svg>
