<svg width="38" height="38" viewBox="0 0 38 38" fill="none" xmlns="http://www.w3.org/2000/svg">
<rect width="38" height="38" rx="19" fill="#B3C9E9"/>
<g clip-path="url(#clip0_1087_4284)">
<path d="M31.4591 17.7914C31.4591 17.4231 31.2136 17.0958 30.8453 17.0139L28.554 16.4411L30.2725 14.8044C30.518 14.5589 30.5998 14.1498 30.3953 13.8224L29.1678 11.7357C29.0041 11.4084 28.5949 11.2856 28.2676 11.3675L25.9763 12.0221L26.6309 9.7308C26.7128 9.36255 26.59 8.9943 26.2627 8.83063L24.1759 7.60314C23.8486 7.43947 23.4394 7.48039 23.1939 7.72589L21.5573 9.44438L20.9845 7.15305C20.9026 6.78481 20.5753 6.53931 20.207 6.53931H17.752C17.3838 6.53931 17.0565 6.78481 16.9746 7.15305L16.4018 9.44438L14.7651 7.72589C14.5196 7.48039 14.1105 7.39855 13.7831 7.60314L11.6964 8.83063C11.3691 8.9943 11.2463 9.40346 11.3282 9.7308L11.9828 12.0221L9.69149 11.3675C9.32324 11.2856 8.95499 11.4084 8.79133 11.7357L7.56383 13.8224C7.40016 14.1498 7.44108 14.5589 7.68658 14.8044L9.40507 16.4411L7.11375 17.0139C6.7455 17.0958 6.5 17.4231 6.5 17.7914V20.2054C6.5 20.5737 6.7455 20.901 7.11375 20.9828L9.40507 21.5557L7.68658 23.1923C7.44108 23.4378 7.35925 23.847 7.56383 24.1743L8.79133 26.2611C8.95499 26.5884 9.36416 26.7112 9.69149 26.6293L11.9828 25.9747L11.3282 28.266C11.2463 28.6342 11.3691 29.0025 11.6964 29.1661L13.7831 30.3936C14.1105 30.5573 14.5196 30.5164 14.7651 30.2709L16.4018 28.5524L16.9746 30.8437C17.0565 31.212 17.3838 31.4575 17.752 31.4575H20.207C20.5753 31.4575 20.9026 31.212 20.9845 30.8437L21.5573 28.5524L23.1939 30.2709C23.4394 30.5164 23.8486 30.5982 24.1759 30.3936L26.2627 29.1661C26.59 29.0025 26.7128 28.5933 26.6309 28.266L25.9763 25.9747L28.2676 26.6293C28.6358 26.7112 29.0041 26.5884 29.1678 26.2611L30.3953 24.1743C30.5589 23.847 30.518 23.4378 30.2725 23.1923L28.554 21.5557L30.8453 20.9828C31.2136 20.901 31.4591 20.5737 31.4591 20.2054V17.7914Z" fill="#FF7300"/>
<path d="M11.9829 12.0221L26.0173 26.0565L28.3086 26.7112C28.6769 26.793 29.0451 26.6702 29.2088 26.3429L30.4363 24.2562C30.5999 23.9288 30.559 23.5197 30.3135 23.2742L28.595 21.6375L30.8864 21.0647C31.2546 20.9828 31.5001 20.6555 31.5001 20.2873V17.8732C31.5001 17.5049 31.2546 17.1776 30.8864 17.0958L28.595 16.5229L30.3135 14.8863C30.559 14.6408 30.6409 14.2316 30.4363 13.9043L29.2088 11.8175C29.0451 11.4902 28.636 11.3675 28.3086 11.4493L26.0173 12.104L26.672 9.81263C26.7538 9.44438 26.631 9.07613 26.3037 8.91247L24.217 7.68497C23.8896 7.5213 23.4805 7.56222 23.235 7.80772L21.5983 9.52621L20.9846 7.15305C20.9027 6.78481 20.5754 6.53931 20.2071 6.53931H17.7522C17.3839 6.53931 17.0566 6.78481 16.9747 7.15305L16.4019 9.44438L14.7652 7.72589C14.5198 7.48039 14.1106 7.39855 13.7833 7.60314L11.6965 8.83063C11.3692 8.9943 11.2464 9.40346 11.3283 9.7308L11.9829 12.0221Z" fill="#FF3C00"/>
<path d="M15.706 21.6361L12.9646 16.808L12.0645 22.0862L20.9433 30.9651C20.9433 30.9242 20.9433 30.9242 20.9843 30.8832L21.5571 28.5919L23.1937 30.3104C23.4392 30.5559 23.8484 30.6377 24.1757 30.4332L26.2625 29.2057C26.5898 29.042 26.7126 28.6328 26.6307 28.3055L25.9761 26.0142L28.2674 26.6688C28.5947 26.7507 28.963 26.6279 29.1676 26.3006L17.9974 16.6443L15.706 21.6361Z" fill="#FF3C00"/>
<path d="M15.6655 16.6063H15.0517C14.9699 16.6063 14.8881 16.6882 14.8881 16.77V18.8158C14.8881 19.2659 14.8881 19.6751 14.929 20.0842C14.7653 19.7978 14.6017 19.4705 14.3971 19.1432L12.8013 16.6473C12.7604 16.6063 12.7195 16.5654 12.6786 16.5654H11.983C11.9012 16.5654 11.8193 16.6473 11.8193 16.7291V21.68C11.8193 21.7618 11.9012 21.8437 11.983 21.8437H12.5967C12.6786 21.8437 12.7604 21.7618 12.7604 21.68V19.5523C12.7604 19.0204 12.7604 18.6113 12.7604 18.243C12.9241 18.5703 13.1287 18.8977 13.3742 19.2659L14.929 21.7618C14.9699 21.8027 15.0108 21.8437 15.0517 21.8437H15.7064C15.7882 21.8437 15.8701 21.7618 15.8701 21.68V16.77C15.8292 16.6882 15.7473 16.6063 15.6655 16.6063Z" fill="white"/>
<path d="M19.5515 20.9828H17.5875V19.5507H19.3469C19.4287 19.5507 19.5105 19.4689 19.5105 19.3871V18.8551C19.5105 18.7733 19.4287 18.6915 19.3469 18.6915H17.5875V17.464H19.4287C19.5105 17.464 19.5924 17.3821 19.5924 17.3003V16.7684C19.5924 16.6866 19.5105 16.6047 19.4287 16.6047H16.7691C16.6873 16.6047 16.6055 16.6866 16.6055 16.7684V21.7193C16.6055 21.8011 16.6873 21.883 16.7691 21.883H19.5515C19.6333 21.883 19.7151 21.8011 19.7151 21.7193V21.1874C19.7151 21.0646 19.6333 20.9828 19.5515 20.9828Z" fill="white"/>
<path d="M26.1391 16.6473C26.0982 16.6063 26.0573 16.5654 26.0164 16.5654H25.3617C25.2799 16.5654 25.239 16.6063 25.1981 16.6882L24.5434 19.1841V19.2659C24.4616 19.5523 24.3797 19.8388 24.3388 20.1252C24.2979 19.8388 24.2161 19.5523 24.1342 19.225L23.5205 16.7291C23.5205 16.6473 23.4386 16.6063 23.3568 16.6063H22.7021C22.6203 16.6063 22.5794 16.6473 22.5385 16.7291L21.8838 19.225C21.802 19.5523 21.7201 19.8797 21.6383 20.1661C21.5565 19.8797 21.5156 19.5523 21.4337 19.225L20.8609 16.7291C20.8609 16.6473 20.7791 16.6063 20.6972 16.6063H20.0426C20.0017 16.6063 19.9607 16.6473 19.9198 16.6882C19.8789 16.7291 19.8789 16.77 19.8789 16.8109L21.1473 21.7618C21.1473 21.8437 21.2292 21.8846 21.311 21.8846H21.9656C22.0475 21.8846 22.0884 21.8437 22.1293 21.7618L22.8249 19.1841C22.9067 18.8977 22.9886 18.6522 23.0295 18.3658C23.0704 18.6113 23.1522 18.8568 23.1931 19.1841L23.8069 21.7618C23.8069 21.8437 23.8887 21.8846 23.9706 21.8846H24.6252C24.7071 21.8846 24.748 21.8437 24.7889 21.7618L26.1801 16.8109C26.1801 16.77 26.1801 16.6882 26.1391 16.6473Z" fill="white"/>
</g>
<defs>
<clipPath id="clip0_1087_4284">
<rect width="25" height="25" fill="white" transform="translate(6.5 6.5)"/>
</clipPath>
</defs>
</svg>
