<svg width="40" height="40" viewBox="0 0 40 40" fill="none" xmlns="http://www.w3.org/2000/svg">
<circle cx="20" cy="20" r="20" fill="#F5F5F5"/>
<path fill-rule="evenodd" clip-rule="evenodd" d="M25.6923 14.2353H15.3077V23.7353C15.3077 26.513 17.6324 28.7647 20.5 28.7647C23.3676 28.7647 25.6923 26.513 25.6923 23.7353V14.2353ZM13 12V23.7353C13 27.7475 16.3579 31 20.5 31C24.6421 31 28 27.7475 28 23.7353V12H13Z" fill="#BB1F1F"/>
<path d="M18 19C18 18.4477 18.4477 18 19 18C19.5523 18 20 18.4477 20 19V23C20 23.5523 19.5523 24 19 24C18.4477 24 18 23.5523 18 23V19Z" fill="#BB1F1F"/>
<path d="M19 11C18.4477 11 18 10.5523 18 10C18 9.44772 18.4477 9 19 9L23 9C23.5523 9 24 9.44772 24 10C24 10.5523 23.5523 11 23 11L19 11Z" fill="#BB1F1F"/>
<path d="M23 23C23 23.5523 22.5523 24 22 24C21.4477 24 21 23.5523 21 23L21 19C21 18.4477 21.4477 18 22 18C22.5523 18 23 18.4477 23 19L23 23Z" fill="#BB1F1F"/>
<path d="M11.1053 14C10.4948 14 10 13.5523 10 13C10 12.4477 10.4948 12 11.1053 12L29.8947 12C30.5052 12 31 12.4477 31 13C31 13.5523 30.5052 14 29.8947 14L11.1053 14Z" fill="#BB1F1F"/>
</svg>
