<svg width="25" height="24" viewBox="0 0 25 24" fill="none" xmlns="http://www.w3.org/2000/svg">
<g clip-path="url(#clip0_184:3078)">
<path d="M24.4607 10.8398C24.4607 10.4862 24.225 10.172 23.8715 10.0934L21.6719 9.54353L23.3216 7.97234C23.5573 7.73666 23.6358 7.34386 23.4394 7.02962L22.261 5.02635C22.1039 4.71211 21.7111 4.59427 21.3969 4.67283L19.1972 5.30131L19.8257 3.10163C19.9043 2.74811 19.7864 2.3946 19.4722 2.23748L17.4689 1.05908C17.1547 0.901961 16.7619 0.941241 16.5262 1.17692L14.955 2.82667L14.4051 0.627002C14.3265 0.273483 14.0123 0.0378036 13.6588 0.0378036H11.302C10.9484 0.0378036 10.6342 0.273483 10.5556 0.627002L10.0057 2.82667L8.43453 1.17692C8.19886 0.941241 7.80606 0.862681 7.49182 1.05908L5.48854 2.23748C5.1743 2.3946 5.05647 2.78739 5.13503 3.10163L5.7635 5.30131L3.56383 4.67283C3.21031 4.59427 2.85679 4.71211 2.69967 5.02635L1.52128 7.02962C1.36416 7.34386 1.40344 7.73666 1.63912 7.97234L3.28887 9.54353L1.0892 10.0934C0.735679 10.172 0.5 10.4862 0.5 10.8398V13.1573C0.5 13.5108 0.735679 13.825 1.0892 13.9036L3.28887 14.4535L1.63912 16.0247C1.40344 16.2604 1.32488 16.6532 1.52128 16.9674L2.69967 18.9707C2.85679 19.2849 3.24959 19.4028 3.56383 19.3242L5.7635 18.6957L5.13503 20.8954C5.05647 21.2489 5.1743 21.6024 5.48854 21.7596L7.49182 22.938C7.80606 23.0951 8.19886 23.0558 8.43453 22.8201L10.0057 21.1704L10.5556 23.37C10.6342 23.7236 10.9484 23.9592 11.302 23.9592H13.6588C14.0123 23.9592 14.3265 23.7236 14.4051 23.37L14.955 21.1704L16.5262 22.8201C16.7619 23.0558 17.1547 23.1344 17.4689 22.938L19.4722 21.7596C19.7864 21.6024 19.9043 21.2097 19.8257 20.8954L19.1972 18.6957L21.3969 19.3242C21.7504 19.4028 22.1039 19.2849 22.261 18.9707L23.4394 16.9674C23.5966 16.6532 23.5573 16.2604 23.3216 16.0247L21.6719 14.4535L23.8715 13.9036C24.225 13.825 24.4607 13.5108 24.4607 13.1573V10.8398Z" fill="#FF7300"/>
<path d="M5.76337 5.30131L19.2364 18.7743L21.436 19.4028C21.7896 19.4813 22.1431 19.3635 22.3002 19.0493L23.4786 17.046C23.6357 16.7317 23.5964 16.3389 23.3608 16.1033L21.711 14.5321L23.9107 13.9822C24.2642 13.9036 24.4999 13.5894 24.4999 13.2358V10.9183C24.4999 10.5648 24.2642 10.2506 23.9107 10.172L21.711 9.62209L23.3608 8.0509C23.5964 7.81522 23.675 7.42242 23.4786 7.10818L22.3002 5.10491C22.1431 4.79067 21.7503 4.67283 21.436 4.75139L19.2364 5.37987L19.8648 3.18019C19.9434 2.82667 19.8256 2.47316 19.5113 2.31604L17.5081 1.13764C17.1938 0.980521 16.801 1.0198 16.5653 1.25548L14.9941 2.90523L14.4049 0.627002C14.3264 0.273483 14.0121 0.0378036 13.6586 0.0378036H11.3018C10.9483 0.0378036 10.6341 0.273483 10.5555 0.627002L10.0056 2.82667L8.43441 1.17692C8.19873 0.941241 7.80593 0.862681 7.49169 1.05908L5.48841 2.23748C5.17418 2.3946 5.05634 2.78739 5.1349 3.10163L5.76337 5.30131Z" fill="#FF3C00"/>
<path d="M9.33722 14.5306L6.70547 9.8956L5.84131 14.9627L14.365 23.4864C14.365 23.4472 14.365 23.4472 14.4043 23.4079L14.9542 21.2082L16.5254 22.858C16.7611 23.0936 17.1539 23.1722 17.4682 22.9758L19.4714 21.7974C19.7857 21.6403 19.9035 21.2475 19.8249 20.9332L19.1965 18.7336L21.3961 19.362C21.7104 19.4406 22.0639 19.3228 22.2603 19.0085L11.5369 9.73848L9.33722 14.5306Z" fill="#FF3C00"/>
<path d="M9.29875 9.70217H8.70955C8.63099 9.70217 8.55243 9.78073 8.55243 9.85929V11.8233C8.55243 12.2554 8.55243 12.6482 8.59171 13.041C8.4346 12.766 8.27748 12.4518 8.08108 12.1375L6.54916 9.74145C6.50988 9.70217 6.4706 9.66289 6.43132 9.66289H5.76356C5.685 9.66289 5.60645 9.74145 5.60645 9.82001V14.5729C5.60645 14.6514 5.685 14.73 5.76356 14.73H6.35276C6.43132 14.73 6.50988 14.6514 6.50988 14.5729V12.5303C6.50988 12.0197 6.50988 11.6269 6.50988 11.2734C6.667 11.5876 6.8634 11.9018 7.09908 12.2554L8.59171 14.6514C8.63099 14.6907 8.67027 14.73 8.70955 14.73H9.33803C9.41659 14.73 9.49515 14.6514 9.49515 14.5729V9.85929C9.45587 9.78073 9.37731 9.70217 9.29875 9.70217Z" fill="white"/>
<path d="M13.0288 13.9036H11.1434V12.5288H12.8324C12.911 12.5288 12.9896 12.4503 12.9896 12.3717V11.8611C12.9896 11.7825 12.911 11.704 12.8324 11.704H11.1434V10.5256H12.911C12.9896 10.5256 13.0681 10.447 13.0681 10.3685V9.85781C13.0681 9.77925 12.9896 9.7007 12.911 9.7007H10.3578C10.2792 9.7007 10.2007 9.77925 10.2007 9.85781V14.6107C10.2007 14.6892 10.2792 14.7678 10.3578 14.7678H13.0288C13.1074 14.7678 13.186 14.6892 13.186 14.6107V14.1C13.186 13.9822 13.1074 13.9036 13.0288 13.9036Z" fill="white"/>
<path d="M19.3536 9.74145C19.3143 9.70217 19.275 9.66289 19.2357 9.66289H18.6073C18.5287 9.66289 18.4894 9.70217 18.4501 9.78073L17.8217 12.1768V12.2554C17.7431 12.5303 17.6645 12.8053 17.6253 13.0802C17.586 12.8053 17.5074 12.5303 17.4289 12.2161L16.8397 9.82001C16.8397 9.74145 16.7611 9.70217 16.6825 9.70217H16.0541C15.9755 9.70217 15.9362 9.74145 15.8969 9.82001L15.2685 12.2161C15.1899 12.5303 15.1113 12.8446 15.0328 13.1195C14.9542 12.8446 14.9149 12.5303 14.8364 12.2161L14.2865 9.82001C14.2865 9.74145 14.2079 9.70217 14.1293 9.70217H13.5009C13.4616 9.70217 13.4223 9.74145 13.383 9.78073C13.3437 9.82001 13.3438 9.85929 13.3438 9.89857L14.5614 14.6514C14.5614 14.73 14.64 14.7693 14.7185 14.7693H15.347C15.4256 14.7693 15.4649 14.73 15.5041 14.6514L16.1719 12.1768C16.2505 11.9018 16.329 11.6662 16.3683 11.3912C16.4076 11.6269 16.4861 11.8626 16.5254 12.1768L17.1146 14.6514C17.1146 14.73 17.1932 14.7693 17.2717 14.7693H17.9002C17.9788 14.7693 18.0181 14.73 18.0573 14.6514L19.3929 9.89857C19.3929 9.85929 19.3929 9.78073 19.3536 9.74145Z" fill="white"/>
</g>
<defs>
<clipPath id="clip0_184:3078">
<rect width="24" height="24" fill="white" transform="translate(0.5)"/>
</clipPath>
</defs>
</svg>
