<svg width="17" height="16" viewBox="0 0 17 16" fill="none" xmlns="http://www.w3.org/2000/svg">
<path d="M16.8199 5.64188L11.9627 0.201926C11.8425 0.0673211 11.7002 0 11.5358 0C11.3714 0 11.229 0.0673211 11.1089 0.201926C10.9887 0.336606 10.9286 0.495996 10.9286 0.680134V3.40011H8.80358C4.2941 3.40011 1.52733 4.82744 0.50263 7.68202C0.167532 8.63107 0 9.81059 0 11.2202C0 12.3959 0.401619 13.9932 1.20479 16.012C1.22373 16.0617 1.25682 16.1465 1.30434 16.2669C1.35182 16.3872 1.39445 16.4934 1.4324 16.5856C1.47048 16.6776 1.51161 16.7555 1.55584 16.8192C1.63166 16.9396 1.72025 17 1.82146 17C1.91632 17 1.99065 16.9646 2.04444 16.8938C2.09811 16.823 2.12499 16.7344 2.12499 16.6284C2.12499 16.5644 2.11708 16.4707 2.10123 16.3467C2.08541 16.2227 2.07747 16.1396 2.07747 16.0971C2.04581 15.6156 2.02999 15.1796 2.02999 14.7903C2.02999 14.0749 2.08541 13.4339 2.19599 12.8672C2.30674 12.3005 2.46009 11.8101 2.65619 11.3957C2.85227 10.9811 3.10516 10.6236 3.41514 10.3226C3.72498 10.0215 4.05855 9.77546 4.41588 9.58417C4.77327 9.39285 5.19383 9.24232 5.67765 9.13257C6.16144 9.02279 6.64839 8.94661 7.13859 8.90407C7.6288 8.86154 8.18376 8.8404 8.80358 8.8404H10.9286V11.5605C10.9286 11.7446 10.9886 11.904 11.1087 12.0385C11.229 12.173 11.3712 12.2404 11.5356 12.2404C11.7 12.2404 11.8423 12.173 11.9627 12.0385L16.8198 6.59841C16.94 6.4638 17 6.30449 17 6.12031C17 5.93617 16.94 5.77675 16.8199 5.64188Z" fill="#F4F4F4"/>
</svg>
