<svg width="81" height="81" viewBox="0 0 81 81" fill="none" xmlns="http://www.w3.org/2000/svg">
<path d="M0 40.5C0 18.1325 18.1325 0 40.5 0C62.8675 0 81 18.1325 81 40.5C81 62.8675 62.8675 81 40.5 81C18.1325 81 0 62.8675 0 40.5Z" fill="white"/>
<path d="M41.2071 12.7929C40.8166 12.4024 40.1834 12.4024 39.7929 12.7929L33.4289 19.1569C33.0384 19.5474 33.0384 20.1805 33.4289 20.5711C33.8195 20.9616 34.4526 20.9616 34.8431 20.5711L40.5 14.9142L46.1569 20.5711C46.5474 20.9616 47.1805 20.9616 47.5711 20.5711C47.9616 20.1805 47.9616 19.5474 47.5711 19.1569L41.2071 12.7929ZM41.5 29.5L41.5 13.5L39.5 13.5L39.5 29.5L41.5 29.5Z" fill="black"/>
<path d="M16.2871 48.5V38.5469H19.6982C20.8239 38.5469 21.6807 38.7725 22.2686 39.2236C22.8564 39.6748 23.1504 40.347 23.1504 41.2402C23.1504 41.696 23.0273 42.1061 22.7812 42.4707C22.5352 42.8353 22.1751 43.1178 21.7012 43.3184C22.2389 43.4642 22.6536 43.7399 22.9453 44.1455C23.2415 44.5465 23.3896 45.0296 23.3896 45.5947C23.3896 46.529 23.0889 47.2467 22.4873 47.748C21.8903 48.2493 21.0335 48.5 19.917 48.5H16.2871ZM18.0166 44.0088V47.1191H19.9375C20.4798 47.1191 20.9036 46.9847 21.209 46.7158C21.5143 46.4469 21.667 46.0732 21.667 45.5947C21.667 44.5602 21.1383 44.0316 20.0811 44.0088H18.0166ZM18.0166 42.7373H19.7119C20.2497 42.7373 20.6689 42.6165 20.9697 42.375C21.2751 42.1289 21.4277 41.7826 21.4277 41.3359C21.4277 40.8438 21.2865 40.4883 21.0039 40.2695C20.7259 40.0508 20.2907 39.9414 19.6982 39.9414H18.0166V42.7373ZM29.3779 48.5C29.305 48.3587 29.2412 48.1286 29.1865 47.8096C28.6579 48.361 28.0107 48.6367 27.2451 48.6367C26.5023 48.6367 25.8962 48.4248 25.4268 48.001C24.9574 47.5771 24.7227 47.0531 24.7227 46.4287C24.7227 45.6403 25.0143 45.0365 25.5977 44.6172C26.1855 44.1934 27.0241 43.9814 28.1133 43.9814H29.1318V43.4961C29.1318 43.1133 29.0247 42.8079 28.8105 42.5801C28.5964 42.3477 28.2705 42.2314 27.833 42.2314C27.4548 42.2314 27.1449 42.3271 26.9033 42.5186C26.6618 42.7054 26.541 42.9447 26.541 43.2363H24.8799C24.8799 42.8307 25.0143 42.4525 25.2832 42.1016C25.5521 41.7461 25.9167 41.4681 26.377 41.2676C26.8418 41.0671 27.359 40.9668 27.9287 40.9668C28.7946 40.9668 29.485 41.1855 30 41.623C30.515 42.056 30.7793 42.6667 30.793 43.4551V46.791C30.793 47.4564 30.8864 47.9873 31.0732 48.3838V48.5H29.3779ZM27.5527 47.3037C27.8809 47.3037 28.1885 47.224 28.4756 47.0645C28.7673 46.9049 28.986 46.6908 29.1318 46.4219V45.0273H28.2363C27.6211 45.0273 27.1585 45.1344 26.8486 45.3486C26.5387 45.5628 26.3838 45.8659 26.3838 46.2578C26.3838 46.5768 26.4886 46.832 26.6982 47.0234C26.9124 47.2103 27.1973 47.3037 27.5527 47.3037ZM35.5713 47.3105C35.986 47.3105 36.3301 47.1898 36.6035 46.9482C36.877 46.7067 37.0228 46.4082 37.041 46.0527H38.6064C38.5882 46.513 38.4447 46.9437 38.1758 47.3447C37.9069 47.7412 37.5423 48.0557 37.082 48.2881C36.6217 48.5205 36.125 48.6367 35.5918 48.6367C34.5573 48.6367 33.737 48.3018 33.1309 47.6318C32.5247 46.9619 32.2217 46.0368 32.2217 44.8564V44.6855C32.2217 43.5599 32.5225 42.6598 33.124 41.9854C33.7256 41.3063 34.5459 40.9668 35.585 40.9668C36.4645 40.9668 37.18 41.2243 37.7314 41.7393C38.2874 42.2497 38.5791 42.9219 38.6064 43.7559H37.041C37.0228 43.332 36.877 42.9834 36.6035 42.71C36.3346 42.4365 35.9906 42.2998 35.5713 42.2998C35.0335 42.2998 34.6188 42.4958 34.3271 42.8877C34.0355 43.2751 33.8874 43.8652 33.8828 44.6582V44.9248C33.8828 45.7269 34.0264 46.3262 34.3135 46.7227C34.6051 47.1146 35.0244 47.3105 35.5713 47.3105ZM42.2637 45.3281L41.5254 46.0869V48.5H39.8643V38H41.5254V44.0566L42.0449 43.4072L44.0889 41.1035H46.085L43.3369 44.1865L46.3789 48.5H44.458L42.2637 45.3281ZM52.7432 39.3057V41.1035H54.0488V42.334H52.7432V46.4629C52.7432 46.7454 52.7979 46.9505 52.9072 47.0781C53.0212 47.2012 53.2217 47.2627 53.5088 47.2627C53.7002 47.2627 53.8939 47.2399 54.0898 47.1943V48.4795C53.7116 48.5843 53.347 48.6367 52.9961 48.6367C51.7201 48.6367 51.082 47.9326 51.082 46.5244V42.334H49.8652V41.1035H51.082V39.3057H52.7432ZM54.8076 44.7334C54.8076 44.0088 54.9512 43.3571 55.2383 42.7783C55.5254 42.195 55.9287 41.7484 56.4482 41.4385C56.9678 41.124 57.5648 40.9668 58.2393 40.9668C59.2373 40.9668 60.0462 41.2881 60.666 41.9307C61.2904 42.5732 61.6276 43.4255 61.6777 44.4873L61.6846 44.877C61.6846 45.6061 61.5433 46.2578 61.2607 46.832C60.9827 47.4062 60.5817 47.8506 60.0576 48.165C59.5381 48.4795 58.9365 48.6367 58.2529 48.6367C57.2093 48.6367 56.373 48.2904 55.7441 47.5977C55.1198 46.9004 54.8076 45.973 54.8076 44.8154V44.7334ZM56.4688 44.877C56.4688 45.638 56.626 46.235 56.9404 46.668C57.2549 47.0964 57.6924 47.3105 58.2529 47.3105C58.8135 47.3105 59.2487 47.0918 59.5586 46.6543C59.873 46.2168 60.0303 45.5765 60.0303 44.7334C60.0303 43.986 59.8685 43.3936 59.5449 42.9561C59.2259 42.5186 58.7907 42.2998 58.2393 42.2998C57.6969 42.2998 57.2663 42.5163 56.9473 42.9492C56.6283 43.3776 56.4688 44.0202 56.4688 44.877ZM33.2744 55.3057V57.1035H34.5801V58.334H33.2744V62.4629C33.2744 62.7454 33.3291 62.9505 33.4385 63.0781C33.5524 63.2012 33.7529 63.2627 34.04 63.2627C34.2314 63.2627 34.4251 63.2399 34.6211 63.1943V64.4795C34.2428 64.5843 33.8783 64.6367 33.5273 64.6367C32.2513 64.6367 31.6133 63.9326 31.6133 62.5244V58.334H30.3965V57.1035H31.6133V55.3057H33.2744ZM35.3389 60.7334C35.3389 60.0088 35.4824 59.3571 35.7695 58.7783C36.0566 58.195 36.46 57.7484 36.9795 57.4385C37.499 57.124 38.096 56.9668 38.7705 56.9668C39.7686 56.9668 40.5775 57.2881 41.1973 57.9307C41.8216 58.5732 42.1589 59.4255 42.209 60.4873L42.2158 60.877C42.2158 61.6061 42.0745 62.2578 41.792 62.832C41.514 63.4062 41.113 63.8506 40.5889 64.165C40.0693 64.4795 39.4678 64.6367 38.7842 64.6367C37.7406 64.6367 36.9043 64.2904 36.2754 63.5977C35.651 62.9004 35.3389 61.973 35.3389 60.8154V60.7334ZM37 60.877C37 61.638 37.1572 62.235 37.4717 62.668C37.7861 63.0964 38.2236 63.3105 38.7842 63.3105C39.3447 63.3105 39.7799 63.0918 40.0898 62.6543C40.4043 62.2168 40.5615 61.5765 40.5615 60.7334C40.5615 59.986 40.3997 59.3936 40.0762 58.9561C39.7572 58.5186 39.3219 58.2998 38.7705 58.2998C38.2282 58.2998 37.7975 58.5163 37.4785 58.9492C37.1595 59.3776 37 60.0202 37 60.877ZM50.0977 60.877C50.0977 62.0208 49.8379 62.9346 49.3184 63.6182C48.7988 64.2972 48.1016 64.6367 47.2266 64.6367C46.4154 64.6367 45.766 64.3701 45.2783 63.8369V67.3438H43.6172V57.1035H45.1484L45.2168 57.8555C45.7044 57.263 46.3675 56.9668 47.2061 56.9668C48.1084 56.9668 48.8148 57.304 49.3252 57.9785C49.8402 58.6484 50.0977 59.5804 50.0977 60.7744V60.877ZM48.4434 60.7334C48.4434 59.9951 48.2952 59.4095 47.999 58.9766C47.7074 58.5436 47.2881 58.3271 46.7412 58.3271C46.0622 58.3271 45.5745 58.6074 45.2783 59.168V62.4492C45.5791 63.0234 46.0713 63.3105 46.7549 63.3105C47.2835 63.3105 47.696 63.0986 47.9922 62.6748C48.293 62.2464 48.4434 61.5993 48.4434 60.7334Z" fill="black"/>
<path d="M40.5 79C19.237 79 2 61.763 2 40.5H-2C-2 63.9721 17.0279 83 40.5 83V79ZM79 40.5C79 61.763 61.763 79 40.5 79V83C63.9721 83 83 63.9721 83 40.5H79ZM40.5 2C61.763 2 79 19.237 79 40.5H83C83 17.0279 63.9721 -2 40.5 -2V2ZM40.5 -2C17.0279 -2 -2 17.0279 -2 40.5H2C2 19.237 19.237 2 40.5 2V-2Z" fill="black"/>
</svg>
