<svg width="17" height="17" viewBox="0 0 17 17" fill="none" xmlns="http://www.w3.org/2000/svg">
<path d="M7.62274 4.11364L8.49997 5.71681L9.37724 4.11366C9.61968 3.67063 10.0154 3.09451 10.5824 2.65599L9.97323 1.86827L10.5824 2.65599C11.1568 2.21176 11.7884 1.99609 12.4844 1.99609C14.4314 1.99609 16 3.57596 16 5.89402C16 7.09472 15.5317 8.14643 14.5608 9.31798C13.5646 10.5201 12.1195 11.7559 10.2634 13.3377L10.2634 13.3377L10.262 13.3388C9.727 13.7948 9.12717 14.3059 8.50001 14.8509C7.87327 14.3063 7.2738 13.7954 6.73934 13.34L6.73706 13.338L6.73704 13.338C4.88072 11.7561 3.43552 10.5202 2.43924 9.31802C1.46829 8.14643 1 7.09471 1 5.89402C1 3.57596 2.56856 1.99609 4.51562 1.99609C5.21157 1.99609 5.84317 2.21176 6.41756 2.65599L7.0279 1.86681L6.41756 2.65599C6.98459 3.09452 7.38032 3.67061 7.62274 4.11364Z" stroke="#323232" stroke-width="2"/>
</svg>
