<svg width="25" height="24" viewBox="0 0 25 24" fill="none" xmlns="http://www.w3.org/2000/svg">
<g clip-path="url(#clip0_184:3090)">
<path d="M13.0454 23.4559H1.04544C0.718203 23.4559 0.5 23.2377 0.5 22.9105V21.8195C0.5 21.4922 0.718203 21.2741 1.04544 21.2741H13.0454C13.3727 21.2741 13.5909 21.4923 13.5909 21.8195V22.9105C13.5909 23.2377 13.3727 23.4559 13.0454 23.4559Z" fill="#F6B545"/>
<path d="M10.8636 21.8169H0.5C0.5 21.4896 0.718203 21.2715 1.04544 21.2715H10.8636V21.8169Z" fill="#FFCB5B"/>
<path d="M10.8636 21.8187V22.3641C10.8636 22.6914 10.6454 22.9096 10.3182 22.9096H0.5C0.5 23.2369 0.718203 23.455 1.04544 23.455H10.3182H13.0454C13.3727 23.455 13.5909 23.2368 13.5909 22.9096V21.8187H10.8636V21.8187Z" fill="#F19920"/>
<path d="M2.13577 22.9096V22.0914C2.13577 21.9277 2.02669 21.8187 1.86305 21.8187C1.69941 21.8187 1.59033 21.9277 1.59033 22.0914V22.9096" fill="#F19920"/>
<path d="M3.77151 22.9096V22.0914C3.77151 21.9277 3.66243 21.8187 3.49879 21.8187C3.33515 21.8187 3.22607 21.9277 3.22607 22.0914V22.9096" fill="#F19920"/>
<path d="M5.4097 22.9096V22.0914C5.4097 21.9277 5.30062 21.8187 5.13698 21.8187C4.97334 21.8187 4.86426 21.9277 4.86426 22.0914V22.9096" fill="#F19920"/>
<path d="M7.04544 22.9096V22.0914C7.04544 21.9277 6.93636 21.8187 6.77272 21.8187C6.60908 21.8187 6.5 21.9277 6.5 22.0914V22.9096" fill="#F19920"/>
<path d="M8.68118 22.9096V22.0914C8.68118 21.9277 8.5721 21.8187 8.40846 21.8187C8.24482 21.8187 8.13574 21.9277 8.13574 22.0914V22.9096" fill="#F19920"/>
<path d="M10.3169 22.9096V22.0914C10.3169 21.9277 10.2078 21.8187 10.0442 21.8187C9.88056 21.8187 9.77148 21.9277 9.77148 22.0914V22.9096" fill="#F19920"/>
<path d="M14.1358 21.2719H2.13577C1.80849 21.2719 1.59033 21.0537 1.59033 20.7265V19.6355C1.59033 19.3083 1.80854 19.0901 2.13577 19.0901H14.1358C14.463 19.0901 14.6812 19.3083 14.6812 19.6355V20.7265C14.6812 21.0538 14.463 21.2719 14.1358 21.2719Z" fill="#F6B545"/>
<path d="M11.954 19.6355H1.59033C1.59033 19.3083 1.80854 19.0901 2.13577 19.0901H11.954V19.6355Z" fill="#FFCB5B"/>
<path d="M11.954 19.6373V20.1828C11.954 20.5101 11.7358 20.7282 11.4085 20.7282H1.59033C1.59033 21.0555 1.80854 21.2736 2.13577 21.2736H11.4085H14.1358C14.463 21.2736 14.6812 21.0554 14.6812 20.7282V19.6373H11.954V19.6373Z" fill="#F19920"/>
<path d="M3.2261 20.7292V19.911C3.2261 19.7474 3.11702 19.6383 2.95338 19.6383C2.78974 19.6383 2.68066 19.7474 2.68066 19.911V20.7292" fill="#F19920"/>
<path d="M4.86184 20.7292V19.911C4.86184 19.7474 4.75277 19.6383 4.58912 19.6383C4.42548 19.6383 4.31641 19.7474 4.31641 19.911V20.7292" fill="#F19920"/>
<path d="M6.50003 20.7292V19.911C6.50003 19.7474 6.39095 19.6383 6.22731 19.6383C6.06367 19.6383 5.95459 19.7474 5.95459 19.911V20.7292" fill="#F19920"/>
<path d="M8.13577 20.7292V19.911C8.13577 19.7474 8.02669 19.6383 7.86305 19.6383C7.69941 19.6383 7.59033 19.7474 7.59033 19.911V20.7292" fill="#F19920"/>
<path d="M9.77151 20.7292V19.911C9.77151 19.7474 9.66243 19.6383 9.49879 19.6383C9.33515 19.6383 9.22607 19.7474 9.22607 19.911V20.7292" fill="#F19920"/>
<path d="M11.4097 20.7292V19.911C11.4097 19.7474 11.3006 19.6383 11.137 19.6383C10.9733 19.6383 10.8643 19.7474 10.8643 19.911V20.7292" fill="#F19920"/>
<path d="M15.2266 16.9077H3.22659C2.89931 16.9077 2.68115 16.6895 2.68115 16.3623V15.2713C2.68115 14.9441 2.89936 14.7259 3.22659 14.7259H15.2266C15.5539 14.7259 15.772 14.9441 15.772 15.2713V16.3623C15.772 16.6895 15.5539 16.9077 15.2266 16.9077Z" fill="#F6B545"/>
<path d="M13.0438 15.2713H2.68018C2.68018 14.9441 2.89838 14.7259 3.22561 14.7259H13.0438V15.2713Z" fill="#FFCB5B"/>
<path d="M13.0438 15.2731V15.8186C13.0438 16.1459 12.8256 16.364 12.4984 16.364H2.68018C2.68018 16.6913 2.89838 16.9094 3.22561 16.9094H12.4984H15.2257C15.5529 16.9094 15.7711 16.6912 15.7711 16.364V15.2731H13.0438V15.2731Z" fill="#F19920"/>
<path d="M4.31692 16.365V15.5468C4.31692 15.3832 4.20784 15.2741 4.0442 15.2741C3.88056 15.2741 3.77148 15.3832 3.77148 15.5468V16.365" fill="#F19920"/>
<path d="M5.95266 16.365V15.5468C5.95266 15.3832 5.84359 15.2741 5.67995 15.2741C5.5163 15.2741 5.40723 15.3832 5.40723 15.5468V16.365" fill="#F19920"/>
<path d="M7.58841 16.365V15.5468C7.58841 15.3832 7.47933 15.2741 7.31569 15.2741C7.15205 15.2741 7.04297 15.3832 7.04297 15.5468V16.365" fill="#F19920"/>
<path d="M9.22659 16.365V15.5468C9.22659 15.3832 9.11751 15.2741 8.95387 15.2741C8.79023 15.2741 8.68115 15.3832 8.68115 15.5468V16.365" fill="#F19920"/>
<path d="M10.8623 16.365V15.5468C10.8623 15.3832 10.7533 15.2741 10.5896 15.2741C10.426 15.2741 10.3169 15.3832 10.3169 15.5468V16.365" fill="#F19920"/>
<path d="M12.4971 16.365V15.5468C12.4971 15.3832 12.388 15.2741 12.2244 15.2741C12.0607 15.2741 11.9517 15.3832 11.9517 15.5468V16.365" fill="#F19920"/>
<path d="M14.1358 14.7273H2.13577C1.80849 14.7273 1.59033 14.5091 1.59033 14.1819V13.091C1.59033 12.7637 1.80854 12.5455 2.13577 12.5455H14.1358C14.463 12.5455 14.6812 12.7637 14.6812 13.091V14.1819C14.6812 14.5091 14.463 14.7273 14.1358 14.7273Z" fill="#F6B545"/>
<path d="M11.954 13.091H1.59033C1.59033 12.7637 1.80854 12.5455 2.13577 12.5455H11.954V13.091Z" fill="#FFCB5B"/>
<path d="M11.954 13.0903V13.6357C11.954 13.963 11.7358 14.1812 11.4085 14.1812H1.59033C1.59033 14.5085 1.80854 14.7266 2.13577 14.7266H11.4085H14.1358C14.463 14.7266 14.6812 14.5084 14.6812 14.1812V13.0903H11.954V13.0903Z" fill="#F19920"/>
<path d="M3.2261 14.1812V13.363C3.2261 13.1993 3.11702 13.0903 2.95338 13.0903C2.78974 13.0903 2.68066 13.1993 2.68066 13.363V14.1812" fill="#F19920"/>
<path d="M4.86184 14.1812V13.363C4.86184 13.1993 4.75277 13.0903 4.58912 13.0903C4.42548 13.0903 4.31641 13.1993 4.31641 13.363V14.1812" fill="#F19920"/>
<path d="M6.50003 14.1812V13.363C6.50003 13.1993 6.39095 13.0903 6.22731 13.0903C6.06367 13.0903 5.95459 13.1993 5.95459 13.363V14.1812" fill="#F19920"/>
<path d="M8.13577 14.1812V13.363C8.13577 13.1993 8.02669 13.0903 7.86305 13.0903C7.69941 13.0903 7.59033 13.1993 7.59033 13.363V14.1812" fill="#F19920"/>
<path d="M9.77151 14.1812V13.363C9.77151 13.1993 9.66243 13.0903 9.49879 13.0903C9.33515 13.0903 9.22607 13.1993 9.22607 13.363V14.1812" fill="#F19920"/>
<path d="M11.4097 14.1812V13.363C11.4097 13.1993 11.3006 13.0903 11.137 13.0903C10.9733 13.0903 10.8643 13.1993 10.8643 13.363V14.1812" fill="#F19920"/>
<path d="M13.0454 19.0917H1.04544C0.718203 19.0917 0.5 18.8735 0.5 18.5462V17.4553C0.5 17.128 0.718203 16.9099 1.04544 16.9099H13.0454C13.3727 16.9099 13.5909 17.1281 13.5909 17.4553V18.5462C13.5909 18.8735 13.3727 19.0917 13.0454 19.0917Z" fill="#F6B545"/>
<path d="M10.8636 17.4552H0.5C0.5 17.1279 0.718203 16.9097 1.04544 16.9097H10.8636V17.4552Z" fill="#FFCB5B"/>
<path d="M10.8636 17.4545V17.9999C10.8636 18.3272 10.6454 18.5454 10.3182 18.5454H0.5C0.5 18.8727 0.718203 19.0908 1.04544 19.0908H10.3182H13.0454C13.3727 19.0908 13.5909 18.8726 13.5909 18.5454V17.4545H10.8636V17.4545Z" fill="#F19920"/>
<path d="M2.13577 18.5454V17.7272C2.13577 17.5635 2.02669 17.4545 1.86305 17.4545C1.69941 17.4545 1.59033 17.5635 1.59033 17.7272V18.5454" fill="#F19920"/>
<path d="M3.77151 18.5454V17.7272C3.77151 17.5635 3.66243 17.4545 3.49879 17.4545C3.33515 17.4545 3.22607 17.5635 3.22607 17.7272V18.5454" fill="#F19920"/>
<path d="M5.4097 18.5454V17.7272C5.4097 17.5635 5.30062 17.4545 5.13698 17.4545C4.97334 17.4545 4.86426 17.5635 4.86426 17.7272V18.5454" fill="#F19920"/>
<path d="M7.04544 18.5454V17.7272C7.04544 17.5635 6.93636 17.4545 6.77272 17.4545C6.60908 17.4545 6.5 17.5635 6.5 17.7272V18.5454" fill="#F19920"/>
<path d="M8.68118 18.5454V17.7272C8.68118 17.5635 8.5721 17.4545 8.40846 17.4545C8.24482 17.4545 8.13574 17.5635 8.13574 17.7272V18.5454" fill="#F19920"/>
<path d="M10.3169 18.5454V17.7272C10.3169 17.5635 10.2078 17.4545 10.0442 17.4545C9.88056 17.4545 9.77148 17.5635 9.77148 17.7272V18.5454" fill="#F19920"/>
<path d="M23.4094 19.9082C22.7003 19.4173 22.3184 18.5991 22.3184 17.7264C22.3184 14.3991 21.0094 11.2355 18.6639 8.89003L16.3184 6.5446V4.90824L18.2275 2.50824C18.3912 2.29003 18.5003 2.01732 18.5003 1.74455C18.5003 1.08999 17.9548 0.54455 17.3003 0.54455H15.2276L14.6821 1.63547L13.5912 0.54455H10.973C10.3184 0.54455 9.77299 1.08999 9.77299 1.74455C9.77299 2.01727 9.88207 2.28999 10.0457 2.50819L11.9548 4.90819V6.54455L9.60935 8.88999C7.26392 11.2354 5.95479 14.3991 5.95479 17.7263C5.95479 18.5991 5.573 19.4173 4.86387 19.9081C4.15475 20.399 3.77295 21.2172 3.77295 22.0899C3.77295 22.8536 4.37295 23.4536 5.13659 23.4536H23.1366C23.9002 23.4536 24.5002 22.8536 24.5002 22.0899C24.5003 21.2173 24.1185 20.3991 23.4094 19.9082Z" fill="#C97629"/>
<path d="M23.4099 19.9082C22.7008 19.3628 22.319 18.5446 22.319 17.6718C22.3736 14.2355 20.7917 11.0173 18.3917 8.56275L16.319 6.54455V4.90819L18.2281 2.50819C18.5554 2.12639 18.6099 1.58091 18.3372 1.08999C18.119 0.708191 17.6826 0.54455 17.2462 0.54455C16.8644 0.54455 16.6462 0.98091 16.7553 1.30819C16.8099 1.41727 16.8644 1.58091 16.8644 1.74455C16.8644 2.01727 16.7553 2.28999 16.5917 2.50819L14.6826 4.90819V6.54455H11.9553L11.4099 7.08999H15.2281L17.2463 9.10819C19.4826 11.3445 20.3554 14.3991 20.1372 17.5082C20.0826 18.4355 20.4645 19.3082 21.1736 19.8536C21.2281 19.9082 21.2826 19.9627 21.3372 19.9627C22.1554 20.8354 21.4463 22.3081 20.1918 22.3081H3.82812C3.9372 22.9081 4.48269 23.3991 5.1372 23.3991H20.9554H22.319H23.1372C23.9008 23.3991 24.5008 22.7991 24.5008 22.0355V21.9264C24.5008 21.1082 24.0645 20.3991 23.4099 19.9082Z" fill="#B06328"/>
<path d="M16.5906 6.5453H11.6815C11.2451 6.5453 10.8633 6.16351 10.8633 5.7271C10.8633 5.29074 11.2451 4.9089 11.6815 4.9089H16.5906C17.0269 4.9089 17.4088 5.29069 17.4088 5.7271C17.4088 6.16351 17.027 6.5453 16.5906 6.5453Z" fill="#FFCB5B"/>
<path d="M11.6824 4.9099H14.4097C14.5733 4.9099 14.6824 5.01897 14.6824 5.18262C14.6824 5.34626 14.5733 5.45533 14.4097 5.45533H11.6824C11.5187 5.45533 11.4097 5.34626 11.4097 5.18262C11.4097 5.01902 11.5188 4.9099 11.6824 4.9099Z" fill="#FFE278"/>
<path d="M16.5912 4.9099H16.3185V5.45534C16.3185 5.78262 16.1003 6.00077 15.773 6.00077H10.9185C11.0275 6.32806 11.3548 6.54621 11.6821 6.54621H16.5912C17.0275 6.54621 17.4094 6.16442 17.4094 5.72801C17.4094 5.2916 17.0275 4.9099 16.5912 4.9099Z" fill="#F6B545"/>
<path d="M14.9539 6H16.5902C16.7539 6 16.8629 6.10908 16.8629 6.27272C16.8629 6.43636 16.7539 6.54544 16.5902 6.54544H14.9539C14.7902 6.54544 14.6812 6.43636 14.6812 6.27272C14.6811 6.10908 14.7902 6 14.9539 6Z" fill="#F19920"/>
<path d="M14.6813 6.54455H13.5903V10.9082H14.6813V6.54455Z" fill="#F6B545"/>
<path d="M13.5903 6.54455V7.09004H14.1358V10.9082H14.6812V7.09004V6.54455H13.5903Z" fill="#F19920"/>
<path d="M14.1376 19.0915C16.5475 19.0915 18.5012 17.1378 18.5012 14.7278C18.5012 12.3179 16.5475 10.3642 14.1376 10.3642C11.7276 10.3642 9.77393 12.3179 9.77393 14.7278C9.77393 17.1378 11.7276 19.0915 14.1376 19.0915Z" fill="#F6B545"/>
<path d="M17.4645 11.9457C18.1191 12.7094 18.5009 13.6367 18.5009 14.7276C18.5009 17.1276 16.5373 19.0912 14.1373 19.0912C13.0463 19.0912 12.1191 18.7094 11.3555 18.0549C12.1737 19.0367 13.3737 19.6367 14.6828 19.6367C17.0828 19.6367 19.0464 17.673 19.0464 15.273C19.0463 13.9094 18.4463 12.7094 17.4645 11.9457Z" fill="#B06328"/>
<path d="M14.137 18.5463C16.2458 18.5463 17.9552 16.8369 17.9552 14.7281C17.9552 12.6194 16.2458 10.9099 14.137 10.9099C12.0283 10.9099 10.3188 12.6194 10.3188 14.7281C10.3188 16.8369 12.0283 18.5463 14.137 18.5463Z" fill="#FFCB5B"/>
<path d="M17.9539 14.7259C17.9539 16.8532 16.263 18.5441 14.1357 18.5441V19.0895C16.5357 19.0895 18.4994 17.1259 18.4994 14.7259H17.9539Z" fill="#F19920"/>
<path d="M14.1376 10.9096V10.3642C11.7376 10.3642 9.77393 12.3278 9.77393 14.7278H10.3194C10.3194 12.6006 12.0103 10.9096 14.1376 10.9096Z" fill="#FFE27A"/>
<path d="M14.6828 14.1825H13.5919C13.2646 14.1825 13.0464 13.9643 13.0464 13.6371C13.0464 13.3098 13.2646 13.0916 13.5919 13.0916H15.2282C15.5555 13.0916 15.7737 12.8734 15.7737 12.5462C15.7737 12.2189 15.5555 12.0007 15.2282 12.0007H14.6828C14.6828 11.6735 14.4646 11.4553 14.1374 11.4553C13.8101 11.4553 13.5919 11.6735 13.5919 12.0007C12.6646 12.0007 11.9556 12.7098 11.9556 13.6371C11.9556 14.5644 12.6646 15.2735 13.5919 15.2735H14.6828C15.0101 15.2735 15.2283 15.4917 15.2283 15.8189C15.2283 16.1461 15.0101 16.3643 14.6828 16.3643H13.0465C12.7192 16.3643 12.501 16.5825 12.501 16.9098C12.501 17.2371 12.7193 17.4552 13.0465 17.4552H13.5919C13.5919 17.7825 13.8101 18.0007 14.1374 18.0007C14.4646 18.0007 14.6828 17.7825 14.6828 17.4552C15.6101 17.4552 16.3191 16.7461 16.3191 15.8189C16.3191 14.8916 15.6101 14.1825 14.6828 14.1825Z" fill="#E78825"/>
</g>
<defs>
<clipPath id="clip0_184:3090">
<rect width="24" height="24" fill="white" transform="translate(0.5)"/>
</clipPath>
</defs>
</svg>
