<svg width="24" height="9" viewBox="0 0 24 9" fill="none" xmlns="http://www.w3.org/2000/svg">
<path d="M15.3053 5.18341C15.3053 7.29132 13.5965 9.00011 11.4886 9.00011C9.38067 9.00011 7.67188 7.29132 7.67188 5.18341C7.67188 3.0755 9.38067 1.3667 11.4886 1.3667C13.5965 1.3667 15.3053 3.0755 15.3053 5.18341Z" fill="#F4F4F4"/>
<path fill-rule="evenodd" clip-rule="evenodd" d="M9.88767 2.78983C6.99978 3.26463 4.48559 4.70876 2.7917 6.1239C2.25248 6.57438 1.44935 6.58436 0.948278 6.09178C0.447211 5.59921 0.437801 4.79093 0.970386 4.33261C2.95461 2.62509 5.9513 0.858384 9.47487 0.27907C13.4008 -0.366398 17.8849 0.482689 22.1873 4.31788C22.7118 4.78543 22.7096 5.59494 22.2128 6.09178C21.716 6.58862 20.9125 6.58349 20.3844 6.12005C16.6948 2.88249 13.0253 2.27397 9.88767 2.78983Z" fill="#F4F4F4"/>
</svg>
