<svg xmlns="http://www.w3.org/2000/svg" version="1.1" xmlns:xlink="http://www.w3.org/1999/xlink" xmlns:svgjs="http://svgjs.com/svgjs" width="512" height="512" x="0" y="0" viewBox="0 0 512.599 512.599" style="enable-background:new 0 0 512 512" xml:space="preserve"><g><g xmlns="http://www.w3.org/2000/svg"><g><path d="m457.21 512.599h-401.821c-30.59 0-55.389-24.799-55.389-55.389v-401.821c0-30.59 24.799-55.389 55.389-55.389h401.82c30.591 0 55.389 24.799 55.389 55.389v401.82c.001 30.591-24.798 55.39-55.388 55.39z" fill="#000000" data-original="#000000"></path><path d="m457.21 512.599h-401.821c-30.59 0-55.389-24.799-55.389-55.389v-401.821c0-30.59 24.799-55.389 55.389-55.389h401.82c30.591 0 55.389 24.799 55.389 55.389v401.82c.001 30.591-24.798 55.39-55.388 55.39z" fill="#000000" data-original="#000000"></path></g><g><g fill="#fff"><path d="m281.217 256.299c0 61.006-49.118 110.461-109.709 110.461-60.59 0-109.709-49.455-109.709-110.461s49.118-110.461 109.709-110.461c60.59 0 109.709 49.455 109.709 110.461" fill="#ffffff" data-original="#ffffff"></path><path d="m401.57 256.299c0 57.427-24.559 103.98-54.854 103.98s-54.854-46.553-54.854-103.98 24.559-103.98 54.854-103.98 54.854 46.554 54.854 103.98" fill="#ffffff" data-original="#ffffff"></path><path d="m450.799 256.299c0 51.452-8.638 93.162-19.293 93.162s-19.292-41.71-19.292-93.162 8.637-93.162 19.292-93.162c10.656 0 19.293 41.71 19.293 93.162" fill="#ffffff" data-original="#ffffff"></path></g></g></g></g></svg>