<svg width="18" height="18" viewBox="0 0 18 18" fill="none" xmlns="http://www.w3.org/2000/svg">
<path d="M8.29289 15.7071C8.68342 16.0976 9.31658 16.0976 9.70711 15.7071L16.0711 9.34315C16.4616 8.95262 16.4616 8.31946 16.0711 7.92893C15.6805 7.53841 15.0474 7.53841 14.6569 7.92893L9 13.5858L3.34315 7.92893C2.95262 7.53841 2.31946 7.53841 1.92893 7.92893C1.53841 8.31946 1.53841 8.95262 1.92893 9.34315L8.29289 15.7071ZM8 4.37114e-08L8 15L10 15L10 -4.37114e-08L8 4.37114e-08Z" fill="white"/>
<line x1="8.74228e-08" y1="17" x2="18" y2="17" stroke="white" stroke-width="2"/>
</svg>
