<svg width="26" height="26" viewBox="0 0 26 26" fill="none" xmlns="http://www.w3.org/2000/svg">
<g clip-path="url(#clip0)">
<path d="M2.83812 18.3224C4.47612 16.9379 5.41537 14.9143 5.41537 12.7703V9.75C5.41537 5.93775 8.2472 2.782 11.9154 2.25333V1.08333C11.9154 0.48425 12.4007 0 12.9987 0C13.5967 0 14.082 0.48425 14.082 1.08333V2.25333C17.7513 2.782 20.582 5.93775 20.582 9.75V12.7703C20.582 14.9143 21.5213 16.9379 23.169 18.3311C23.5904 18.6918 23.832 19.2162 23.832 19.7708C23.832 20.8162 22.9816 21.6667 21.9362 21.6667H4.0612C3.01578 21.6667 2.16537 20.8162 2.16537 19.7708C2.16537 19.2162 2.40695 18.6918 2.83812 18.3224Z" fill="#323232"/>
<path d="M12.9964 26C11.0345 26 9.39323 24.6014 9.01623 22.75H16.9766C16.5996 24.6014 14.9583 26 12.9964 26Z" fill="#323232"/>
</g>
<defs>
<clipPath id="clip0">
<rect width="26" height="26" fill="white" transform="matrix(-1 0 0 1 26 0)"/>
</clipPath>
</defs>
</svg>
