<svg width="36" height="36" viewBox="0 0 36 36" fill="none" xmlns="http://www.w3.org/2000/svg">
<path d="M29.5609 35.3837C21.8614 36.2054 14.1386 36.2054 6.43909 35.3837C3.36896 35.056 0.944 32.631 0.616333 29.5606C-0.205444 21.8611 -0.205444 14.1386 0.616333 6.43909C0.944 3.36896 3.36896 0.944 6.43909 0.616333C14.1386 -0.205444 21.8611 -0.205444 29.5606 0.616333C32.631 0.944 35.056 3.36896 35.3837 6.43909C36.2054 14.1386 36.2054 21.8611 35.3837 29.5606C35.056 32.631 32.6313 35.056 29.5609 35.3837Z" fill="#00C3FF"/>
<path d="M33.4256 7.74124C33.135 5.01691 30.9833 2.86496 28.2587 2.5741C21.4263 1.84515 14.5736 1.84515 7.7412 2.5741C5.01686 2.86496 2.86491 5.01691 2.57405 7.74124C1.84511 14.5736 1.84511 21.4264 2.57405 28.2585C2.86491 30.9831 5.01686 33.135 7.7412 33.4256C14.5736 34.1548 21.4263 34.1548 28.2584 33.4256C30.983 33.135 33.135 30.9831 33.4256 28.2585C34.1548 21.4264 34.1548 14.5736 33.4256 7.74124Z" fill="#01C4FF"/>
<path d="M0.539429 28.8144C0.564148 29.0632 0.589691 29.3121 0.616333 29.5609C0.944 32.631 3.36896 35.056 6.43936 35.3837C14.1389 36.2054 21.8614 36.2054 29.5609 35.3837C32.6313 35.056 35.056 32.631 35.3837 29.5609C35.4103 29.3121 35.4359 29.0632 35.4608 28.8144H0.539429Z" fill="#01C4FF"/>
<path d="M35.9922 16.7349L28.5196 9.26257C27.6822 9.7413 26.9442 10.0069 26.3883 10.1541C26.0757 10.2379 25.8206 10.2835 25.6371 10.3085C24.7944 9.44467 23.6178 8.90826 22.3154 8.90826C19.7528 8.90826 17.675 10.9858 17.675 13.5489C17.675 13.6414 17.6775 13.7329 17.6835 13.8241C17.6959 14.0463 17.7242 14.2646 17.7679 14.477C16.6981 14.461 13.2209 14.1754 9.90466 11.3327C9.90439 11.3327 9.90439 11.3324 9.90439 11.3324H9.90411L8.34021 9.76822C8.34021 9.76822 6.50549 12.9705 9.20291 15.4004C9.32129 15.5325 9.45148 15.6629 9.59402 15.7912C9.60529 15.8038 9.6171 15.8162 9.62836 15.8288C9.27432 15.8049 8.20947 15.6989 7.59314 15.2636C7.59314 15.2636 7.46927 17.2208 9.09991 18.6617L10.4166 19.9896C10.0156 20.0229 9.57205 20.0149 9.26361 19.8798C9.26361 19.8798 9.53662 21.0391 10.5919 21.9669L12.4365 23.8211C11.3299 24.4657 9.3927 25.2724 6.84277 25.0664L18.0326 36C21.8773 35.9989 25.722 35.7935 29.5609 35.3837C32.6313 35.056 35.0562 32.631 35.3839 29.5609C35.8395 25.29 36.042 21.0119 35.9922 16.7349Z" fill="#01C4FF"/>
<path d="M29.1574 11.0649C28.3609 11.4815 27.1612 11.6741 26.7635 11.7296C26.7602 11.7103 26.7569 11.6919 26.7536 11.6735C28.1057 10.8372 28.5197 9.26257 28.5197 9.26257C27.6822 9.7413 26.9442 10.0069 26.3883 10.1541C26.0757 10.2379 25.8206 10.2832 25.6371 10.3085C24.7945 9.4444 23.6178 8.90826 22.3154 8.90826C19.7528 8.90826 17.675 10.9855 17.675 13.5489C17.675 13.6412 17.6775 13.7329 17.6836 13.8238C17.6959 14.046 17.7242 14.2644 17.7679 14.4767C16.5275 14.4583 12.0503 14.0779 8.34024 9.76822C8.34024 9.76822 6.27426 13.3728 9.74759 15.8351C9.74759 15.8351 8.34024 15.7912 7.59317 15.2636C7.59317 15.2636 7.37344 18.7369 11.3738 19.8355C11.3738 19.8355 9.96732 20.1877 9.26337 19.8798C9.26337 19.8798 9.96704 22.8691 13.484 23.0894C13.484 23.0894 10.9616 25.3987 6.84253 25.0664C8.86841 26.3491 11.2703 27.0915 13.8455 27.0915C21.0863 27.0915 26.9563 21.2217 26.9563 13.9809C26.9563 13.8906 26.9555 13.8002 26.9536 13.7098C26.9555 13.6563 26.9563 13.603 26.9563 13.5489C26.9563 13.5113 26.9555 13.4736 26.9549 13.436C28.2936 12.5439 29.1574 11.0649 29.1574 11.0649Z" fill="white"/>
</svg>
