<svg width="19" height="44" viewBox="0 0 19 44" fill="none" xmlns="http://www.w3.org/2000/svg">
<path d="M9.5 26.5C14.4964 26.5 18.5 30.3307 18.5 35C18.5 39.6693 14.4964 43.5 9.5 43.5C4.50362 43.5 0.5 39.6693 0.5 35C0.499999 30.3307 4.50362 26.5 9.5 26.5Z" fill="#474BFF" stroke="black"/>
<circle cx="9.5" cy="26.5" r="9" transform="rotate(-90 9.5 26.5)" fill="#D94096" stroke="black"/>
<path d="M9.5 9.5C14.4964 9.5 18.5 13.3307 18.5 18C18.5 22.6693 14.4964 26.5 9.5 26.5C4.50362 26.5 0.5 22.6693 0.5 18C0.499999 13.3307 4.50362 9.5 9.5 9.5Z" fill="#FF5EC8" stroke="black"/>
<path d="M9.5 0.5C14.4964 0.499999 18.5 4.33071 18.5 9C18.5 13.6693 14.4964 17.5 9.5 17.5C4.50362 17.5 0.5 13.6693 0.5 9C0.499999 4.33071 4.50362 0.5 9.5 0.5Z" fill="#F6B545" stroke="black"/>
</svg>
