<svg width="21" height="21" viewBox="0 0 21 21" fill="none" xmlns="http://www.w3.org/2000/svg">
<path d="M3.32817 13.3282H7.56611V17.5399C7.56611 19.1747 8.89138 20.5 10.5262 20.5C12.161 20.5 13.4862 19.1747 13.4862 17.5399V13.3282H17.6718C19.2338 13.3282 20.5 12.062 20.5 10.5C20.5 8.93804 19.2338 7.67183 17.6718 7.67183H13.4862V3.46006C13.4862 1.82526 12.161 0.5 10.5262 0.5C8.89138 0.5 7.56611 1.82526 7.56611 3.46006V7.67183H3.32817C1.76621 7.67183 0.5 8.93804 0.5 10.5C0.5 12.062 1.76621 13.3282 3.32817 13.3282Z" fill="#D565C3" stroke="#F8F8F8"/>
</svg>
