<svg width="22" height="15" viewBox="0 0 22 15" fill="none" xmlns="http://www.w3.org/2000/svg">
<g clip-path="url(#clip0_365:4276)">
<path d="M22.1549 -0.167969H-0.15332V15.1681H22.1549V-0.167969Z" fill="white"/>
<path d="M4.63965 4.66537L6.39392 1.4751L4.63965 4.66537ZM5.2985 5.19732L7.05277 2.00704L5.2985 5.19732ZM5.95621 5.72926L7.71048 2.53899L5.95621 5.72926Z" fill="black"/>
<path d="M6.17468 5.90538L5.73583 5.54982L7.4901 2.35954L7.92895 2.7151L6.17468 5.90538ZM5.51697 5.37343L5.07812 5.01788L6.83239 1.8276L7.27124 2.18315L5.51697 5.37343ZM4.85926 4.84149L4.42041 4.48593L6.17468 1.29565L6.61353 1.65121L4.85926 4.84149Z" fill="black"/>
<path d="M14.2896 12.461L16.0438 9.27075L14.2896 12.461ZM14.9473 12.993L16.7015 9.8027L14.9473 12.993ZM15.605 13.5249L17.3592 10.3346L15.605 13.5249Z" fill="black"/>
<path d="M15.8252 13.7042L15.3864 13.3486L17.1407 10.1584L17.5795 10.5139L15.8252 13.7042ZM15.1675 13.1723L14.7287 12.8167L16.4829 9.62643L16.9218 9.98198L15.1675 13.1723ZM14.5087 12.6403L14.0698 12.2848L15.8241 9.09448L16.2629 9.45004L14.5087 12.6403Z" fill="black"/>
<path d="M14.7285 10.5139L16.9216 12.2847L14.7285 10.5139Z" fill="black"/>
<path d="M14.8024 10.3782L14.6562 10.644L16.8501 12.4168L16.9963 12.151L14.8024 10.3782Z" fill="white"/>
<path d="M11.0001 11.3347C12.7473 11.3347 14.1637 9.61786 14.1637 7.5C14.1637 5.38215 12.7473 3.66528 11.0001 3.66528C9.25284 3.66528 7.83643 5.38215 7.83643 7.5C7.83643 9.61786 9.25284 11.3347 11.0001 11.3347Z" fill="#CD2E3A"/>
<path d="M8.36787 5.37354C7.88318 6.25548 8.07912 7.44437 8.80672 8.03187C9.53432 8.61937 10.5152 8.38187 10.9998 7.49992C11.4845 6.61798 12.4654 6.38048 13.193 6.96798C13.9206 7.55548 14.1165 8.74437 13.6318 9.62631C12.6613 11.3874 10.6985 11.8652 9.24557 10.6902C7.79266 9.5152 7.39849 7.13465 8.36787 5.37354Z" fill="#0047A0"/>
<path d="M6.39506 13.5249L4.63965 10.3346L6.39506 13.5249ZM7.05277 12.993L5.2985 9.8027L7.05277 12.993ZM7.71048 12.461L5.95621 9.27075L7.71048 12.461Z" fill="black"/>
<path d="M6.17468 13.7042L4.42041 10.5139L4.85926 10.1584L6.61353 13.3486L6.17468 13.7042ZM6.83239 13.1723L5.07812 9.98198L5.51697 9.62643L7.27124 12.8167L6.83239 13.1723ZM7.49124 12.6403L5.73583 9.45004L6.17468 9.09448L7.92895 12.2848L7.49124 12.6403Z" fill="black"/>
<path d="M16.0438 5.72926L14.2896 2.53899L16.0438 5.72926ZM16.7015 5.19732L14.9473 2.00704L16.7015 5.19732ZM17.3604 4.66537L15.6061 1.4751L17.3604 4.66537Z" fill="black"/>
<path d="M15.8251 5.90538L14.0708 2.7151L14.5097 2.35954L16.2639 5.54982L15.8251 5.90538ZM16.4828 5.37343L14.7285 2.18315L15.1674 1.8276L16.9216 5.01788L16.4828 5.37343ZM17.1405 4.84149L15.3862 1.65121L15.8251 1.29565L17.5793 4.48593L17.1405 4.84149Z" fill="black"/>
<path d="M5.84619 11.6639L6.5039 11.132L5.84619 11.6639ZM14.7287 4.48614L15.4964 3.86531L14.7287 4.48614ZM16.1541 3.33614L16.8118 2.8042L16.1541 3.33614Z" fill="black"/>
<path d="M5.92042 11.7971L5.7749 11.5305L6.43261 10.9985L6.57813 11.2638L5.92042 11.7971ZM14.8018 4.61934L14.6563 4.35406L15.424 3.73323L15.5695 3.99851L14.8018 4.61934ZM16.2272 3.46934L16.0817 3.20406L16.7394 2.67212L16.8849 2.9374L16.2272 3.46934Z" fill="white"/>
</g>
<defs>
<clipPath id="clip0_365:4276">
<rect width="22" height="15" fill="white"/>
</clipPath>
</defs>
</svg>
