<svg width="15" height="16" viewBox="0 0 15 16" fill="none" xmlns="http://www.w3.org/2000/svg">
<g clip-path="url(#clip0_1515_12119)">
<path d="M7.5 15.5C11.6421 15.5 15 12.1421 15 8C15 3.85786 11.6421 0.5 7.5 0.5C3.35786 0.5 0 3.85786 0 8C0 12.1421 3.35786 15.5 7.5 15.5Z" fill="#00BA00"/>
<path d="M5.15812 11.658L2.41513 8.72216C2.0396 8.32023 2.06115 7.68433 2.46308 7.3088C2.86501 6.93327 3.50091 6.95488 3.87645 7.35675L5.99227 9.62128L9.34135 6.49212C9.37146 6.46395 9.40294 6.43815 9.43548 6.41441L11.0104 4.94293C11.4124 4.5674 12.0483 4.58901 12.4238 4.99094C12.7993 5.39281 12.7777 6.02878 12.3758 6.40431L7.56556 10.8987L7.56042 10.8932L5.89648 12.4479L5.15812 11.6576V11.658Z" fill="white"/>
</g>
<defs>
<clipPath id="clip0_1515_12119">
<rect width="15" height="15" fill="white" transform="translate(0 0.5)"/>
</clipPath>
</defs>
</svg>
