<svg width="38" height="40" viewBox="0 0 38 40" fill="none" xmlns="http://www.w3.org/2000/svg">
<path d="M4.96663 35.3267H28.7316L27.5966 31.6517C27.765 31.7983 37.3333 40 37.3333 40V4.12499C37.22 1.89498 35.3 -1.52588e-05 32.92 -1.52588e-05L4.97496 0.00498474C2.59663 0.00498474 0.666626 1.90332 0.666626 4.13332V31.2C0.666626 33.5517 2.59329 35.3267 4.96663 35.3267ZM22.5466 9.47165L22.4916 9.49165L22.5116 9.47165H22.5466ZM9.82829 11.5867C12.8833 9.36332 15.715 9.46999 15.715 9.46999L15.9433 9.69499C12.205 10.5867 10.51 12.2567 10.51 12.2567C10.6833 12.22 18.2316 7.86499 27.3783 12.3667C27.3783 12.3667 25.68 10.805 22.1716 9.80499L22.4816 9.49999C22.9666 9.50165 25.5333 9.59165 28.28 11.6C28.28 11.6 31.3533 16.85 31.3533 23.3C31.2516 23.1767 29.4466 26.0767 24.8016 26.1767C24.8016 26.1767 24.015 25.2867 23.455 24.51C26.1716 23.73 27.1883 22.17 27.1883 22.17C21.9 25.5 17.265 24.98 11.72 22.73C11.6683 22.73 11.645 22.7067 11.6183 22.68V22.67C11.5916 22.645 11.5683 22.62 11.5166 22.62H11.4166C11.0766 22.3967 10.85 22.2867 10.85 22.2867C10.85 22.2867 11.865 23.8467 14.4733 24.6267C13.7883 25.4083 13.11 26.2967 13.11 26.2967C8.46663 26.1867 6.77329 23.2867 6.77329 23.2867C6.77329 16.8267 9.82829 11.5867 9.82829 11.5867Z" fill="#5C6BC0"/>
<path d="M22.8465 21.285C24.0315 21.285 24.9965 20.285 24.9965 19.0516C24.9965 17.8267 24.0365 16.8267 22.8465 16.8267V16.8317C21.6665 16.8317 20.6999 17.8283 20.6965 19.0616C20.6965 20.285 21.6615 21.285 22.8465 21.285Z" fill="#5C6BC0"/>
<path d="M15.1499 21.285C16.3349 21.285 17.2999 20.285 17.2999 19.0516C17.2999 17.8267 16.3415 16.8267 15.1565 16.8267L15.1499 16.8317C13.9649 16.8317 12.9999 17.8283 12.9999 19.0616C12.9999 20.285 13.9649 21.285 15.1499 21.285Z" fill="#5C6BC0"/>
</svg>
