<svg width="25" height="24" viewBox="0 0 25 24" fill="none" xmlns="http://www.w3.org/2000/svg">
<path d="M16.1572 6.84534L10.8767 14.4971L10.1284 20.6185L17.948 21.5987L19.2505 10.7818L16.1572 6.84534Z" fill="#FF641A"/>
<path d="M21.607 2.88017C21.3109 2.58403 20.9032 2.41989 20.4859 2.40159C20.0318 2.38168 19.5663 2.5346 19.2207 2.88017L15.3174 6.79642L15.7042 7.18327L16.1128 7.59184L17.2719 6.41942C18.3718 7.14656 19.8577 7.01572 20.8116 6.06189L21.607 5.26647C22.2651 4.60834 22.2651 3.53826 21.607 2.88017ZM20.8116 4.47101L20.0162 5.26643C19.497 5.78555 18.7225 5.89539 18.0952 5.59603L20.0162 3.67559C20.2359 3.45588 20.5919 3.45588 20.8116 3.67559C21.0308 3.89478 21.0308 4.25182 20.8116 4.47101Z" fill="#516373"/>
<path d="M17.2703 6.42017C18.3701 7.1473 19.8561 7.01646 20.81 6.06264L21.6054 5.26722C22.2635 4.60912 22.2635 3.53905 21.6054 2.88095C21.3092 2.58481 20.9016 2.42067 20.4843 2.40237L15.7026 7.18405L16.1112 7.59262L17.2703 6.42017ZM20.0146 3.67637C20.2343 3.45666 20.5903 3.45666 20.81 3.67637C21.0292 3.89556 21.0292 4.2526 20.81 4.47179L20.0146 5.26722C19.4955 5.78633 18.7209 5.89617 18.0936 5.59681L20.0146 3.67637Z" fill="#3E4D59"/>
<path d="M16.2495 6.63742H10.7087L2.8999 14.4191L5.68416 17.2033L8.46838 19.9876L16.2501 12.2005V6.63742H16.2495Z" fill="#FFE680"/>
<path d="M16.251 12.2005V6.63742L5.68506 17.2033L8.46928 19.9876L16.251 12.2005Z" fill="#FFC550"/>
<path d="M13.3287 10.3754L12.9205 9.96711L12.5333 9.57996L11.6574 10.4559C11.0317 10.1611 10.2668 10.2565 9.74936 10.7731C9.09487 11.4276 9.09157 12.4897 9.73886 13.1487C9.98516 13.3995 9.95535 13.7493 9.74936 13.9553C9.53182 14.1728 9.16855 14.1812 8.9437 13.9438C8.73531 13.7238 8.73839 13.3754 8.95394 13.1599L8.15743 12.3644C7.64176 12.8814 7.54632 13.6461 7.84108 14.2722L6.96484 15.1484L7.352 15.5355L7.76026 15.9438L8.63609 15.068C9.36573 15.4127 10.0872 15.2083 10.5448 14.7507C11.1502 14.1453 11.2583 13.1185 10.5346 12.353C10.3262 12.1325 10.3293 11.7846 10.5448 11.5691C10.7598 11.3529 11.1096 11.3504 11.3291 11.5585C11.5614 11.7788 11.5612 12.143 11.3402 12.3645L12.1356 13.1599C12.6527 12.6428 12.7484 11.8776 12.453 11.2511L13.3287 10.3754Z" fill="#FF7B4A"/>
<path d="M11.3402 12.3651L12.1356 13.1605C12.6527 12.6435 12.7484 11.8783 12.453 11.2517L13.3287 10.376L12.9205 9.96774L11.3291 11.5591C11.5613 11.7794 11.5612 12.1436 11.3402 12.3651Z" fill="#FF435B"/>
<path d="M8.63565 15.069C9.3653 15.4137 10.0868 15.2093 10.5444 14.7517C11.1498 14.1463 11.2578 13.1195 10.5342 12.354L9.73843 13.1497C9.98473 13.4006 9.95492 13.7503 9.74893 13.9563C9.53139 14.1739 9.16812 14.1823 8.94327 13.9449L7.35156 15.5366L7.75983 15.9449L8.63565 15.069Z" fill="#FF435B"/>
</svg>
