<svg width="99" height="66" viewBox="0 0 99 66" fill="none" xmlns="http://www.w3.org/2000/svg">
<path d="M5.37763 65.451H92.6454C95.6575 65.4684 98.1136 63.0409 98.1314 60.0284C98.1399 58.563 97.5583 57.1561 96.5179 56.1242L74.701 34.3073C72.5735 32.1924 69.138 32.1924 67.0105 34.3073L59.92 41.3978L41.9756 23.4533C39.8481 21.3385 36.4126 21.3385 34.2851 23.4533L1.55967 56.1788C-0.549078 58.3298 -0.515332 61.783 1.63568 63.8918C2.63654 64.8728 3.97623 65.4312 5.37763 65.451Z" fill="#797979"/>
<path d="M76.2835 21.817C82.3081 21.817 87.192 16.9331 87.192 10.9085C87.192 4.88389 82.3081 0 76.2835 0C70.2589 0 65.375 4.88389 65.375 10.9085C65.375 16.9331 70.2589 21.817 76.2835 21.817Z" fill="#797979"/>
</svg>
