<svg width="34" height="34" viewBox="0 0 34 34" fill="none" xmlns="http://www.w3.org/2000/svg">
<circle cx="17" cy="17" r="16" stroke="#2A2A2A" stroke-width="2"/>
<path d="M6 14C6 13.4477 6.35508 13 6.7931 13H28.2069C28.6449 13 29 13.4477 29 14C29 14.5523 28.6449 15 28.2069 15H6.7931C6.35508 15 6 14.5523 6 14Z" fill="#2A2A2A"/>
<path d="M6 21C6 20.4477 6.35508 20 6.7931 20H28.2069C28.6449 20 29 20.4477 29 21C29 21.5523 28.6449 22 28.2069 22H6.7931C6.35508 22 6 21.5523 6 21Z" fill="#2A2A2A"/>
<path d="M21 14C21 16.2091 19.2091 18 17 18C14.7909 18 13 16.2091 13 14C13 11.7909 14.7909 10 17 10C19.2091 10 21 11.7909 21 14Z" fill="#F4F4F4"/>
<path fill-rule="evenodd" clip-rule="evenodd" d="M17 16C18.1046 16 19 15.1046 19 14C19 12.8954 18.1046 12 17 12C15.8954 12 15 12.8954 15 14C15 15.1046 15.8954 16 17 16ZM17 18C19.2091 18 21 16.2091 21 14C21 11.7909 19.2091 10 17 10C14.7909 10 13 11.7909 13 14C13 16.2091 14.7909 18 17 18Z" fill="#2A2A2A"/>
<path d="M29 21C29 23.2091 27.2091 25 25 25C22.7909 25 21 23.2091 21 21C21 18.7909 22.7909 17 25 17C27.2091 17 29 18.7909 29 21Z" fill="#F4F4F4"/>
<path fill-rule="evenodd" clip-rule="evenodd" d="M25 23C26.1046 23 27 22.1046 27 21C27 19.8954 26.1046 19 25 19C23.8954 19 23 19.8954 23 21C23 22.1046 23.8954 23 25 23ZM25 25C27.2091 25 29 23.2091 29 21C29 18.7909 27.2091 17 25 17C22.7909 17 21 18.7909 21 21C21 23.2091 22.7909 25 25 25Z" fill="#2A2A2A"/>
</svg>
