<svg width="32" height="32" viewBox="0 0 32 32" fill="none" xmlns="http://www.w3.org/2000/svg">
<g clip-path="url(#clip0)">
<path d="M13.7125 19.3574C14.1693 20.5638 15.4634 21.1858 16.6138 20.7502L18.9611 19.8614C19.9618 19.4825 20.4532 18.3234 20.0566 17.276C19.6246 16.135 18.9766 15.9206 18.1387 15.9385L13.874 16.0563C13.0361 16.0742 12.3881 15.8597 11.9561 14.7188C11.5595 13.6713 12.0509 12.5122 13.0516 12.1333L15.399 11.2445C16.5493 10.809 17.8434 11.431 18.3002 12.6374" stroke="#EFCC15" stroke-width="1.5" stroke-linecap="round" stroke-linejoin="round"/>
<path d="M13.875 10.3906L18.1243 21.6131" stroke="#EFCC15" stroke-width="1.5" stroke-linecap="round" stroke-linejoin="round"/>
<path d="M19.5416 25.3544C24.7066 23.3987 27.3083 17.6262 25.3526 12.4613C23.3969 7.29627 17.6244 4.69464 12.4595 6.65031C7.29447 8.60601 4.69282 14.3785 6.64851 19.5434C8.60419 24.7084 14.3767 27.3101 19.5416 25.3544Z" stroke="#EFCC15" stroke-width="1.5" stroke-linecap="round" stroke-linejoin="round"/>
</g>
<defs>
<clipPath id="clip0">
<rect width="24" height="24" fill="white" transform="translate(0.52832 9.02734) rotate(-20.7389)"/>
</clipPath>
</defs>
</svg>
