<svg width="12" height="3" viewBox="0 0 12 3" fill="none" xmlns="http://www.w3.org/2000/svg">
<path d="M0 1.29733C0 0.580836 0.580837 0 1.29733 0C2.01383 0 2.59467 0.580836 2.59467 1.29733V1.70267C2.59467 2.41916 2.01383 3 1.29733 3C0.580837 3 0 2.41916 0 1.70267V1.29733Z" fill="black"/>
<path d="M4.70267 1.29734C4.70267 0.580837 5.2835 0 6 0C6.7165 0 7.29733 0.580837 7.29733 1.29734V1.70266C7.29733 2.41916 6.7165 3 6 3C5.2835 3 4.70267 2.41916 4.70267 1.70266V1.29734Z" fill="black"/>
<path d="M9.40533 1.29734C9.40533 0.580837 9.98617 0 10.7027 0C11.4192 0 12 0.580837 12 1.29734V1.70266C12 2.41916 11.4192 3 10.7027 3C9.98617 3 9.40533 2.41916 9.40533 1.70266V1.29734Z" fill="black"/>
</svg>
