<svg width="22" height="26" viewBox="0 0 22 26" fill="none" xmlns="http://www.w3.org/2000/svg">
<path d="M0.838116 18.3224C2.47612 16.9379 3.41537 14.9143 3.41537 12.7703V9.75C3.41537 5.93775 6.2472 2.782 9.91537 2.25333V1.08333C9.91537 0.48425 10.4007 0 10.9987 0C11.5967 0 12.082 0.48425 12.082 1.08333V2.25333C15.7513 2.782 18.582 5.93775 18.582 9.75V12.7703C18.582 14.9143 19.5213 16.9379 21.169 18.3311C21.5904 18.6918 21.832 19.2162 21.832 19.7708C21.832 20.8162 20.9816 21.6667 19.9362 21.6667H2.0612C1.01578 21.6667 0.165367 20.8162 0.165367 19.7708C0.165367 19.2162 0.40695 18.6918 0.838116 18.3224Z" fill="#323232"/>
<path d="M10.9964 26C9.03448 26 7.39323 24.6014 7.01623 22.75H14.9766C14.5996 24.6014 12.9583 26 10.9964 26Z" fill="#323232"/>
</svg>
