<svg width="32" height="32" viewBox="0 0 32 32" fill="none" xmlns="http://www.w3.org/2000/svg">
<g clip-path="url(#clip0)">
<path d="M22.8571 5.71484H3.42857C1.53502 5.71484 0 7.24987 0 9.14341V28.5719C0 30.4655 1.53502 32.0005 3.42857 32.0005H22.8571C24.7507 32.0005 26.2857 30.4655 26.2857 28.5719V9.14341C26.2857 7.24987 24.7507 5.71484 22.8571 5.71484Z" fill="black" fill-opacity="0.69"/>
<path d="M28.5703 2.21385e-09H7.99888C6.11558 -6.6962e-05 4.58478 1.51902 4.57031 3.40225C4.57031 3.41143 4.57031 3.41939 4.57031 3.42857H22.856C26.0104 3.43232 28.5665 5.98848 28.5703 9.14283V27.4286C28.5794 27.4286 28.5874 27.4286 28.5966 27.4286C30.4799 27.4141 31.9989 25.8833 31.9988 24V3.42857C31.9988 1.53502 30.4638 2.21385e-09 28.5703 2.21385e-09Z" fill="black" fill-opacity="0.69"/>
</g>
<defs>
<clipPath id="clip0">
<rect width="32" height="32" fill="white"/>
</clipPath>
</defs>
</svg>
