<?xml version="1.0" standalone="no"?>
<!DOCTYPE svg PUBLIC "-//W3C//DTD SVG 20010904//EN"
 "http://www.w3.org/TR/2001/REC-SVG-20010904/DTD/svg10.dtd">
<svg version="1.0" xmlns="http://www.w3.org/2000/svg"
 width="998.000000pt" height="994.000000pt" viewBox="0 0 998.000000 994.000000"
 preserveAspectRatio="xMidYMid meet">

<g transform="translate(0.000000,994.000000) scale(0.100000,-0.100000)"
fill="#000000" stroke="none">
<path d="M4501 8659 c-557 -43 -1027 -254 -1323 -595 -37 -43 -68 -83 -67 -89
0 -5 101 -94 225 -197 l225 -187 88 67 c49 37 127 86 173 108 117 59 470 169
603 189 493 73 987 -30 1364 -285 91 -61 115 -83 125 -115 8 -28 -9 -57 -108
-178 l-87 -106 33 -5 c35 -5 1120 -27 1125 -22 1 1 -49 216 -111 477 -152 630
-154 641 -158 645 -2 1 -33 -34 -68 -79 -106 -134 -139 -167 -170 -167 -18 0
-58 23 -116 66 -465 343 -1124 521 -1753 473z"/>
<path d="M4321 6614 c-58 -24 -106 -46 -109 -48 -2 -3 14 -66 37 -141 30 -103
38 -142 31 -160 -5 -13 -43 -47 -85 -75 -156 -105 -291 -241 -391 -392 -30
-46 -53 -70 -70 -74 -18 -5 -70 7 -157 34 -72 23 -135 38 -139 34 -8 -8 -98
-221 -98 -232 0 -4 55 -36 121 -71 67 -35 128 -74 136 -86 14 -20 13 -32 -3
-110 -26 -120 -26 -452 -1 -562 24 -105 19 -112 -131 -191 -67 -36 -122 -69
-122 -75 0 -17 92 -235 100 -235 4 0 66 18 139 40 100 30 138 37 156 30 13 -5
47 -43 75 -85 105 -156 241 -291 392 -391 46 -30 70 -53 74 -70 5 -18 -7 -69
-34 -157 -22 -72 -39 -134 -37 -137 6 -10 235 -103 240 -98 3 3 34 58 69 124
78 146 86 152 188 129 42 -10 143 -19 238 -22 157 -5 252 3 392 33 39 9 71
-29 140 -163 l58 -111 117 50 c65 27 120 51 122 53 2 2 -15 65 -38 140 -47
160 -46 169 34 220 163 105 319 262 428 432 39 61 57 63 211 15 72 -23 134
-38 138 -34 8 8 98 221 98 232 0 4 -55 36 -121 71 -67 35 -128 74 -136 86 -14
20 -13 32 3 110 26 122 27 442 1 557 -24 110 -20 116 131 196 67 36 122 70
122 75 0 17 -92 235 -100 235 -4 0 -66 -18 -139 -40 -99 -29 -138 -37 -155
-30 -14 5 -52 50 -87 102 -81 119 -238 275 -356 356 -65 44 -95 71 -99 89 -5
17 7 70 34 157 23 72 38 134 34 138 -8 8 -221 98 -232 98 -4 0 -36 -55 -71
-121 -35 -67 -74 -128 -87 -136 -20 -14 -31 -13 -105 2 -133 27 -279 30 -472
6 -137 -16 -174 -18 -195 -8 -17 8 -45 51 -90 135 -40 75 -71 122 -80 121 -8
0 -62 -20 -119 -45z m883 -764 c281 -72 514 -289 607 -566 139 -412 -53 -865
-445 -1054 -93 -45 -223 -80 -293 -80 -91 0 -417 57 -464 80 -327 165 -524
523 -481 875 26 206 105 367 252 515 137 137 299 221 482 249 89 14 249 5 342
-19z"/>
<path d="M1918 5771 c-3 -119 -13 -143 -66 -156 -15 -3 -61 -22 -103 -41 -53
-23 -83 -32 -97 -27 -11 5 -52 38 -90 76 -38 37 -74 67 -79 67 -4 0 -48 -39
-96 -88 l-87 -87 75 -75 c67 -66 75 -79 75 -112 0 -20 -4 -39 -9 -42 -5 -3
-21 -41 -37 -83 -40 -115 -43 -117 -174 -121 l-110 -4 0 -124 0 -124 94 0
c114 0 142 -9 160 -52 61 -145 76 -186 76 -208 0 -18 -21 -47 -75 -100 l-75
-75 92 -92 93 -93 76 76 c88 87 91 88 209 40 153 -63 150 -58 150 -202 l0 -94
124 0 124 0 4 110 c4 131 6 134 121 174 42 16 80 32 83 37 3 5 22 9 42 9 33 0
46 -8 112 -75 l75 -75 87 87 c49 48 88 92 88 98 0 6 -30 40 -66 75 -90 89 -92
95 -50 188 19 43 38 89 41 104 13 53 37 63 156 66 l109 4 0 124 0 124 -101 0
c-55 0 -109 5 -119 10 -10 6 -99 112 -196 236 -98 125 -192 235 -209 246 -16
10 -54 26 -83 35 -80 26 -86 37 -90 164 l-4 109 -123 0 -123 0 -4 -109z m213
-395 c89 -19 141 -47 211 -114 175 -167 177 -440 5 -613 -248 -247 -667 -109
-729 241 -38 221 128 452 352 489 78 12 87 12 161 -3z"/>
<path d="M7808 5771 c-3 -119 -13 -143 -66 -156 -15 -3 -61 -22 -104 -41 -93
-42 -99 -40 -188 50 -35 36 -69 66 -75 66 -13 0 -175 -162 -175 -175 0 -6 30
-40 66 -75 90 -89 92 -95 50 -188 -19 -43 -38 -89 -41 -105 -14 -53 -46 -67
-161 -67 l-104 0 0 -124 0 -124 109 -4 c119 -3 143 -13 156 -66 3 -15 18 -52
31 -82 24 -51 41 -67 256 -234 131 -103 234 -190 239 -203 5 -14 9 -67 9 -119
l0 -94 125 0 125 0 0 94 c0 144 -3 139 150 202 118 48 121 47 209 -40 l76 -76
93 93 92 92 -75 75 c-54 53 -75 82 -75 100 0 22 15 63 76 208 18 43 46 52 160
52 l94 0 0 124 0 124 -110 4 c-131 4 -134 6 -174 121 -16 42 -32 80 -37 83 -5
3 -9 22 -9 42 0 33 8 46 75 112 l75 75 -87 87 c-48 49 -92 88 -98 88 -6 0 -40
-30 -75 -66 -87 -88 -96 -91 -175 -55 -35 17 -82 35 -104 42 -68 20 -76 36
-79 160 l-4 109 -123 0 -123 0 -4 -109z m215 -396 c175 -37 309 -178 339 -357
46 -278 -212 -536 -490 -490 -234 39 -397 258 -362 486 28 183 168 330 347
365 69 13 90 12 166 -4z"/>
<path d="M3105 2754 c4 -16 56 -234 116 -484 61 -250 119 -490 129 -534 11
-43 21 -80 22 -82 2 -2 24 22 48 54 25 31 71 87 103 125 76 88 88 89 204 1
282 -213 662 -369 1068 -439 721 -124 1422 33 1864 418 78 67 211 215 210 232
0 6 -101 94 -225 197 l-225 187 -88 -67 c-124 -93 -224 -140 -462 -216 -268
-84 -371 -101 -634 -100 -212 1 -312 13 -496 59 -187 48 -383 134 -537 236
-125 84 -151 115 -133 162 5 12 50 73 100 134 l91 112 -32 5 c-18 3 -208 8
-423 11 -214 3 -462 8 -549 12 l-159 6 8 -29z"/>
<path d="M2493 3 c1373 -2 3621 -2 4995 0 1373 1 249 2 -2498 2 -2747 0 -3871
-1 -2497 -2z"/>
</g>
</svg>
