<svg width="25" height="24" viewBox="0 0 25 24" fill="none" xmlns="http://www.w3.org/2000/svg">
<g clip-path="url(#clip0_184:3062)">
<path d="M7.59765 10.3766L2.35645 20.2512L7.11593 19.8115L9.41951 24L14.6607 14.1253L7.59765 10.3766Z" fill="#E95454"/>
<path d="M8.19761 21.1249C8.34468 20.809 8.19085 20.4316 7.88321 20.268L7.58157 20.1074C7.27993 19.9356 7.16512 19.5537 7.32945 19.2445C7.49603 18.9301 7.88771 18.8101 8.20211 18.9767L9.05451 19.4291C9.31788 19.5687 9.64804 19.4674 9.78385 19.2025L9.80486 19.162C9.96093 18.9121 9.86864 18.582 9.60902 18.4447L7.05932 17.0918C6.74868 16.9267 6.59636 16.5508 6.74117 16.2341C6.901 15.8972 7.30469 15.7644 7.62959 15.937L9.9947 17.1923C10.2581 17.3319 10.5882 17.2306 10.7278 16.9672L10.7413 16.9327L10.7451 16.9252C10.8959 16.6491 10.7901 16.3024 10.5117 16.1546L9.18507 15.4508C8.87442 15.2857 8.7221 14.9097 8.86917 14.5893C9.0275 14.2562 9.43269 14.1196 9.75759 14.2922L11.223 15.0703C11.4969 15.2159 11.8241 15.0943 11.9659 14.8182C11.9681 14.8145 11.9681 14.8145 11.9696 14.8107C11.9719 14.807 11.9719 14.807 11.9734 14.8032C12.1227 14.5308 12.0402 14.1917 11.7655 14.0468L10.1845 13.208C9.87764 13.0451 9.72532 12.6692 9.87014 12.3526C10.03 12.0156 10.4337 11.8828 10.7586 12.0554L14.6589 14.1256L9.41768 24.0003L7.97325 21.3748C8.06629 21.3118 8.14733 21.2337 8.19761 21.1249Z" fill="#ED6362"/>
<path d="M17.4024 10.3766L22.6436 20.2512L17.8841 19.8115L15.5806 24L10.3394 14.1253L17.4024 10.3766Z" fill="#ED6362"/>
<path d="M16.8019 21.1239C16.6548 20.808 16.8086 20.4306 17.1163 20.267L17.4179 20.1064C17.7196 19.9346 17.8344 19.5527 17.67 19.2435C17.5035 18.9291 17.1118 18.8091 16.7974 18.9756L15.945 19.4281C15.6816 19.5677 15.3514 19.4664 15.2156 19.2015L15.1946 19.161C15.0385 18.9111 15.1308 18.581 15.3905 18.4436L17.9409 17.09C18.2516 16.9249 18.4039 16.549 18.2591 16.2324C18.0992 15.8954 17.6955 15.7626 17.3706 15.9352L15.0055 17.1906C14.7422 17.3301 14.412 17.2288 14.2724 16.9654L14.2589 16.9309L14.2552 16.9234C14.1044 16.6473 14.2102 16.3006 14.4885 16.1528L15.8152 15.449C16.1258 15.2839 16.2781 14.908 16.1311 14.5876C15.9727 14.2544 15.5675 14.1179 15.2426 14.2904L13.7757 15.0701C13.5018 15.2156 13.1747 15.0941 13.0329 14.8179C13.0306 14.8142 13.0306 14.8142 13.0291 14.8104C13.0269 14.8067 13.0269 14.8067 13.0254 14.8029C12.876 14.5306 12.9586 14.1914 13.2332 14.0466L14.8142 13.2077C15.1211 13.0449 15.2734 12.6689 15.1286 12.3523C14.9688 12.0154 14.5651 11.8826 14.2402 12.0551L10.3398 14.1254L15.5811 24L17.0255 21.3745C16.9332 21.3107 16.8521 21.2327 16.8019 21.1239Z" fill="#E95454"/>
<path d="M12.4991 17.5147C17.3356 17.5147 21.2564 13.5939 21.2564 8.75735C21.2564 3.9208 17.3356 0 12.4991 0C7.6625 0 3.7417 3.9208 3.7417 8.75735C3.7417 13.5939 7.6625 17.5147 12.4991 17.5147Z" fill="#FFCC5B"/>
<path d="M13.6887 7.75209H8.13909C7.70764 7.75209 7.35347 7.39793 7.35347 6.96648L7.35948 6.91245V6.90045C7.35347 6.44498 7.7249 6.07281 8.18111 6.07281H12.0274C12.5369 6.07281 12.9871 5.69538 13.0171 5.18514C13.0411 4.65164 12.6157 4.20143 12.0814 4.20143H8.00703C7.55757 4.20143 7.22141 3.824 7.22741 3.37379C7.22741 3.36779 7.22741 3.36779 7.22741 3.36179C7.22741 3.35578 7.22741 3.35578 7.22741 3.34978C7.22141 2.90032 7.55682 2.52214 8.00703 2.52214H12.2705C12.774 2.52214 13.2242 2.14472 13.2542 1.64048C13.2783 1.10098 12.8528 0.656769 12.3186 0.656769H9.19634C6.01259 1.96913 3.76904 5.0996 3.76904 8.75682C3.76904 12.414 6.01259 15.5437 9.19709 16.8546H13.1612C13.6647 16.8546 14.1149 16.4772 14.1449 15.9729C14.1689 15.4334 13.7435 14.99 13.2092 14.99L8.6996 14.9892C8.1676 14.9892 7.73915 14.5443 7.76767 14.0055C7.79393 13.5013 8.24714 13.1224 8.75213 13.1224H10.5004C11.0032 13.1081 11.4091 12.6962 11.4091 12.1897C11.4091 11.6742 10.9897 11.254 10.4734 11.254H7.82319C7.39174 11.254 7.03757 10.9006 7.04358 10.4684V10.4023C7.01356 9.97689 7.35572 9.61672 7.78117 9.61672H13.6347C14.1442 9.61672 14.5944 9.23929 14.6244 8.73506C14.6484 8.1963 14.2222 7.75209 13.6887 7.75209Z" fill="#FDBC4B"/>
<path d="M12.4992 15.0078C9.05211 15.0078 6.24805 12.203 6.24805 8.75659C6.24805 5.31023 9.05211 2.50616 12.4992 2.50616C15.9463 2.50616 18.7504 5.31098 18.7504 8.75734C18.7504 12.2037 15.9463 15.0078 12.4992 15.0078Z" fill="#FFDB70"/>
<path d="M9.48904 11.2306C9.39075 11.3199 9.33297 11.4264 9.2872 11.539C9.24368 11.6523 9.21216 11.7716 9.22042 11.9051C9.22942 12.0395 9.2842 12.1873 9.2917 12.3201C9.2932 12.3373 9.2887 12.3539 9.28945 12.3704C9.03733 12.0372 8.82198 11.6838 8.64415 11.3161C8.64865 11.2418 8.6599 11.1713 8.68692 11.109C8.73044 11.001 8.82273 10.9199 8.88126 10.8216C8.93903 10.7233 8.96755 10.6108 8.99231 10.496C9.01482 10.3797 9.03283 10.2619 9.02157 10.1238C9.01107 10.1171 8.99981 10.1103 8.98931 10.1028C8.8775 10.1621 8.80022 10.2454 8.73269 10.3369C8.66816 10.4299 8.61263 10.5305 8.59162 10.6536C8.57211 10.7774 8.59162 10.9237 8.56986 11.0445C8.56611 11.0677 8.5556 11.088 8.5496 11.1105C8.38752 10.7428 8.26147 10.3624 8.17217 9.97449C8.19243 9.89045 8.2202 9.81241 8.26597 9.75088C8.329 9.66309 8.43405 9.61132 8.50908 9.53628C8.58337 9.45975 8.63214 9.3637 8.67716 9.26315C8.72068 9.16036 8.7597 9.05531 8.77321 8.92324C8.7642 8.91424 8.7552 8.90524 8.74619 8.89623C8.62914 8.92399 8.53985 8.98327 8.45881 9.05155C8.37927 9.12134 8.30799 9.20238 8.26372 9.30968C8.22095 9.41848 8.21119 9.55804 8.16617 9.66309C8.15492 9.6916 8.13691 9.71336 8.1219 9.73888C8.04837 9.3547 8.0101 8.96451 8.00785 8.57358C8.04762 8.48129 8.09414 8.39725 8.16167 8.34172C8.2382 8.27569 8.34626 8.25468 8.43104 8.20291C8.51508 8.15038 8.57886 8.07085 8.63964 7.98756C8.69892 7.90127 8.75445 7.81047 8.79121 7.68741C8.78446 7.67616 8.77771 7.66565 8.77095 7.6544C8.6554 7.6514 8.56161 7.68666 8.47307 7.73094C8.38602 7.77821 8.30349 7.83523 8.24271 7.92678C8.18193 8.01907 8.14741 8.14738 8.08513 8.23442C8.06412 8.26519 8.03786 8.2877 8.01235 8.31171C8.02586 7.92978 8.07313 7.5486 8.15417 7.17192C8.15792 7.16592 8.16167 7.16067 8.16542 7.15467C8.2262 7.06237 8.29373 6.98058 8.37852 6.93931C8.46181 6.89579 8.56536 6.90405 8.6539 6.87553C8.74169 6.84627 8.81523 6.78624 8.88726 6.71946C8.95779 6.65043 9.02607 6.57614 9.08385 6.46434C9.07935 6.45234 9.0756 6.43958 9.0711 6.42682C8.9653 6.39606 8.87225 6.40732 8.78221 6.42833C8.69292 6.45234 8.60588 6.4876 8.53234 6.56039C8.45881 6.63467 8.40178 6.74948 8.3275 6.81551C8.29523 6.84627 8.25997 6.86653 8.2232 6.88604C8.32224 6.51236 8.45656 6.14469 8.62464 5.78828C8.62764 5.79278 8.63139 5.79653 8.63439 5.80103C8.64865 5.78602 8.66365 5.77177 8.67791 5.75676C8.75295 5.68248 8.83098 5.6202 8.91577 5.60144C9.00056 5.57968 9.09286 5.61344 9.1784 5.60669C9.26394 5.59919 9.34347 5.55792 9.42301 5.50914C9.5018 5.45737 9.57983 5.39959 9.65637 5.30205C9.65562 5.28854 9.65412 5.27503 9.65337 5.26228C9.56408 5.2075 9.47779 5.19625 9.39075 5.19625C9.30445 5.1985 9.21816 5.21276 9.13563 5.26678C9.05309 5.32231 8.97655 5.4206 8.89551 5.46712C8.85574 5.49189 8.81372 5.50614 8.77171 5.51515C8.77321 5.50689 8.77321 5.49939 8.77471 5.49114C9.04783 4.9839 9.39525 4.50442 9.8177 4.06772C9.41776 4.45415 9.07785 4.88035 8.79722 5.33431C8.79797 5.32081 8.80397 5.30505 8.80397 5.29154C8.81072 5.194 8.81523 5.0972 8.80622 5.00566C8.77696 4.82632 8.72818 4.65299 8.59537 4.50667C8.58112 4.51193 8.56686 4.51718 8.5526 4.52243C8.41154 4.7708 8.37477 4.98765 8.37402 5.18574C8.38002 5.28254 8.40178 5.37108 8.43104 5.45587C8.45506 5.54366 8.49858 5.62095 8.5526 5.69223C8.56011 5.70273 8.56761 5.71249 8.57586 5.72299C8.41529 6.02839 8.28022 6.34504 8.17142 6.66844C8.17067 6.66544 8.17142 6.66168 8.17067 6.65793C8.14891 6.55814 8.1279 6.45684 8.09564 6.36304C8.0206 6.18221 7.92906 6.01038 7.76248 5.88207C7.74973 5.89032 7.73772 5.89858 7.72496 5.90683C7.64918 6.19196 7.66719 6.42532 7.71821 6.63092C7.74822 6.72997 7.794 6.81776 7.84502 6.9003C7.89154 6.98659 7.95532 7.05862 8.02736 7.1224C8.02961 7.1239 8.03186 7.12615 8.03336 7.12765C7.95082 7.4488 7.89229 7.77521 7.85928 8.10461C7.81501 8.00782 7.76999 7.91177 7.71596 7.82548C7.5944 7.6529 7.46009 7.49157 7.262 7.38802C7.25149 7.39853 7.24099 7.40903 7.23048 7.42029C7.22598 7.72943 7.30327 7.96655 7.40681 8.16914C7.46309 8.26594 7.53137 8.34772 7.60416 8.42276C7.66794 8.49629 7.74522 8.55182 7.82701 8.60134C7.81876 8.92625 7.83376 9.25265 7.87353 9.5768C7.8075 9.49276 7.74222 9.40797 7.67019 9.33519C7.50286 9.18212 7.32578 9.04105 7.10067 8.96827C7.09242 8.98102 7.08491 8.99378 7.07666 9.00653C7.14869 9.32393 7.28826 9.55279 7.44583 9.73963C7.52762 9.82817 7.61841 9.8987 7.71221 9.96098C7.78724 10.0173 7.87128 10.0533 7.95682 10.0855C8.0206 10.4022 8.10839 10.7151 8.21945 11.0227C8.13466 10.9552 8.05137 10.8862 7.96358 10.8284C7.75198 10.7046 7.53512 10.5935 7.28601 10.5605C7.28076 10.5748 7.27625 10.589 7.271 10.6033C7.42482 10.9132 7.62592 11.1195 7.83677 11.2786C7.94407 11.3529 8.05587 11.4062 8.16917 11.4512C8.25171 11.4887 8.338 11.5052 8.42354 11.521C8.55861 11.8166 8.71768 12.1047 8.89926 12.3824C8.79872 12.3343 8.69892 12.2833 8.59837 12.2458C8.34626 12.1633 8.09264 12.092 7.82626 12.1032C7.82476 12.119 7.82326 12.134 7.82176 12.1498C8.05962 12.4349 8.32299 12.6037 8.58412 12.7223C8.71543 12.7755 8.84674 12.8071 8.9773 12.8296C9.06284 12.8483 9.14688 12.8453 9.23167 12.8461C9.37274 13.0262 9.52506 13.2002 9.68713 13.3683C9.77267 13.2828 9.85896 13.1965 9.9445 13.111C9.75767 12.9309 9.58434 12.741 9.42376 12.5444C9.41551 12.4799 9.41251 12.4176 9.42151 12.3584C9.43727 12.233 9.50855 12.125 9.54307 12.0079C9.57608 11.8901 9.57833 11.7656 9.57683 11.6395C9.57308 11.5127 9.56483 11.3859 9.52431 11.2456C9.51305 11.2396 9.50105 11.2351 9.48904 11.2306Z" fill="#ED6362"/>
<path d="M15.514 11.2307C15.6123 11.32 15.6701 11.4266 15.7159 11.5391C15.7594 11.6524 15.7909 11.7717 15.7826 11.9053C15.7736 12.0396 15.7189 12.1874 15.7114 12.3202C15.7099 12.3375 15.7144 12.354 15.7136 12.3705C15.9657 12.0373 16.1811 11.6839 16.3589 11.3163C16.3544 11.242 16.3432 11.1714 16.3161 11.1092C16.2726 11.0011 16.1803 10.9201 16.1218 10.8218C16.064 10.7235 16.0355 10.6109 16.0108 10.4961C15.9882 10.3798 15.9702 10.262 15.9815 10.1239C15.992 10.1172 16.0033 10.1104 16.0138 10.1029C16.1256 10.1622 16.2028 10.2455 16.2704 10.337C16.3349 10.4301 16.3904 10.5306 16.4114 10.6537C16.431 10.7775 16.4114 10.9238 16.4332 11.0446C16.437 11.0679 16.4475 11.0882 16.4535 11.1107C16.6155 10.743 16.7416 10.3626 16.8309 9.97463C16.8106 9.89059 16.7829 9.81255 16.7371 9.75102C16.6741 9.66323 16.569 9.61146 16.494 9.53642C16.4197 9.45989 16.3709 9.36384 16.3259 9.2633C16.2824 9.1605 16.2434 9.05545 16.2299 8.92339C16.2389 8.91438 16.2479 8.90538 16.2569 8.89637C16.3739 8.92414 16.4632 8.98342 16.5443 9.0517C16.6238 9.12148 16.6951 9.20252 16.7393 9.30982C16.7821 9.41862 16.7919 9.55818 16.8369 9.66323C16.8481 9.69175 16.8662 9.71351 16.8812 9.73902C16.9547 9.35484 16.993 8.96466 16.9952 8.57372C16.9554 8.48143 16.9089 8.39739 16.8414 8.34187C16.7649 8.27583 16.6568 8.25482 16.572 8.20305C16.488 8.15053 16.4242 8.07099 16.3634 7.9877C16.3041 7.90141 16.2486 7.81062 16.2118 7.68756C16.2186 7.6763 16.2254 7.6658 16.2321 7.65454C16.3477 7.65154 16.4415 7.68681 16.53 7.73108C16.617 7.77835 16.6996 7.83538 16.7604 7.92692C16.8211 8.01921 16.8557 8.14752 16.9179 8.23456C16.9389 8.26533 16.9652 8.28784 16.9907 8.31185C16.9772 7.92992 16.9299 7.54874 16.8489 7.17207C16.8451 7.16607 16.8414 7.16081 16.8376 7.15481C16.7769 7.06252 16.7093 6.98073 16.6245 6.93946C16.5413 6.89594 16.4377 6.90419 16.3492 6.87568C16.2614 6.84642 16.1878 6.78639 16.1158 6.71961C16.0453 6.65057 15.977 6.57629 15.9192 6.46449C15.9237 6.45248 15.9275 6.43973 15.932 6.42697C16.0378 6.39621 16.1308 6.40746 16.2209 6.42847C16.3101 6.45248 16.3972 6.48775 16.4707 6.56053C16.5443 6.63482 16.6013 6.74962 16.6756 6.81565C16.7078 6.84642 16.7431 6.86668 16.7799 6.88618C16.6823 6.51326 16.5488 6.14559 16.3799 5.78917C16.3769 5.79367 16.3732 5.79743 16.3702 5.80193C16.3559 5.78692 16.3409 5.77266 16.3267 5.75766C16.2516 5.68337 16.1736 5.62109 16.0888 5.60233C16.004 5.58057 15.9117 5.61434 15.8262 5.60759C15.7406 5.60008 15.6611 5.55881 15.5816 5.51004C15.5028 5.45827 15.4247 5.40049 15.3482 5.30294C15.3489 5.28944 15.3504 5.27593 15.3512 5.26317C15.4405 5.2084 15.5268 5.19714 15.6138 5.19714C15.7001 5.1994 15.7864 5.21365 15.8689 5.26768C15.9515 5.3232 16.028 5.4215 16.109 5.46802C16.1488 5.49278 16.1908 5.50704 16.2329 5.51604C16.2314 5.50854 16.2306 5.50029 16.2299 5.49278C15.9567 4.98554 15.6093 4.50607 15.1869 4.06937C15.5868 4.4558 15.9267 4.882 16.2073 5.33596C16.2066 5.32245 16.2006 5.3067 16.2006 5.29319C16.1938 5.19564 16.1893 5.09885 16.1983 5.00731C16.2276 4.82797 16.2764 4.65464 16.4092 4.50832C16.4234 4.51357 16.4377 4.51883 16.452 4.52408C16.593 4.77245 16.6298 4.9893 16.6305 5.18739C16.6245 5.28418 16.6028 5.37273 16.5735 5.45752C16.5495 5.54531 16.506 5.62259 16.452 5.69388C16.4445 5.70438 16.437 5.71414 16.4287 5.72464C16.5893 6.03003 16.7243 6.34668 16.8331 6.67008C16.8339 6.66708 16.8331 6.66333 16.8339 6.65958C16.8541 6.55828 16.8752 6.45698 16.9074 6.36319C16.9825 6.18236 17.074 6.01052 17.2406 5.88221C17.2533 5.89047 17.2661 5.89797 17.2788 5.90623C17.3546 6.19136 17.3366 6.42472 17.2864 6.63031C17.2563 6.72936 17.2106 6.81715 17.1595 6.89969C17.113 6.98598 17.0492 7.05801 16.9772 7.12179C16.975 7.1233 16.9727 7.12555 16.9712 7.12705C17.0537 7.4482 17.1123 7.7746 17.1453 8.104C17.1896 8.00721 17.2346 7.91116 17.2886 7.82487C17.4102 7.65229 17.5445 7.49097 17.7426 7.38742C17.7531 7.39792 17.7636 7.40843 17.7741 7.41893C17.7786 7.72808 17.7013 7.96519 17.5977 8.16778C17.5415 8.26458 17.4732 8.34637 17.4004 8.4214C17.3366 8.49494 17.2593 8.55046 17.1776 8.59999C17.1858 8.92489 17.1708 9.25129 17.131 9.57544C17.1971 9.4914 17.2623 9.40661 17.3344 9.33383C17.5017 9.18076 17.6788 9.03969 17.9039 8.96691C17.9121 8.97966 17.9196 8.99242 17.9279 9.00518C17.8559 9.32257 17.7163 9.55143 17.5587 9.73827C17.4769 9.82681 17.3861 9.89734 17.2924 9.95962C17.2173 10.0159 17.1333 10.0519 17.0477 10.0842C16.984 10.4008 16.8962 10.7137 16.7851 11.0214C16.8699 10.9538 16.9532 10.8848 17.041 10.827C17.2526 10.7032 17.4694 10.5922 17.7186 10.5592C17.7238 10.5734 17.7283 10.5877 17.7336 10.6019C17.5797 10.9118 17.3786 11.1182 17.1678 11.2772C17.0605 11.3515 16.9487 11.4048 16.8354 11.4498C16.7529 11.4873 16.6666 11.5038 16.581 11.5196C16.446 11.8152 16.2869 12.1034 16.1053 12.381C16.2058 12.333 16.3056 12.282 16.4062 12.2444C16.6583 12.1619 16.9119 12.0906 17.1783 12.1019C17.1798 12.1176 17.1813 12.1326 17.1828 12.1484C16.9449 12.4335 16.6816 12.6024 16.4204 12.7209C16.2891 12.7742 16.1578 12.8057 16.0273 12.8282C15.9417 12.847 15.8577 12.844 15.7729 12.8447C15.6318 13.0248 15.4795 13.1989 15.3174 13.367C15.2319 13.2814 15.1456 13.1951 15.0601 13.1096C15.2469 12.9295 15.4202 12.7397 15.5808 12.5431C15.5891 12.4786 15.5921 12.4163 15.5831 12.357C15.5673 12.2317 15.496 12.1236 15.4615 12.0066C15.4285 11.8888 15.4262 11.7642 15.4277 11.6382C15.4315 11.5113 15.4397 11.3845 15.4803 11.2442C15.49 11.2397 15.502 11.2352 15.514 11.2307Z" fill="#ED6362"/>
<path d="M12.3764 4.61641C12.1963 5.11914 11.8646 5.5581 11.3807 5.93553C11.1338 6.12837 10.9012 6.27018 10.6738 6.39549V7.83992C11.1886 7.60281 11.6695 7.32068 12.0777 6.93875V12.8943H13.658V4.61641H12.3764Z" fill="#E95454"/>
</g>
<defs>
<clipPath id="clip0_184:3062">
<rect width="24" height="24" fill="white" transform="translate(0.5)"/>
</clipPath>
</defs>
</svg>
