<svg width="24" height="24" viewBox="0 0 24 24" fill="none" xmlns="http://www.w3.org/2000/svg">
<path d="M23.7641 14.1735C23.4392 13.5966 22.8255 13.2383 22.1626 13.2383C21.8495 13.2383 21.5386 13.3201 21.2637 13.4749L15.9126 16.4884C15.8428 16.5278 15.7924 16.5943 15.7732 16.6721C15.6799 17.0531 15.4602 17.585 14.944 17.9554C14.3727 18.3654 13.5999 18.4508 12.6582 18.2093C12.6525 18.2079 12.6469 18.2063 12.642 18.2047L9.55511 17.2463C9.36846 17.1883 9.26379 16.9893 9.32174 16.8027C9.36814 16.6534 9.50413 16.5532 9.66017 16.5532C9.69562 16.5532 9.73113 16.5586 9.76549 16.5692L12.8363 17.5227C12.8412 17.5242 12.8462 17.5256 12.8512 17.5269C13.5754 17.7097 14.141 17.6588 14.5306 17.3794C15.0228 17.0262 15.1095 16.4054 15.1197 16.3142C15.1201 16.3113 15.1205 16.3084 15.1206 16.3054C15.1208 16.3039 15.1209 16.3031 15.121 16.3029C15.121 16.3019 15.1211 16.301 15.1212 16.3001C15.1212 16.2994 15.1212 16.2988 15.1213 16.2982C15.1799 15.5326 14.6859 14.8257 13.9457 14.6167L13.9321 14.6126C13.9095 14.6052 11.6379 13.8633 10.1905 13.4503C10.0297 13.4044 9.58657 13.2978 8.94572 13.2978C8.04946 13.2978 6.71241 13.5101 5.42995 14.524L0.107658 18.8291C-0.0140907 18.9276 -0.035682 19.1049 0.0588041 19.2297L2.94057 23.0362C2.98729 23.0978 3.05664 23.1383 3.13328 23.1486C3.1461 23.1504 3.15893 23.1512 3.17182 23.1512C3.23543 23.1512 3.29776 23.1303 3.34874 23.0909L7.06064 20.2328C7.14404 20.1687 7.25587 20.1445 7.35834 20.1687L13.3536 21.5855C13.7982 21.6905 14.2787 21.6227 14.6764 21.3986L23.0654 16.674C23.9474 16.1771 24.2608 15.0556 23.7641 14.1735Z" fill="#D565C3"/>
<path d="M20.4294 0.847656H9.47264C9.11674 0.847656 8.82812 1.13621 8.82812 1.49217V4.42498C8.82812 4.78095 9.11674 5.0695 9.47264 5.0695H9.71337V11.297C9.71337 11.653 10.0019 11.9415 10.3579 11.9415H19.5439C19.8999 11.9415 20.1885 11.653 20.1885 11.297V5.06943H20.4294C20.7853 5.06943 21.0739 4.78088 21.0739 4.42492V1.49217C21.074 1.13621 20.7853 0.847656 20.4294 0.847656ZM16.3068 6.60074H13.5952C13.3109 6.60074 13.0796 6.36942 13.0796 6.08513C13.0796 5.80083 13.3109 5.56952 13.5952 5.56952H16.3068C16.5911 5.56952 16.8224 5.80083 16.8224 6.08513C16.8224 6.36942 16.5911 6.60074 16.3068 6.60074ZM19.7849 3.7804H19.544H10.3579H10.1172V2.13669H19.7849V3.7804Z" fill="#D565C3"/>
</svg>
