<svg width="20" height="18" viewBox="0 0 20 18" fill="none" xmlns="http://www.w3.org/2000/svg">
<path d="M13.2255 10.3498C13.2255 12.1284 11.7786 13.5753 10 13.5753C8.22137 13.5753 6.77503 12.1284 6.77503 10.3498C6.77503 8.57119 8.22137 7.12429 10 7.12429C11.7786 7.12429 13.2255 8.57174 13.2255 10.3498ZM20 5.76973V14.931C20 16.1523 19.0098 17.1425 17.7885 17.1425H2.21153C0.990214 17.1425 0 16.1523 0 14.931V5.76973C0 4.54841 0.990214 3.55819 2.21153 3.55819H4.93172V2.793C4.93172 1.72428 5.79753 0.85791 6.86681 0.85791H13.1332C14.2025 0.85791 15.0683 1.72428 15.0683 2.793V3.55764H17.7885C19.0098 3.55819 20 4.54841 20 5.76973ZM14.8842 10.3498C14.8842 7.65672 12.6931 5.46564 10 5.46564C7.30746 5.46564 5.11638 7.65672 5.11638 10.3498C5.11638 13.0429 7.30746 15.234 10 15.234C12.6931 15.234 14.8842 13.0429 14.8842 10.3498Z" fill="black"/>
</svg>
