<svg width="38" height="38" viewBox="0 0 38 38" fill="none" xmlns="http://www.w3.org/2000/svg">
<rect width="38" height="38" rx="19" fill="#DCA8A8"/>
<g clip-path="url(#clip0_1087_4223)">
<path d="M24.509 14.6784C24.0089 14.1324 23.2313 13.3953 22.9005 15.0595C22.788 15.6253 22.5252 16.0615 22.2999 16.4127C22.0572 15.184 21.3268 13.9122 20.6385 13.0548C20.381 12.7339 19.4672 11.4586 19.2917 9.32505C19.2655 9.00662 18.8872 8.85709 18.6507 9.07187C16.3898 11.1242 15.1488 13.947 15.1028 17.1248C15.1028 17.1248 14.1613 16.3312 13.6499 14.8549C13.5121 14.4574 12.9792 14.3815 12.7479 14.7331C12.7035 14.8006 12.6624 14.8682 12.6253 14.9338C10.8809 18.0182 10.0418 21.7637 10.8175 25.2484C12.1146 31.0842 20.6943 32.7157 25.2364 29.0478C29.6804 25.4592 28.2678 18.7801 24.509 14.6784Z" fill="#ED694A"/>
<path d="M12.0209 25.6158C11.2542 22.0938 12.0658 18.3118 13.7691 15.1791C13.7261 15.0752 13.6846 14.9677 13.6459 14.856C13.5082 14.4584 12.9752 14.3826 12.744 14.7341C12.6996 14.8016 12.6585 14.8692 12.6214 14.9348C10.877 18.0192 10.0379 21.7647 10.8136 25.2494C11.4052 27.9113 13.5122 29.6979 16.0599 30.5064C14.0724 29.5436 12.5159 27.8932 12.0209 25.6158Z" fill="#D8553A"/>
<path d="M16.3109 17.0671C16.4051 14.183 17.4482 11.5969 19.3153 9.61024C19.3024 9.50083 19.2929 9.403 19.2868 9.32875C19.26 9.00761 18.8956 8.84655 18.6601 9.05946C16.4764 11.0337 15.1454 13.8279 15.0977 17.1255L15.5064 17.4429C15.7076 17.5992 15.9804 17.5924 16.1726 17.4492C16.2873 17.352 16.3037 17.2053 16.3109 17.0671Z" fill="#D8553A"/>
<path d="M23.1356 18.9452C22.7663 18.5419 22.1919 17.9975 21.9476 19.2267C21.8645 19.6446 21.6703 19.9668 21.5041 20.2262C21.3248 19.3187 20.7852 18.3793 20.2769 17.746C20.0867 17.509 19.4118 16.5671 19.2821 14.9911C19.2627 14.7559 18.9834 14.6455 18.8087 14.8041C17.1387 16.32 16.2221 18.405 16.1881 20.7521C16.1881 20.7521 15.4927 20.166 15.115 19.0756C15.0133 18.782 14.6196 18.7259 14.4488 18.9856C14.416 19.0354 14.3856 19.0854 14.3582 19.1339C13.0697 21.412 12.45 24.1785 13.0229 26.7524C13.981 31.0629 20.3181 32.268 23.673 29.5588C26.9554 26.9082 25.912 21.9749 23.1356 18.9452Z" fill="#F4A32C"/>
<path d="M14.2178 27.0901C13.7105 24.574 14.236 21.8743 15.3499 19.6262C15.265 19.4599 15.1846 19.2762 15.115 19.0752C15.0132 18.7816 14.6195 18.7255 14.4488 18.9851C14.416 19.035 14.3856 19.0849 14.3582 19.1335C13.0697 21.4116 12.45 24.1781 13.0229 26.752C13.4685 28.7568 15.0777 30.0893 17.0092 30.6692C15.6369 29.981 14.5564 28.7719 14.2178 27.0901Z" fill="#E89528"/>
<path d="M21.8864 22.8385C21.6363 22.5655 21.2475 22.1969 21.0821 23.029C21.0259 23.312 20.8944 23.53 20.7818 23.7056C20.6604 23.0913 20.2952 22.4554 19.9511 22.0267C19.8224 21.8663 19.3655 21.2286 19.2776 20.1618C19.2645 20.0026 19.0754 19.9278 18.9571 20.0352C17.8267 21.0614 17.2062 22.4728 17.1832 24.0617C17.1832 24.0617 16.7124 23.6649 16.4568 22.9268C16.3879 22.728 16.1214 22.6901 16.0058 22.8658C15.9836 22.8995 15.9631 22.9334 15.9445 22.9662C15.0723 24.5084 14.6527 26.3811 15.0406 28.1235C15.6891 31.0414 19.979 31.8572 22.25 30.0232C23.0277 29.3952 23.5099 28.5102 23.6077 27.5313C23.7553 26.0487 23.1847 24.2553 21.8864 22.8385Z" fill="#F4D44E"/>
<path d="M20.7229 26.4529C20.5835 26.3008 20.3669 26.0955 20.2748 26.559C20.2435 26.7167 20.1702 26.8382 20.1075 26.936C20.0398 26.5937 19.8364 26.2394 19.6447 26.0006C19.573 25.9112 19.3184 25.5559 19.2694 24.9616C19.2621 24.8729 19.1568 24.8313 19.0909 24.8911C18.4611 25.4628 18.1154 26.2491 18.1026 27.1343C18.1026 27.1343 17.8403 26.9132 17.6979 26.502C17.6595 26.3912 17.511 26.3701 17.4467 26.4681C17.4343 26.4869 17.4229 26.5057 17.4125 26.524C16.9266 27.3832 16.6929 28.4266 16.909 29.3973C17.4011 31.6112 21.4346 31.5441 21.682 29.0673C21.7641 28.2414 21.4462 27.2422 20.7229 26.4529Z" fill="#EAE9E8"/>
<path d="M17.8455 29.8368C17.6294 28.9685 17.8631 28.0352 18.3491 27.2666C18.3594 27.2502 18.3708 27.2334 18.3832 27.2166C18.4476 27.129 18.596 27.1479 18.6344 27.2469C18.7768 27.6148 19.0391 27.8126 19.0391 27.8126C19.0496 27.1619 19.2853 26.5713 19.7182 26.0976C19.6214 25.9635 19.3253 25.6403 19.2694 24.9618C19.2621 24.8731 19.1568 24.8315 19.0909 24.8913C18.4611 25.463 18.1154 26.2494 18.1026 27.1346C18.1026 27.1346 17.8403 26.9135 17.6979 26.5023C17.6595 26.3915 17.511 26.3704 17.4467 26.4684C17.4343 26.4872 17.4228 26.506 17.4125 26.5243C16.9266 27.3835 16.6929 28.4268 16.909 29.3976C17.1089 30.2973 17.9305 30.8381 18.8387 30.9686C18.3488 30.728 17.9722 30.347 17.8455 29.8368Z" fill="#F7E7A1"/>
<path d="M15.653 10.1896C16.6667 9.36512 16.6644 7.82261 15.653 7C14.6393 7.82444 14.6415 9.367 15.653 10.1896Z" fill="#D8553A"/>
<path d="M27.8005 16.8068C28.8141 15.9823 28.8119 14.4398 27.8005 13.6172C27.3372 13.994 26.789 15.9842 27.8005 16.8068Z" fill="#D8553A"/>
<path d="M9.84803 17.435C10.5786 16.8408 10.577 15.7292 9.84803 15.1362C9.51414 15.4078 9.11908 16.8422 9.84803 17.435Z" fill="#D8553A"/>
<path d="M22.4994 12.4885C23.23 11.8943 23.2284 10.7826 22.4994 10.1897C21.7689 10.7839 21.7705 11.8956 22.4994 12.4885Z" fill="#D8553A"/>
<path d="M17.1196 20.3739C17.2874 18.3934 18.0437 16.6323 19.3136 15.2898C19.3008 15.1925 19.29 15.0926 19.2815 14.9899C19.2622 14.7546 18.9828 14.6443 18.8081 14.8029C17.4848 16.0041 16.6355 17.563 16.3227 19.3262L16.3222 19.326C16.299 19.4568 16.2702 19.6473 16.252 19.797C16.2521 19.7971 16.2521 19.7972 16.2522 19.7974C16.2142 20.1097 16.1922 20.4277 16.1875 20.7509C16.2228 20.7578 17.0229 21.1691 17.1196 20.3739Z" fill="#E89528"/>
<path d="M16.2096 28.5367C15.8648 26.909 16.1585 25.1732 16.8406 23.6692C16.7084 23.4839 16.5638 23.235 16.4568 22.926C16.3879 22.7273 16.1215 22.6893 16.0058 22.8651C15.9837 22.8988 15.963 22.9326 15.9445 22.9654C15.0723 24.5076 14.6527 26.3804 15.0406 28.1228C15.3443 29.4893 16.4467 30.3947 17.7663 30.7829C16.9982 30.273 16.4172 29.5182 16.2096 28.5367Z" fill="#E8C842"/>
<path d="M18.428 23.3504C18.5423 22.5336 18.8763 21.6336 19.4022 20.8812C19.345 20.6688 19.2999 20.4288 19.2779 20.1618C19.2648 20.0026 19.0757 19.9278 18.9574 20.0352C18.2531 20.6747 17.7475 21.4639 17.4603 22.3522L17.4596 22.352C17.4144 22.4915 17.3505 22.7227 17.3118 22.9052C17.3121 22.9051 17.3125 22.9051 17.3128 22.905C17.2335 23.2773 17.1894 23.6638 17.1836 24.0616C17.816 24.1405 18.3392 23.9839 18.428 23.3504Z" fill="#E8C842"/>
</g>
<defs>
<clipPath id="clip0_1087_4223">
<rect width="24" height="24" fill="white" transform="translate(7 7)"/>
</clipPath>
</defs>
</svg>
